<svg xmlns="http://www.w3.org/2000/svg" viewBox="0 0 1278 1272" width="1278" height="1272">
<circle cx="639" cy="636" r="636" fill="#ffffff"/>
<path fill="#957c76" fill-rule="evenodd" d="M674.00,1233.82 L671.50,1232.77 L674.50,1231.43 C676.15,1230.69 678.40,1230.07 679.50,1230.04 C680.60,1230.01 682.85,1229.09 684.50,1227.98 C688.76,1225.14 693.22,1224.11 705.70,1223.11 C712.02,1222.60 717.94,1221.57 719.68,1220.67 C721.34,1219.81 726.71,1218.46 731.60,1217.67 C736.50,1216.88 742.24,1215.51 744.37,1214.62 C746.50,1213.73 751.17,1212.53 754.75,1211.96 C758.32,1211.39 763.78,1209.86 766.87,1208.55 C769.97,1207.25 774.30,1205.86 776.50,1205.46 C778.70,1205.06 782.15,1203.90 784.16,1202.89 C786.18,1201.88 790.00,1200.56 792.65,1199.97 C795.30,1199.37 798.21,1198.22 799.11,1197.40 C800.01,1196.59 804.07,1194.99 808.12,1193.85 C812.18,1192.72 816.85,1191.00 818.50,1190.02 C820.15,1189.05 822.77,1187.96 824.33,1187.59 C825.89,1187.22 828.81,1185.85 830.83,1184.54 C832.85,1183.22 836.34,1181.67 838.59,1181.08 C840.84,1180.49 843.47,1179.14 844.43,1178.08 C845.39,1177.01 847.90,1175.86 850.00,1175.50 C852.10,1175.14 854.61,1173.98 855.57,1172.92 C856.54,1171.85 859.58,1170.31 862.33,1169.49 C865.08,1168.68 868.15,1167.27 869.14,1166.37 C870.78,1164.89 881.41,1158.61 893.00,1152.28 C895.48,1150.92 898.17,1149.24 899.00,1148.53 C899.83,1147.81 902.30,1146.27 904.50,1145.10 C906.70,1143.93 910.52,1141.41 913.00,1139.50 C915.48,1137.59 919.08,1135.11 921.00,1133.98 C922.92,1132.85 926.12,1130.71 928.11,1129.21 C935.22,1123.87 939.55,1120.52 942.58,1118.03 C944.27,1116.64 947.37,1114.15 949.46,1112.50 C951.55,1110.85 954.67,1108.33 956.38,1106.91 C958.10,1105.48 960.25,1103.91 961.16,1103.41 C962.83,1102.49 973.60,1092.86 988.43,1079.00 C995.76,1072.15 1008.67,1058.94 1016.72,1050.05 C1018.49,1048.10 1020.79,1045.60 1021.83,1044.50 C1027.38,1038.64 1044.25,1018.28 1049.26,1011.41 C1052.43,1007.06 1057.65,999.90 1060.84,995.50 C1064.04,991.10 1068.42,984.58 1070.58,981.00 C1072.74,977.42 1075.30,973.38 1076.28,972.00 C1079.47,967.53 1083.25,961.59 1085.51,957.50 C1086.72,955.30 1090.62,948.33 1094.16,942.00 C1097.71,935.67 1101.11,929.60 1101.72,928.50 C1104.38,923.72 1114.90,901.27 1115.54,899.00 C1115.94,897.62 1117.32,894.66 1118.63,892.41 C1119.93,890.16 1121.00,887.62 1121.00,886.76 C1121.00,885.91 1122.30,882.73 1123.90,879.70 C1125.49,876.67 1127.11,872.29 1127.51,869.97 C1127.90,867.64 1129.05,864.34 1130.06,862.62 C1131.08,860.90 1132.56,856.69 1133.36,853.26 C1134.16,849.84 1135.73,845.56 1136.84,843.76 C1137.96,841.95 1139.18,838.01 1139.57,834.99 C1139.96,831.97 1141.06,827.92 1142.01,826.00 C1142.97,824.08 1144.34,819.12 1145.05,815.00 C1145.76,810.88 1147.37,804.73 1148.63,801.35 C1149.88,797.97 1151.36,790.77 1151.93,785.35 C1152.49,779.93 1153.82,773.02 1154.88,770.00 C1156.03,766.74 1157.28,759.01 1157.95,751.00 C1158.57,743.58 1159.95,731.20 1161.01,723.50 C1162.06,715.80 1163.21,700.73 1163.55,690.00 C1164.29,666.72 1162.64,625.87 1160.48,614.00 C1159.63,609.33 1158.50,598.48 1157.98,589.89 C1157.35,579.60 1156.35,572.11 1155.05,567.89 C1153.97,564.38 1152.62,556.77 1152.07,551.00 C1151.51,545.23 1150.19,538.25 1149.14,535.50 C1148.09,532.75 1146.52,525.97 1145.65,520.44 C1144.78,514.91 1143.17,508.38 1142.06,505.94 C1140.95,503.50 1140.02,500.15 1139.99,498.50 C1139.96,496.85 1139.02,493.02 1137.90,490.00 C1136.78,486.98 1134.99,481.43 1133.91,477.68 C1132.83,473.92 1131.32,469.87 1130.54,468.68 C1129.76,467.48 1128.59,464.25 1127.93,461.50 C1127.27,458.75 1125.94,455.15 1124.98,453.50 C1124.01,451.85 1122.51,447.99 1121.64,444.93 C1120.76,441.86 1119.14,438.53 1118.02,437.52 C1116.91,436.51 1116.00,435.16 1116.00,434.51 C1116.00,433.87 1114.85,431.13 1113.44,428.42 C1112.03,425.71 1110.22,421.42 1109.43,418.87 C1108.64,416.32 1107.32,413.68 1106.50,413.00 C1105.68,412.32 1104.52,409.94 1103.92,407.70 C1103.32,405.47 1101.77,402.26 1100.49,400.57 C1099.21,398.88 1097.83,396.15 1097.44,394.50 C1097.04,392.85 1095.60,389.57 1094.24,387.21 C1090.06,379.97 1090.13,379.84 1118.98,346.00 C1120.62,344.07 1124.67,339.12 1127.99,335.00 C1131.30,330.88 1135.29,325.93 1136.85,324.00 C1138.40,322.07 1140.21,319.49 1140.87,318.25 C1142.34,315.49 1146.90,315.22 1149.33,317.75 C1151.41,319.91 1158.00,329.93 1158.00,330.93 C1158.00,331.33 1159.28,333.65 1160.84,336.08 C1165.78,343.77 1174.68,359.33 1176.82,364.00 C1177.95,366.48 1179.53,369.62 1180.32,371.00 C1184.04,377.48 1189.00,388.28 1189.00,389.91 C1189.00,390.91 1190.12,393.38 1191.50,395.40 C1192.88,397.43 1194.00,399.68 1194.00,400.40 C1194.00,401.11 1195.10,403.78 1196.45,406.31 C1197.80,408.85 1199.41,412.85 1200.03,415.21 C1200.65,417.57 1202.01,420.97 1203.06,422.77 C1204.10,424.57 1205.67,428.82 1206.55,432.21 C1207.43,435.60 1208.96,439.98 1209.94,441.94 C1210.92,443.90 1212.00,447.31 1212.33,449.51 C1212.67,451.72 1214.04,456.22 1215.38,459.51 C1216.71,462.81 1218.13,467.75 1218.53,470.50 C1218.92,473.25 1220.26,477.98 1221.49,481.00 C1222.73,484.02 1224.04,489.59 1224.41,493.37 C1224.78,497.15 1225.91,501.87 1226.93,503.87 C1228.05,506.06 1229.41,512.68 1230.38,520.58 C1231.25,527.77 1232.65,535.60 1233.49,537.97 C1234.33,540.34 1235.48,548.86 1236.06,556.89 C1236.63,564.93 1237.77,575.10 1238.58,579.50 C1241.17,593.51 1242.43,633.54 1241.09,659.12 C1240.44,671.56 1239.50,683.26 1238.99,685.12 C1238.49,686.98 1237.40,696.83 1236.58,707.00 C1235.76,717.17 1234.39,727.75 1233.55,730.50 C1232.71,733.25 1231.34,741.01 1230.50,747.74 C1229.67,754.47 1228.14,762.12 1227.11,764.74 C1226.09,767.36 1224.76,773.16 1224.16,777.63 C1223.56,782.10 1222.21,787.27 1221.14,789.13 C1220.08,790.98 1218.89,795.20 1218.50,798.49 C1218.11,801.78 1216.91,806.22 1215.82,808.35 C1214.74,810.47 1213.24,815.12 1212.50,818.67 C1211.76,822.22 1210.43,826.22 1209.55,827.57 C1208.67,828.91 1207.52,832.37 1207.00,835.26 C1206.47,838.14 1204.96,842.75 1203.62,845.50 C1200.81,851.31 1197.55,859.21 1194.78,866.96 C1193.71,869.97 1191.97,873.64 1190.92,875.12 C1189.86,876.60 1189.00,878.44 1189.00,879.21 C1189.00,879.98 1187.93,882.83 1186.61,885.55 C1185.30,888.27 1183.07,892.98 1181.65,896.00 C1178.94,901.78 1168.78,921.00 1163.93,929.50 C1162.36,932.25 1160.27,936.09 1159.29,938.03 C1158.30,939.97 1155.70,944.17 1153.50,947.37 C1148.97,953.95 1144.06,961.76 1141.06,967.18 C1139.94,969.21 1138.60,971.13 1138.08,971.45 C1137.57,971.77 1133.44,977.52 1128.92,984.24 C1124.40,990.95 1118.50,999.16 1115.81,1002.47 C1113.12,1005.79 1109.25,1010.65 1107.21,1013.29 C1100.24,1022.28 1090.50,1033.40 1083.50,1040.37 C1079.65,1044.20 1075.60,1048.50 1074.50,1049.92 C1070.36,1055.28 1030.21,1093.14 1024.79,1096.80 C1023.53,1097.65 1020.70,1099.97 1018.50,1101.96 C1016.30,1103.94 1010.07,1108.92 1004.67,1113.03 C999.26,1117.14 992.96,1121.96 990.67,1123.75 C988.37,1125.54 985.38,1127.54 984.00,1128.20 C982.62,1128.86 975.88,1133.07 969.00,1137.57 C962.12,1142.06 955.15,1146.49 953.50,1147.42 C951.85,1148.35 948.02,1150.65 945.00,1152.54 C941.98,1154.43 937.48,1156.93 935.00,1158.11 C932.52,1159.28 929.83,1160.82 929.00,1161.51 C926.81,1163.37 902.87,1175.56 898.75,1176.92 C896.82,1177.55 894.44,1178.96 893.47,1180.04 C892.49,1181.12 890.66,1182.00 889.41,1182.00 C886.29,1182.00 881.91,1183.76 879.50,1185.98 C878.40,1186.99 875.48,1188.36 873.01,1189.01 C870.54,1189.67 867.37,1191.02 865.98,1192.02 C864.58,1193.01 861.65,1194.14 859.47,1194.52 C857.28,1194.91 854.02,1196.07 852.22,1197.10 C850.41,1198.13 846.08,1199.63 842.60,1200.44 C839.12,1201.25 834.75,1202.79 832.88,1203.86 C831.02,1204.93 827.48,1206.13 825.00,1206.52 C822.52,1206.92 818.77,1208.12 816.65,1209.19 C814.53,1210.27 810.03,1211.57 806.65,1212.10 C803.27,1212.62 798.42,1213.93 795.87,1215.00 C793.32,1216.08 787.25,1217.61 782.37,1218.41 C777.49,1219.22 770.89,1220.79 767.70,1221.90 C764.51,1223.01 758.44,1224.20 754.20,1224.54 C749.97,1224.89 742.00,1226.30 736.50,1227.70 C728.54,1229.71 722.72,1230.38 708.00,1230.98 C694.85,1231.51 688.24,1232.20 685.12,1233.36 C680.15,1235.22 677.58,1235.33 674.00,1233.82 Z M577.50,1197.89 C570.90,1197.42 561.23,1196.35 556.00,1195.52 C550.77,1194.70 541.66,1193.58 535.74,1193.04 C529.82,1192.49 522.39,1191.40 519.24,1190.60 C516.08,1189.80 509.12,1188.42 503.77,1187.53 C498.42,1186.64 492.47,1185.26 490.56,1184.46 C488.65,1183.66 482.34,1182.34 476.53,1181.53 C470.71,1180.71 464.30,1179.17 462.24,1178.09 C458.33,1176.04 450.65,1173.34 438.00,1169.58 C433.88,1168.35 429.15,1166.66 427.50,1165.81 C425.85,1164.96 422.70,1163.95 420.50,1163.56 C418.30,1163.18 414.93,1161.81 413.00,1160.52 C411.07,1159.24 407.93,1157.87 406.00,1157.48 C404.07,1157.08 400.02,1155.47 397.00,1153.88 C393.98,1152.30 391.12,1151.00 390.65,1151.00 C390.18,1151.00 381.58,1146.95 371.55,1142.00 C361.52,1137.05 352.85,1133.00 352.28,1133.00 C351.71,1133.00 350.63,1132.25 349.87,1131.34 C349.12,1130.42 346.25,1128.61 343.50,1127.31 C338.76,1125.07 334.61,1122.47 329.00,1118.22 C327.62,1117.18 325.08,1115.84 323.34,1115.25 C321.60,1114.65 317.70,1112.22 314.67,1109.83 C309.20,1105.53 305.09,1102.64 299.67,1099.26 C298.11,1098.29 293.16,1094.71 288.67,1091.30 C284.17,1087.89 278.76,1083.84 276.63,1082.30 C274.50,1080.76 271.58,1078.36 270.13,1076.98 C268.68,1075.59 262.10,1069.78 255.50,1064.07 C237.10,1048.15 216.30,1026.64 197.79,1004.37 C184.54,988.44 180.00,982.71 180.00,981.89 C180.00,981.42 177.53,978.11 174.50,974.54 C171.48,970.98 169.00,967.66 169.00,967.17 C169.00,966.68 167.65,964.58 166.00,962.50 C164.35,960.42 163.00,958.22 163.00,957.61 C163.00,957.00 161.31,953.93 159.25,950.79 C151.75,939.37 150.51,937.20 135.48,908.91 C131.51,901.44 126.61,891.54 124.60,886.91 C122.59,882.29 120.04,876.81 118.94,874.74 C117.83,872.67 116.00,867.95 114.86,864.24 C113.72,860.53 112.34,856.95 111.79,856.28 C111.25,855.60 109.76,851.78 108.49,847.78 C107.22,843.77 105.28,838.25 104.18,835.50 C101.04,827.62 91.43,793.49 90.53,787.00 C90.19,784.52 89.02,779.59 87.92,776.03 C86.83,772.47 85.29,764.15 84.51,757.53 C83.73,750.91 82.66,744.15 82.12,742.50 C78.83,732.33 76.59,678.46 77.99,643.07 C79.10,614.90 79.57,608.78 81.54,597.00 C82.32,592.33 83.66,583.33 84.53,577.00 C85.90,566.96 87.24,560.18 91.88,540.00 C94.06,530.47 98.91,513.33 100.43,509.76 C101.30,507.71 102.52,503.66 103.13,500.76 C103.74,497.87 105.04,493.93 106.00,492.00 C106.97,490.07 108.09,486.48 108.49,484.00 C108.88,481.52 110.04,478.14 111.05,476.47 C112.07,474.80 113.37,471.29 113.96,468.68 C114.55,466.06 116.12,462.25 117.45,460.21 C118.79,458.17 120.20,455.15 120.58,453.50 C120.97,451.85 122.14,449.28 123.18,447.80 C124.22,446.31 125.66,443.16 126.38,440.80 C127.10,438.43 130.00,432.49 132.82,427.58 C135.65,422.67 138.48,417.05 139.12,415.08 C139.76,413.11 141.13,410.29 142.17,408.81 C143.20,407.33 144.74,404.63 145.58,402.81 C146.42,400.99 148.87,396.80 151.03,393.50 C153.18,390.20 157.05,383.68 159.62,379.00 C162.20,374.32 165.29,369.38 166.49,368.00 C167.70,366.62 171.55,361.45 175.06,356.50 C178.56,351.55 182.57,346.07 183.96,344.33 C185.36,342.59 188.07,338.99 190.00,336.33 C195.99,328.06 207.30,314.94 220.15,301.35 C233.08,287.68 234.96,285.88 252.00,270.95 C257.77,265.89 263.18,260.99 264.00,260.05 C264.82,259.11 267.76,256.73 270.53,254.75 C273.30,252.77 277.67,248.87 280.24,246.07 C282.81,243.28 285.55,241.00 286.33,241.00 C287.12,241.00 288.37,240.25 289.13,239.34 C289.88,238.42 292.36,236.85 294.63,235.84 C296.90,234.84 299.46,232.95 300.30,231.66 C301.15,230.37 303.23,228.73 304.92,228.03 C306.62,227.33 308.00,226.41 308.00,226.00 C308.00,225.58 310.36,224.11 313.25,222.74 C316.14,221.36 321.31,218.16 324.75,215.62 C328.19,213.08 331.35,211.00 331.77,211.00 C332.19,211.00 334.33,209.77 336.52,208.28 C338.71,206.78 343.15,204.29 346.39,202.75 C349.63,201.21 354.27,198.61 356.69,196.98 C359.12,195.34 361.44,194.00 361.85,194.00 C362.27,194.00 364.73,192.66 367.31,191.02 C369.90,189.38 373.25,187.73 374.76,187.37 C376.27,187.00 379.93,185.42 382.89,183.85 C385.86,182.28 388.83,181.00 389.50,181.00 C390.17,181.00 392.47,179.80 394.61,178.34 C396.75,176.88 400.50,175.07 402.94,174.33 C405.38,173.59 408.31,172.38 409.44,171.64 C410.57,170.90 413.26,169.97 415.41,169.58 C417.56,169.18 421.79,167.53 424.80,165.92 C427.82,164.32 431.81,163.00 433.68,163.00 C435.55,163.00 439.65,161.68 442.79,160.06 C445.93,158.45 450.30,156.86 452.50,156.52 C456.50,155.92 469.85,152.08 484.04,147.46 C489.42,145.70 493.81,145.00 499.37,145.00 C509.52,145.00 509.09,146.62 498.17,149.51 C493.65,150.71 488.95,152.20 487.73,152.82 C486.50,153.44 480.32,155.83 474.00,158.11 C467.68,160.40 459.12,163.50 455.00,165.00 C450.88,166.50 444.87,169.14 441.65,170.86 C438.43,172.59 435.16,174.00 434.38,174.00 C433.60,174.00 431.28,175.04 429.23,176.31 C427.18,177.58 423.93,179.24 422.00,180.00 C420.07,180.76 416.93,182.32 415.00,183.47 C408.41,187.40 405.49,188.98 399.50,191.90 C396.20,193.51 390.37,196.89 386.55,199.41 C382.72,201.94 379.07,204.00 378.44,204.00 C377.80,204.00 373.97,206.70 369.92,210.00 C365.87,213.30 362.23,216.00 361.83,216.00 C360.69,216.00 347.00,225.27 347.00,226.04 C347.00,226.42 345.09,228.00 342.75,229.56 C340.41,231.12 337.15,233.60 335.50,235.08 C333.85,236.56 331.30,238.38 329.84,239.13 C320.75,243.80 262.16,301.58 257.00,310.96 C255.51,313.67 251.90,318.14 242.75,328.59 C240.14,331.58 238.00,334.48 238.00,335.03 C238.00,335.59 236.27,337.95 234.15,340.27 C232.04,342.60 228.41,347.78 226.08,351.80 C223.76,355.81 220.62,360.53 219.10,362.30 C217.58,364.06 214.39,369.10 212.01,373.50 C209.62,377.90 206.91,382.62 205.97,384.00 C205.03,385.38 203.92,387.62 203.50,389.00 C203.08,390.38 201.78,392.83 200.62,394.46 C199.45,396.09 197.56,399.24 196.42,401.46 C195.27,403.68 192.23,409.46 189.67,414.31 C187.10,419.16 185.00,423.65 185.00,424.30 C185.00,424.94 183.89,427.73 182.54,430.49 C181.19,433.24 179.38,437.07 178.53,439.00 C177.67,440.93 176.33,443.62 175.55,445.00 C174.10,447.56 171.38,455.46 167.96,467.00 C166.90,470.57 165.17,475.07 164.12,477.00 C163.07,478.93 161.89,482.46 161.50,484.86 C161.11,487.26 159.75,491.54 158.47,494.36 C157.20,497.19 155.67,502.81 155.06,506.85 C154.45,510.89 153.30,515.45 152.51,516.98 C151.72,518.51 150.16,524.88 149.05,531.13 C147.95,537.39 146.33,545.20 145.46,548.50 C144.59,551.80 143.24,561.70 142.46,570.50 C141.68,579.30 140.58,588.30 140.01,590.50 C136.94,602.45 136.97,678.68 140.05,692.00 C140.62,694.48 141.92,703.70 142.94,712.50 C143.95,721.30 145.27,729.85 145.87,731.50 C146.47,733.15 147.89,740.32 149.01,747.43 C150.14,754.53 151.96,762.39 153.07,764.89 C154.17,767.38 155.34,772.14 155.67,775.46 C156.00,778.78 157.33,784.07 158.63,787.22 C159.94,790.37 161.00,793.75 161.00,794.73 C161.00,795.72 162.33,799.26 163.96,802.60 C165.59,805.94 167.22,810.66 167.58,813.09 C167.94,815.51 169.10,819.02 170.16,820.88 C171.22,822.73 172.69,826.88 173.44,830.08 C174.19,833.29 175.72,837.20 176.83,838.77 C177.95,840.34 179.19,842.92 179.59,844.51 C180.36,847.57 192.09,871.09 195.80,877.00 C197.00,878.92 197.99,881.13 198.00,881.91 C198.00,882.68 199.15,884.82 200.55,886.66 C201.96,888.50 203.60,891.43 204.21,893.17 C204.81,894.90 207.17,899.06 209.45,902.41 C211.73,905.76 215.32,911.65 217.43,915.50 C219.54,919.35 222.08,923.40 223.07,924.50 C225.93,927.68 229.74,933.16 232.09,937.50 C233.29,939.70 235.45,942.90 236.88,944.61 C238.32,946.32 242.20,951.21 245.50,955.47 C262.69,977.65 287.83,1004.80 305.50,1020.27 C309.90,1024.12 316.20,1029.66 319.50,1032.59 C322.80,1035.51 327.30,1039.10 329.50,1040.55 C331.70,1042.01 334.62,1044.26 336.00,1045.54 C338.71,1048.07 340.47,1049.37 355.28,1059.68 C360.66,1063.43 366.35,1067.21 367.92,1068.07 C369.50,1068.93 372.22,1070.85 373.97,1072.32 C375.72,1073.79 377.61,1075.00 378.17,1075.00 C378.72,1075.00 380.83,1076.14 382.84,1077.54 C395.40,1086.23 435.76,1107.65 444.99,1110.51 C446.35,1110.94 449.05,1112.32 450.99,1113.59 C452.92,1114.86 456.74,1116.40 459.47,1117.00 C462.20,1117.61 465.80,1118.94 467.47,1119.96 C469.14,1120.98 472.52,1122.36 474.99,1123.01 C477.47,1123.67 481.07,1125.01 482.99,1125.99 C484.92,1126.97 489.10,1128.31 492.29,1128.96 C495.47,1129.62 499.97,1131.24 502.29,1132.57 C504.64,1133.91 508.14,1134.98 510.23,1134.99 C512.28,1134.99 516.80,1136.07 520.27,1137.38 C523.75,1138.69 529.04,1140.08 532.04,1140.47 C535.05,1140.86 541.10,1142.23 545.50,1143.52 C549.90,1144.82 557.10,1146.17 561.50,1146.54 C565.90,1146.91 574.67,1148.32 581.00,1149.66 C591.00,1151.79 596.68,1152.23 624.50,1153.05 C663.41,1154.20 702.56,1152.86 713.50,1150.01 C717.35,1149.01 723.88,1147.95 728.00,1147.65 C732.12,1147.36 740.63,1145.95 746.90,1144.52 C753.16,1143.08 762.47,1141.28 767.58,1140.51 C772.69,1139.75 778.26,1138.40 779.96,1137.52 C781.66,1136.64 785.63,1135.45 788.77,1134.88 C797.37,1133.31 814.90,1128.02 820.06,1125.44 C822.56,1124.19 826.39,1122.84 828.56,1122.45 C830.72,1122.05 834.52,1120.73 837.00,1119.50 C839.48,1118.28 843.30,1116.71 845.50,1116.02 C852.16,1113.93 862.76,1109.19 877.50,1101.71 C895.46,1092.59 897.29,1091.59 904.50,1086.90 C907.80,1084.76 912.75,1081.87 915.50,1080.49 C918.25,1079.11 923.42,1076.18 927.00,1073.97 C930.58,1071.76 934.66,1069.40 936.08,1068.73 C937.51,1068.05 940.21,1066.24 942.08,1064.70 C951.78,1056.76 957.72,1052.18 959.68,1051.15 C962.19,1049.83 980.85,1034.57 989.00,1027.17 C992.02,1024.42 995.74,1021.61 997.25,1020.93 C998.76,1020.24 1000.00,1019.35 1000.00,1018.95 C1000.00,1017.76 1022.72,995.00 1023.91,995.00 C1026.12,995.00 1024.90,999.23 1021.75,1002.50 C1017.02,1007.40 1014.99,1009.82 1010.39,1016.05 C1005.78,1022.30 976.28,1052.66 971.23,1056.35 C969.43,1057.67 963.88,1062.64 958.88,1067.39 C953.89,1072.15 948.19,1077.27 946.21,1078.77 C944.23,1080.27 941.63,1082.40 940.42,1083.50 C939.20,1084.60 936.25,1086.95 933.86,1088.73 C918.59,1100.05 915.49,1102.22 912.01,1104.00 C909.88,1105.08 907.86,1106.42 907.52,1106.96 C906.65,1108.37 896.51,1115.00 895.22,1115.00 C894.63,1115.00 892.88,1116.05 891.33,1117.33 C889.77,1118.61 884.90,1121.60 880.50,1123.97 C876.10,1126.35 871.38,1129.30 870.00,1130.52 C868.62,1131.75 865.85,1133.29 863.83,1133.93 C861.81,1134.58 859.62,1135.75 858.96,1136.55 C858.30,1137.34 855.90,1138.52 853.63,1139.17 C851.36,1139.82 848.83,1140.89 848.00,1141.56 C847.17,1142.23 838.40,1146.48 828.50,1151.00 C818.60,1155.52 809.15,1160.03 807.50,1161.02 C805.85,1162.02 802.70,1163.15 800.50,1163.55 C798.30,1163.94 795.15,1164.96 793.50,1165.81 C791.85,1166.66 786.90,1168.35 782.50,1169.57 C778.10,1170.78 771.69,1172.73 768.25,1173.89 C764.81,1175.05 759.19,1176.94 755.75,1178.09 C752.31,1179.24 746.12,1180.77 742.00,1181.50 C737.88,1182.23 732.92,1183.49 731.00,1184.31 C729.08,1185.13 723.90,1186.33 719.50,1186.98 C715.10,1187.62 707.67,1188.99 703.00,1190.00 C698.33,1191.01 691.58,1192.12 688.00,1192.46 C675.79,1193.62 663.51,1195.07 654.00,1196.48 C642.33,1198.21 594.17,1199.10 577.50,1197.89 Z M301.29,940.49 L299.14,938.98 L299.16,689.24 C299.17,516.55 299.50,438.64 300.23,436.70 C301.84,432.42 304.95,433.48 308.14,439.40 C309.60,442.10 311.52,444.71 312.42,445.22 C313.32,445.72 315.19,447.79 316.56,449.82 C324.11,460.92 336.94,477.73 339.91,480.42 C341.06,481.46 342.00,482.86 342.00,483.53 C342.00,484.20 342.70,485.34 343.56,486.05 C344.42,486.76 347.21,490.08 349.76,493.42 C352.31,496.76 357.80,503.90 361.95,509.29 C366.10,514.67 371.30,521.46 373.50,524.38 C375.70,527.29 379.07,531.70 381.00,534.17 C382.93,536.64 387.07,542.07 390.22,546.24 C393.37,550.40 396.32,553.97 396.78,554.16 C397.24,554.35 399.17,556.66 401.06,559.30 C407.19,567.87 408.78,569.98 411.66,573.43 C413.22,575.30 415.62,578.49 417.00,580.53 C418.38,582.57 420.93,585.74 422.67,587.57 C424.41,589.40 426.13,591.82 426.48,592.95 C426.84,594.08 427.53,595.00 428.02,595.00 C428.50,595.00 431.02,598.04 433.62,601.75 C436.22,605.46 439.36,609.62 440.61,611.00 C441.85,612.38 445.26,616.72 448.19,620.66 C455.96,631.14 462.75,640.08 465.52,643.50 C470.29,649.39 478.56,659.88 482.50,665.03 C484.70,667.91 489.88,674.45 494.00,679.57 C498.12,684.68 502.40,690.22 503.50,691.88 C506.43,696.30 518.79,712.40 538.52,737.50 C541.54,741.35 546.05,747.20 548.54,750.50 C564.87,772.16 570.18,778.99 571.11,779.57 C571.69,779.93 573.82,782.71 575.83,785.74 C583.34,797.05 584.05,798.00 585.03,798.00 C586.60,798.00 597.93,785.40 611.50,768.56 C615.35,763.78 620.45,757.76 622.83,755.18 C625.22,752.61 628.26,748.81 629.60,746.75 C630.93,744.69 632.37,743.00 632.79,743.00 C633.21,743.00 635.48,740.35 637.84,737.11 C640.19,733.88 644.47,728.81 647.33,725.86 C650.20,722.91 653.85,718.57 655.44,716.20 C657.03,713.84 661.31,708.44 664.94,704.20 C668.57,699.97 672.28,695.38 673.18,694.00 C674.07,692.62 679.01,686.71 684.15,680.85 C689.29,674.99 695.75,667.37 698.50,663.93 C701.25,660.48 704.18,656.94 705.01,656.06 C705.85,655.19 707.61,652.90 708.93,650.99 C710.26,649.07 712.83,645.92 714.65,644.00 C719.77,638.58 736.83,618.24 743.50,609.59 C746.80,605.31 755.28,594.99 762.35,586.66 C780.12,565.68 791.32,552.31 795.54,547.00 C797.51,544.52 800.78,540.66 802.81,538.42 C804.84,536.17 810.10,529.95 814.50,524.59 C818.90,519.23 828.80,507.29 836.50,498.06 C844.20,488.82 852.30,478.90 854.50,476.00 C859.40,469.56 870.15,456.64 877.55,448.31 C880.58,444.90 884.92,439.72 887.19,436.81 C889.47,433.89 893.17,429.40 895.41,426.84 C897.66,424.28 902.42,418.49 906.00,413.99 C909.58,409.49 914.25,403.93 916.39,401.65 C918.53,399.37 922.01,395.17 924.12,392.32 C926.23,389.48 928.43,386.85 929.00,386.50 C929.57,386.15 931.80,383.48 933.95,380.57 C936.10,377.66 939.28,373.76 941.02,371.89 C942.76,370.03 945.95,366.25 948.09,363.50 C957.14,351.90 963.15,344.51 974.17,331.39 C980.59,323.75 988.84,313.90 992.49,309.50 C1005.66,293.67 1020.76,275.52 1035.21,258.17 C1043.31,248.45 1051.41,238.58 1053.21,236.23 C1055.02,233.89 1057.45,230.96 1058.62,229.73 C1059.79,228.50 1061.14,226.76 1061.62,225.86 C1062.80,223.66 1073.27,211.82 1079.61,205.51 C1082.43,202.72 1085.03,199.49 1085.39,198.34 C1085.76,197.19 1087.51,194.66 1089.28,192.71 C1102.17,178.54 1104.90,174.93 1104.96,171.94 C1104.98,171.08 1102.04,167.93 1098.42,164.94 C1094.79,161.95 1091.53,159.04 1091.17,158.48 C1090.28,157.12 1077.48,146.12 1072.76,142.66 C1064.44,136.55 1065.71,133.35 1077.03,131.93 C1081.32,131.39 1085.09,130.33 1086.17,129.34 C1087.28,128.34 1091.63,127.14 1097.05,126.34 C1102.02,125.60 1107.84,124.10 1110.00,123.00 C1112.15,121.90 1117.19,120.54 1121.20,119.97 C1125.22,119.40 1130.30,118.10 1132.50,117.07 C1134.70,116.05 1139.11,114.93 1142.31,114.59 C1145.50,114.25 1150.70,112.92 1153.85,111.64 C1157.00,110.36 1163.39,108.74 1168.04,108.05 C1172.69,107.36 1178.21,105.94 1180.30,104.89 C1182.39,103.84 1186.89,102.57 1190.30,102.07 C1193.71,101.57 1198.47,100.45 1200.88,99.58 C1207.96,97.02 1209.74,97.41 1210.95,101.75 C1212.07,105.79 1212.49,246.55 1211.39,249.42 C1210.47,251.83 1205.46,251.40 1203.32,248.72 C1202.32,247.47 1199.92,245.36 1198.00,244.04 C1194.40,241.57 1191.60,239.20 1179.07,228.00 C1175.06,224.43 1171.15,221.14 1170.37,220.69 C1167.91,219.28 1165.66,220.83 1159.50,228.20 C1156.20,232.14 1151.47,237.73 1149.00,240.61 C1142.14,248.61 1135.90,256.29 1125.16,270.00 C1119.77,276.88 1114.57,283.14 1113.60,283.93 C1112.64,284.72 1110.98,287.08 1109.91,289.18 C1108.84,291.28 1107.62,293.00 1107.20,293.00 C1105.93,293.00 1090.27,312.16 1079.33,327.09 C1078.14,328.72 1074.06,333.53 1070.27,337.78 C1066.48,342.02 1060.25,349.44 1056.44,354.26 C1052.62,359.08 1047.92,364.97 1046.00,367.35 C1044.08,369.73 1039.09,375.91 1034.92,381.09 C1030.75,386.26 1024.23,394.18 1020.42,398.67 C1016.61,403.17 1010.89,410.15 1007.70,414.17 C1004.52,418.20 998.76,425.48 994.92,430.34 C991.07,435.20 985.68,441.95 982.93,445.34 C967.11,464.89 958.52,475.40 950.50,485.09 C945.55,491.07 938.58,499.61 935.00,504.07 C927.06,513.98 928.05,512.78 910.71,533.34 C902.89,542.61 895.84,551.16 895.03,552.34 C894.22,553.53 892.09,556.27 890.28,558.43 C888.48,560.59 887.00,562.88 887.00,563.52 C887.00,564.15 884.97,566.57 882.49,568.90 C880.02,571.22 877.32,574.42 876.50,576.00 C875.68,577.58 874.18,579.47 873.16,580.19 C872.15,580.91 870.73,582.62 870.00,584.00 C869.28,585.38 867.04,588.11 865.02,590.08 C861.90,593.12 854.18,602.64 846.50,612.90 C845.40,614.37 839.55,621.57 833.50,628.89 C827.45,636.21 820.55,644.74 818.16,647.85 C815.78,650.96 811.49,656.20 808.64,659.50 C805.78,662.80 801.89,667.52 799.98,670.00 C798.08,672.48 792.91,678.86 788.51,684.19 C784.10,689.52 778.70,696.22 776.50,699.09 C770.41,707.01 758.07,722.12 736.50,748.06 C734.30,750.71 730.70,755.22 728.50,758.09 C726.30,760.96 723.77,764.03 722.88,764.91 C722.00,765.78 720.13,768.30 718.73,770.50 C717.34,772.70 713.84,776.98 710.97,780.00 C708.09,783.02 703.22,788.88 700.15,793.00 C697.07,797.12 690.93,804.77 686.50,810.00 C675.42,823.08 662.52,839.04 655.81,848.00 C652.72,852.12 647.18,858.88 643.49,863.00 C630.61,877.42 629.46,878.77 624.00,886.02 C620.98,890.04 616.59,895.52 614.25,898.20 C611.91,900.87 610.00,903.43 610.00,903.88 C610.00,904.32 607.86,907.21 605.25,910.28 C602.64,913.36 597.42,919.50 593.66,923.94 C589.78,928.51 586.04,932.00 585.02,932.00 C583.41,932.00 577.67,925.46 567.02,911.50 C565.34,909.30 561.94,905.02 559.46,902.00 C556.99,898.98 554.18,895.20 553.23,893.61 C552.28,892.02 549.25,888.00 546.50,884.68 C538.27,874.75 531.49,866.05 506.21,833.02 C494.88,818.20 491.87,814.35 486.49,807.69 C483.73,804.29 480.68,800.38 479.70,799.00 C478.73,797.62 476.82,794.92 475.46,793.00 C474.10,791.08 472.07,788.38 470.96,787.00 C468.47,783.93 463.39,777.52 455.50,767.48 C452.20,763.28 447.93,757.89 446.00,755.51 C444.07,753.12 439.35,747.04 435.50,741.99 C431.65,736.95 425.57,729.09 422.00,724.52 C418.43,719.96 413.48,713.38 411.00,709.90 C408.52,706.42 404.48,701.26 402.00,698.44 C399.52,695.61 394.88,689.89 391.67,685.73 C385.37,677.54 383.42,676.15 381.24,678.33 C379.83,679.74 379.27,688.00 380.45,689.91 C380.78,690.46 381.05,746.62 381.03,814.70 L381.01,938.50 L378.89,940.25 C376.96,941.85 373.56,942.00 340.11,942.00 C309.04,942.00 303.12,941.77 301.29,940.49 Z M653.99,940.87 C652.29,940.52 650.64,939.97 650.33,939.66 C650.01,939.34 653.02,935.58 657.01,931.29 C660.99,927.01 665.15,922.03 666.24,920.22 C667.33,918.42 669.07,916.50 670.10,915.94 C671.14,915.39 672.71,913.53 673.60,911.81 C674.49,910.08 678.88,904.23 683.36,898.80 C699.00,879.82 713.54,862.02 718.00,856.38 C720.48,853.25 728.59,843.44 736.03,834.59 C743.48,825.74 751.45,816.02 753.75,813.00 C758.06,807.33 761.77,802.90 768.93,794.85 C771.21,792.29 774.29,788.61 775.79,786.67 C781.52,779.22 792.81,765.37 800.00,756.97 C804.12,752.15 809.30,745.89 811.50,743.07 C813.70,740.25 818.65,734.17 822.50,729.57 C826.35,724.96 831.75,718.41 834.50,715.00 C842.09,705.60 847.72,698.90 851.55,694.73 C853.45,692.66 855.00,690.45 855.00,689.82 C855.00,689.19 857.59,685.92 860.75,682.56 C866.02,676.95 870.47,671.61 884.50,654.06 C887.25,650.61 890.74,646.39 892.25,644.68 C893.76,642.96 895.00,641.16 895.00,640.67 C895.00,640.18 897.48,637.31 900.50,634.28 C903.52,631.26 906.00,628.42 906.00,627.98 C906.00,627.54 910.16,622.21 915.25,616.14 C920.34,610.06 929.20,599.44 934.94,592.54 C940.68,585.64 945.65,580.00 945.97,580.00 C946.30,580.00 947.41,578.54 948.44,576.75 C949.47,574.96 952.16,571.46 954.41,568.96 C956.66,566.47 961.88,560.22 966.00,555.07 C970.12,549.92 976.55,542.29 980.29,538.11 C984.02,533.92 988.97,527.83 991.29,524.56 C993.60,521.30 996.63,517.48 998.00,516.06 C999.38,514.65 1002.08,511.33 1004.00,508.67 C1005.93,506.01 1009.93,501.06 1012.90,497.67 C1015.87,494.28 1019.18,490.04 1020.25,488.25 C1021.32,486.46 1022.81,485.00 1023.56,485.00 C1025.49,485.00 1027.29,488.79 1026.59,491.35 C1026.26,492.53 1026.00,593.68 1026.01,716.12 C1026.02,912.03 1025.85,938.88 1024.54,939.97 C1023.41,940.90 1014.23,941.18 986.82,941.10 C966.90,941.04 950.23,940.63 949.77,940.17 C949.32,939.72 948.96,891.83 948.99,833.76 C949.02,738.70 948.87,728.01 947.44,726.58 C945.23,724.38 944.31,724.59 942.31,727.75 C941.35,729.26 936.73,734.88 932.04,740.24 C927.34,745.60 922.24,751.45 920.71,753.24 C912.54,762.79 900.81,776.04 898.27,778.59 C895.04,781.83 883.13,795.71 878.50,801.62 C876.85,803.73 874.34,806.59 872.93,807.98 C871.52,809.36 869.94,811.25 869.43,812.16 C868.35,814.11 861.03,822.44 852.50,831.45 C849.20,834.94 844.70,839.90 842.50,842.48 C840.30,845.06 836.43,849.28 833.89,851.85 C831.36,854.43 828.54,857.99 827.62,859.77 C826.70,861.55 825.48,863.00 824.92,863.00 C824.35,863.00 822.00,865.14 819.69,867.75 C817.39,870.36 814.12,873.85 812.43,875.51 C808.49,879.38 801.71,887.22 796.00,894.51 C785.66,907.70 757.97,937.79 754.77,939.30 C751.85,940.69 745.01,940.95 704.24,941.20 C678.30,941.37 655.69,941.21 653.99,940.87 Z M584.67,703.06 C582.72,700.89 580.41,697.76 579.55,696.09 C578.68,694.42 577.09,692.58 576.00,692.00 C574.91,691.42 572.39,688.38 570.39,685.25 C568.39,682.13 565.41,678.32 563.78,676.80 C562.15,675.27 558.50,670.93 555.66,667.15 C551.16,661.16 538.68,645.58 526.75,631.06 C524.69,628.55 521.54,624.52 519.75,622.10 C517.96,619.68 515.06,615.96 513.31,613.82 C511.31,611.40 509.87,608.32 509.46,605.61 C509.11,603.22 508.97,581.59 509.16,557.55 C509.49,515.20 509.56,513.79 511.50,512.38 C513.19,511.14 519.23,510.96 550.22,511.21 C586.64,511.50 586.97,511.52 589.17,513.72 L591.39,515.94 L591.24,610.49 C591.16,662.49 590.82,705.48 590.49,706.02 C589.45,707.69 588.35,707.13 584.67,703.06 Z M647.51,637.75 C647.28,637.06 647.18,574.99 647.29,499.80 C647.46,389.13 647.75,362.85 648.80,361.80 C649.82,360.78 658.42,360.50 689.02,360.50 C722.30,360.50 728.14,360.72 729.38,362.00 C731.24,363.93 731.30,367.54 731.13,464.08 L731.00,541.67 L720.25,555.02 C714.34,562.36 707.74,570.64 705.58,573.43 C703.43,576.22 698.02,582.77 693.56,588.00 C689.10,593.23 684.60,598.85 683.56,600.50 C681.70,603.45 680.46,604.95 674.50,611.43 C669.68,616.68 665.78,621.35 661.50,627.00 C659.30,629.91 656.22,633.80 654.65,635.64 C651.77,639.03 648.30,640.06 647.51,637.75 Z M42.62,597.45 C42.29,596.60 41.75,589.73 41.42,582.20 C40.79,568.05 41.04,565.32 45.40,539.00 C46.81,530.48 48.49,520.35 49.12,516.50 C49.75,512.65 50.86,507.83 51.58,505.79 C52.29,503.75 53.34,498.79 53.90,494.76 C54.46,490.73 55.79,485.43 56.86,482.97 C57.93,480.51 59.11,476.48 59.48,474.00 C59.85,471.52 61.47,466.03 63.08,461.78 C64.69,457.54 66.00,452.54 66.00,450.67 C66.00,448.78 66.89,446.13 68.01,444.71 C69.12,443.31 70.45,439.88 70.98,437.10 C71.51,434.31 72.83,430.29 73.92,428.15 C75.01,426.02 76.43,422.07 77.07,419.38 C77.72,416.70 79.29,412.93 80.57,411.00 C81.85,409.07 83.32,405.61 83.83,403.31 C84.34,401.01 85.71,397.91 86.88,396.43 C88.05,394.94 89.00,392.97 89.00,392.05 C89.00,391.12 91.92,384.54 95.49,377.43 C99.06,370.32 101.98,364.18 101.99,363.78 C102.00,363.39 103.35,360.94 105.00,358.34 C106.65,355.74 108.00,352.85 108.00,351.93 C108.00,351.00 108.75,349.63 109.66,348.87 C110.58,348.12 112.37,345.25 113.64,342.50 C114.91,339.75 117.53,335.02 119.45,332.00 C121.37,328.98 124.09,324.48 125.50,322.00 C127.82,317.92 129.54,315.22 135.41,306.37 C143.98,293.46 146.65,289.57 151.48,283.00 C154.51,278.88 158.42,273.48 160.17,271.00 C167.14,261.17 195.47,228.61 211.94,211.50 C221.10,201.99 240.51,184.39 248.00,178.82 C249.93,177.39 253.75,174.15 256.50,171.63 C266.53,162.45 272.36,157.85 283.50,150.34 C286.25,148.49 290.52,145.43 293.00,143.54 C301.57,137.00 317.78,126.20 320.14,125.47 C321.44,125.06 323.78,123.65 325.35,122.35 C326.91,121.04 332.48,117.61 337.71,114.73 C349.59,108.20 355.26,105.02 361.00,101.68 C367.02,98.17 384.03,90.00 385.32,90.00 C385.88,90.00 388.73,88.65 391.65,87.00 C394.58,85.35 397.59,84.00 398.34,84.00 C399.10,84.00 402.25,82.65 405.34,81.00 C408.43,79.35 411.53,78.00 412.23,78.00 C412.93,78.00 416.20,76.73 419.50,75.17 C422.80,73.62 427.61,71.82 430.19,71.17 C432.77,70.53 436.37,69.14 438.19,68.09 C440.01,67.05 443.52,65.88 446.00,65.50 C448.48,65.12 452.02,63.93 453.88,62.87 C455.73,61.80 460.36,60.27 464.16,59.47 C467.97,58.67 472.44,57.31 474.10,56.45 C475.76,55.59 480.67,54.26 485.00,53.50 C489.33,52.74 494.23,51.42 495.87,50.56 C497.52,49.71 503.51,48.36 509.19,47.56 C514.86,46.77 521.13,45.43 523.13,44.59 C525.12,43.76 532.88,42.37 540.37,41.50 C547.85,40.63 555.85,39.26 558.13,38.45 C565.43,35.88 603.14,34.70 658.00,35.34 C698.71,35.81 709.76,36.23 715.00,37.48 C718.58,38.34 726.67,39.74 733.00,40.59 C739.33,41.45 749.23,43.23 755.00,44.56 C760.77,45.88 768.42,47.26 772.00,47.61 C775.58,47.97 781.01,49.30 784.09,50.57 C787.16,51.85 792.11,53.19 795.09,53.56 C798.06,53.93 802.49,55.09 804.91,56.13 C807.34,57.18 812.20,58.70 815.70,59.51 C819.21,60.32 823.39,61.67 825.00,62.50 C826.61,63.33 830.98,64.72 834.71,65.58 C838.44,66.45 842.85,67.98 844.50,68.99 C846.15,70.00 849.30,71.16 851.50,71.55 C853.70,71.95 856.69,73.11 858.13,74.12 C859.58,75.14 863.17,76.49 866.10,77.12 C869.03,77.74 873.02,79.30 874.97,80.57 C876.91,81.84 879.85,83.20 881.50,83.59 C883.15,83.99 886.07,85.37 887.98,86.66 C889.90,87.94 891.92,89.00 892.47,89.00 C893.50,89.00 906.49,94.97 911.00,97.52 C912.38,98.29 915.75,100.07 918.50,101.47 C921.25,102.87 926.20,105.56 929.50,107.46 C932.80,109.36 937.84,112.10 940.71,113.55 C943.57,115.01 946.44,116.83 947.08,117.60 C947.72,118.37 948.75,119.01 949.37,119.02 C950.58,119.04 956.95,123.04 963.60,127.97 C965.85,129.63 968.03,131.00 968.43,131.00 C968.84,131.00 971.05,132.28 973.34,133.85 C975.63,135.42 978.62,137.45 980.00,138.36 C981.38,139.27 984.52,141.58 987.00,143.49 C989.48,145.41 994.16,148.84 997.42,151.14 C1000.67,153.43 1004.58,156.47 1006.10,157.90 C1007.62,159.33 1012.33,163.20 1016.58,166.50 C1020.82,169.80 1026.19,174.30 1028.50,176.50 C1030.81,178.70 1033.89,181.48 1035.35,182.67 C1039.60,186.16 1038.88,189.53 1032.48,196.25 C1029.47,199.41 1027.00,202.42 1027.00,202.93 C1027.00,203.44 1021.26,210.61 1014.25,218.86 C1007.24,227.11 998.80,237.30 995.50,241.51 C986.56,252.92 986.46,253.00 982.12,253.00 C978.87,253.00 977.05,252.03 970.87,247.02 C966.82,243.73 961.70,239.66 959.50,237.99 C957.30,236.32 952.02,232.26 947.77,228.97 C943.51,225.69 939.64,223.00 939.17,223.00 C938.70,223.00 937.45,222.05 936.40,220.89 C935.36,219.73 932.39,217.72 929.82,216.41 C927.25,215.11 924.88,213.62 924.56,213.10 C923.78,211.84 913.97,205.24 906.00,200.63 C902.42,198.56 896.35,194.86 892.50,192.41 C888.65,189.96 881.45,185.68 876.50,182.90 C871.55,180.12 866.38,177.20 865.00,176.43 C863.62,175.65 860.92,174.31 859.00,173.44 C854.94,171.61 848.87,168.32 843.81,165.19 C841.86,163.99 839.45,163.00 838.46,163.00 C837.47,163.00 834.27,161.65 831.35,160.00 C828.42,158.35 825.46,157.00 824.77,157.00 C824.07,157.00 820.38,155.42 816.56,153.50 C812.74,151.57 809.01,150.00 808.27,150.00 C807.54,150.00 804.81,148.93 802.22,147.62 C799.62,146.32 795.92,144.92 794.00,144.53 C792.08,144.13 789.03,142.96 787.23,141.93 C785.43,140.89 781.18,139.33 777.79,138.45 C774.40,137.57 769.94,135.99 767.88,134.94 C765.83,133.89 761.53,132.76 758.32,132.42 C755.12,132.08 751.29,130.95 749.80,129.91 C748.21,128.79 743.30,127.44 737.80,126.59 C732.69,125.81 726.48,124.26 724.00,123.15 C721.49,122.02 715.97,120.83 711.50,120.44 C707.10,120.07 698.94,118.70 693.37,117.41 C687.35,116.01 676.83,114.62 667.43,114.00 C658.74,113.41 645.36,112.28 637.70,111.47 C619.92,109.59 596.35,109.60 577.39,111.48 C569.20,112.29 555.30,113.43 546.50,114.01 C536.91,114.63 527.70,115.83 523.50,116.99 C519.65,118.05 511.70,119.40 505.83,119.99 C499.96,120.57 492.59,121.94 489.43,123.02 C486.28,124.11 479.46,125.68 474.28,126.51 C469.09,127.35 463.56,128.69 461.98,129.51 C460.41,130.32 455.92,131.44 452.01,132.00 C448.11,132.55 443.18,133.89 441.07,134.97 C438.95,136.04 434.09,137.58 430.27,138.38 C426.45,139.17 421.56,140.77 419.42,141.91 C417.28,143.06 414.39,144.00 412.99,144.00 C411.59,144.00 407.76,145.34 404.47,146.97 C401.19,148.60 397.88,149.95 397.13,149.97 C395.53,150.01 370.52,160.99 364.50,164.29 C363.40,164.90 357.32,168.07 351.00,171.35 C329.62,182.41 324.46,185.26 313.58,192.00 C310.48,193.93 305.97,196.62 303.57,198.00 C299.11,200.55 298.50,200.95 286.68,208.91 C282.92,211.43 278.39,214.40 276.60,215.50 C274.80,216.60 271.96,218.62 270.27,220.00 C268.58,221.38 264.44,224.53 261.07,227.00 C257.70,229.47 253.04,232.97 250.72,234.76 C248.40,236.55 245.30,238.82 243.82,239.80 C242.35,240.79 239.88,242.82 238.32,244.33 C236.77,245.84 232.35,249.80 228.50,253.14 C206.56,272.15 186.23,293.08 164.97,318.50 C157.55,327.38 156.35,328.94 151.53,336.16 C150.19,338.17 148.06,340.93 146.79,342.28 C145.53,343.64 143.48,346.27 142.23,348.12 C134.83,359.14 133.00,362.02 133.00,362.63 C133.00,363.01 131.91,364.74 130.58,366.49 C128.24,369.55 126.57,372.31 121.15,382.00 C119.77,384.48 117.60,387.77 116.32,389.33 C115.04,390.88 114.00,392.73 114.00,393.44 C114.00,394.15 113.08,395.89 111.96,397.32 C110.84,398.74 109.42,401.39 108.80,403.20 C108.19,405.02 106.67,407.73 105.42,409.23 C104.18,410.73 102.85,413.43 102.46,415.23 C102.06,417.03 100.71,419.73 99.46,421.23 C98.20,422.73 96.85,425.43 96.46,427.23 C96.06,429.03 94.45,432.93 92.87,435.89 C91.29,438.86 90.00,441.92 90.00,442.69 C90.00,443.47 89.13,445.77 88.07,447.80 C83.14,457.22 78.91,467.31 77.89,472.06 C77.28,474.92 75.98,478.67 75.00,480.38 C74.02,482.10 72.91,485.30 72.54,487.50 C72.16,489.70 71.16,492.57 70.32,493.88 C69.48,495.18 67.71,500.27 66.40,505.19 C65.08,510.10 63.55,514.97 62.99,516.02 C62.43,517.07 61.11,522.10 60.05,527.21 C58.99,532.32 57.48,538.08 56.70,540.00 C55.91,541.92 54.97,546.20 54.62,549.50 C54.26,552.80 52.89,559.10 51.58,563.50 C50.14,568.32 48.81,576.37 48.22,583.74 C47.34,594.89 46.20,599.00 43.98,599.00 C43.56,599.00 42.95,598.30 42.62,597.45 Z M784.91,472.58 C784.64,472.30 784.55,416.15 784.73,347.79 C785.04,226.63 785.09,223.46 786.97,221.89 C788.64,220.47 793.15,220.26 822.69,220.16 C841.29,220.10 857.99,220.32 859.81,220.65 C866.56,221.87 866.25,217.90 866.21,301.02 C866.17,372.05 866.07,376.17 864.34,378.87 C860.49,384.83 856.30,390.40 850.50,397.24 C841.29,408.10 835.78,414.93 832.62,419.41 C831.04,421.66 828.05,425.35 825.99,427.60 C823.92,429.86 821.95,432.58 821.61,433.64 C821.28,434.70 819.65,436.37 818.00,437.34 C816.35,438.32 815.00,439.52 815.00,440.02 C815.00,440.52 813.09,443.16 810.75,445.89 C803.22,454.67 796.11,463.39 792.72,468.00 C789.78,472.00 786.35,474.01 784.91,472.58 Z"/>
<path fill="#3a261f" fill-rule="evenodd" d="M696.50,1228.00 C695.52,1226.41 700.68,1224.96 709.43,1224.35 C713.87,1224.04 720.88,1222.76 725.00,1221.51 C733.72,1218.86 747.62,1215.39 757.24,1213.46 C760.94,1212.71 766.08,1211.17 768.65,1210.04 C771.22,1208.90 776.19,1207.30 779.68,1206.49 C783.18,1205.68 787.82,1204.11 789.98,1203.01 C792.15,1201.90 794.51,1201.00 795.22,1201.00 C795.94,1201.00 800.12,1199.43 804.51,1197.51 C808.90,1195.59 813.18,1194.02 814.01,1194.01 C814.84,1194.01 817.54,1192.94 820.01,1191.64 C822.48,1190.34 826.15,1188.74 828.17,1188.09 C830.19,1187.43 832.36,1186.27 833.00,1185.50 C833.64,1184.72 836.53,1183.41 839.41,1182.57 C842.29,1181.73 845.47,1180.14 846.48,1179.02 C847.49,1177.91 849.56,1177.00 851.08,1177.00 C852.60,1177.00 855.19,1175.87 856.83,1174.49 C858.47,1173.11 861.75,1171.29 864.11,1170.46 C866.47,1169.63 869.10,1168.36 869.95,1167.65 C870.80,1166.93 877.12,1163.27 884.00,1159.51 C896.02,1152.94 900.65,1150.08 911.50,1142.53 C918.07,1137.95 921.36,1135.72 928.00,1131.33 C933.06,1127.98 937.37,1124.64 942.50,1120.09 C943.60,1119.11 945.51,1117.77 946.75,1117.12 C950.59,1115.09 963.16,1104.54 978.47,1090.50 C979.67,1089.40 984.11,1085.42 988.34,1081.65 C1000.28,1071.01 1039.00,1028.87 1046.68,1018.17 C1048.78,1015.23 1051.96,1011.03 1053.75,1008.82 C1055.54,1006.62 1057.00,1004.49 1057.00,1004.10 C1057.00,1003.71 1059.59,999.96 1062.75,995.76 C1065.91,991.57 1069.29,986.87 1070.25,985.32 C1071.21,983.77 1072.98,980.92 1074.18,979.00 C1075.38,977.08 1078.44,972.35 1080.99,968.50 C1083.54,964.65 1086.32,960.15 1087.19,958.50 C1088.05,956.85 1091.71,950.33 1095.32,944.00 C1098.93,937.67 1103.95,928.23 1106.48,923.00 C1109.01,917.77 1112.13,911.48 1113.43,909.00 C1114.72,906.52 1116.08,903.09 1116.44,901.37 C1116.81,899.65 1118.17,896.80 1119.48,895.03 C1120.79,893.25 1122.15,890.09 1122.50,888.00 C1122.85,885.91 1124.20,882.76 1125.50,881.00 C1126.80,879.24 1128.16,875.94 1128.52,873.65 C1128.89,871.37 1130.22,867.70 1131.48,865.50 C1132.73,863.30 1134.09,859.48 1134.48,857.00 C1134.88,854.52 1136.46,849.58 1137.98,846.00 C1139.50,842.42 1141.06,837.48 1141.43,835.00 C1141.80,832.52 1142.73,829.54 1143.50,828.37 C1144.26,827.20 1145.57,822.47 1146.40,817.87 C1147.22,813.27 1148.77,807.25 1149.83,804.50 C1150.89,801.75 1152.31,795.45 1152.97,790.50 C1153.64,785.55 1155.03,778.58 1156.06,775.00 C1157.10,771.42 1158.44,763.79 1159.04,758.04 C1159.65,752.28 1160.31,747.31 1160.50,747.00 C1160.69,746.69 1161.67,740.60 1162.67,733.46 C1164.24,722.30 1164.49,713.62 1164.45,671.00 C1164.42,628.27 1164.17,620.06 1162.64,611.00 C1161.66,605.23 1160.24,593.52 1159.48,585.00 C1158.72,576.48 1157.18,565.97 1156.07,561.66 C1154.95,557.36 1153.77,550.83 1153.44,547.16 C1153.12,543.50 1151.57,535.77 1150.01,530.00 C1148.46,524.23 1146.87,517.27 1146.50,514.54 C1146.12,511.81 1144.99,507.31 1143.98,504.54 C1142.97,501.77 1141.61,496.82 1140.96,493.54 C1140.31,490.26 1138.96,485.76 1137.97,483.54 C1136.97,481.32 1135.19,476.57 1134.00,473.00 C1129.07,458.21 1126.94,452.37 1125.61,450.00 C1124.83,448.62 1123.70,445.65 1123.10,443.40 C1122.50,441.14 1120.92,438.12 1119.59,436.69 C1118.26,435.26 1116.86,432.61 1116.47,430.79 C1116.08,428.98 1114.73,425.70 1113.48,423.50 C1112.22,421.30 1110.90,418.07 1110.53,416.32 C1110.17,414.57 1109.25,412.62 1108.49,411.99 C1107.73,411.36 1106.32,408.74 1105.36,406.17 C1104.41,403.60 1102.58,399.93 1101.31,398.02 C1100.04,396.10 1099.00,393.95 1099.00,393.23 C1099.00,392.52 1097.82,389.61 1096.38,386.76 C1094.42,382.90 1093.98,381.02 1094.63,379.32 C1095.58,376.84 1098.44,373.24 1119.50,348.05 C1127.20,338.85 1135.53,328.78 1138.00,325.68 C1140.47,322.58 1143.59,319.74 1144.92,319.37 C1147.67,318.61 1149.58,320.48 1154.33,328.64 C1155.88,331.31 1158.13,335.03 1159.33,336.89 C1164.89,345.57 1173.00,360.23 1174.60,364.50 C1175.22,366.15 1176.91,369.25 1178.36,371.39 C1179.81,373.53 1180.99,375.78 1180.98,376.39 C1180.97,377.45 1185.47,387.15 1190.61,397.15 C1191.92,399.70 1193.00,402.59 1193.00,403.56 C1193.00,404.53 1194.06,407.16 1195.37,409.41 C1196.67,411.66 1198.30,415.30 1198.99,417.50 C1199.69,419.70 1201.28,423.75 1202.53,426.50 C1203.79,429.25 1205.14,433.49 1205.52,435.91 C1205.91,438.34 1207.30,442.35 1208.62,444.81 C1209.93,447.28 1211.00,450.32 1211.00,451.57 C1211.00,452.82 1212.31,457.59 1213.90,462.17 C1215.50,466.75 1217.29,472.87 1217.89,475.76 C1218.49,478.66 1219.65,482.62 1220.47,484.57 C1221.28,486.52 1222.22,490.45 1222.56,493.31 C1222.89,496.16 1224.24,502.32 1225.56,507.00 C1226.88,511.68 1228.62,520.67 1229.43,527.00 C1230.24,533.33 1231.82,542.77 1232.94,548.00 C1234.06,553.23 1234.98,559.98 1235.00,563.00 C1235.01,566.02 1235.65,574.35 1236.42,581.50 C1237.20,588.65 1238.36,605.08 1239.01,618.00 C1240.02,638.12 1239.96,644.30 1238.59,661.00 C1237.71,671.73 1236.52,687.25 1235.95,695.50 C1235.37,703.75 1233.79,716.12 1232.43,723.00 C1231.07,729.88 1229.51,739.55 1228.97,744.50 C1228.43,749.45 1227.07,756.42 1225.94,760.00 C1224.80,763.58 1223.48,769.96 1222.99,774.19 C1222.50,778.42 1221.20,783.64 1220.10,785.80 C1219.01,787.95 1217.80,792.14 1217.42,795.10 C1217.05,798.07 1215.72,803.06 1214.47,806.18 C1213.22,809.31 1211.70,814.16 1211.10,816.97 C1210.50,819.77 1209.16,823.74 1208.12,825.78 C1207.09,827.83 1205.91,831.52 1205.50,834.00 C1205.09,836.48 1203.69,840.52 1202.38,842.99 C1201.07,845.46 1200.00,848.23 1200.00,849.14 C1200.00,850.05 1198.71,853.26 1197.13,856.26 C1195.55,859.26 1193.49,864.03 1192.55,866.85 C1191.61,869.67 1190.47,872.21 1190.00,872.50 C1189.53,872.79 1188.38,875.38 1187.44,878.26 C1186.49,881.14 1184.88,884.69 1183.86,886.15 C1182.84,887.61 1182.00,889.43 1182.00,890.19 C1182.00,890.95 1181.05,893.36 1179.89,895.54 C1178.73,897.72 1175.30,904.23 1172.27,910.00 C1169.25,915.77 1165.26,923.20 1163.41,926.50 C1161.56,929.80 1158.80,934.85 1157.27,937.72 C1155.75,940.59 1152.30,946.21 1149.61,950.22 C1146.92,954.22 1143.73,959.08 1142.52,961.00 C1140.37,964.42 1139.11,966.34 1134.00,973.99 C1132.62,976.05 1130.19,979.70 1128.59,982.11 C1125.67,986.49 1117.92,996.75 1113.08,1002.65 C1111.66,1004.38 1108.70,1008.13 1106.50,1011.00 C1104.30,1013.86 1100.24,1018.74 1097.47,1021.85 C1094.70,1024.96 1090.37,1029.97 1087.85,1033.00 C1081.54,1040.58 1057.84,1064.33 1043.98,1076.97 C1037.67,1082.72 1032.35,1087.80 1032.16,1088.24 C1031.97,1088.69 1028.22,1091.85 1023.83,1095.27 C1019.44,1098.70 1010.82,1105.45 1004.67,1110.27 C998.53,1115.10 989.00,1122.00 983.50,1125.62 C978.00,1129.24 971.70,1133.49 969.50,1135.07 C963.77,1139.18 934.26,1157.00 933.18,1157.00 C932.69,1157.00 930.53,1158.20 928.39,1159.67 C924.91,1162.06 912.58,1168.45 897.76,1175.53 C894.87,1176.91 891.38,1178.70 890.00,1179.51 C888.62,1180.31 886.60,1180.98 885.50,1180.99 C884.40,1181.00 881.96,1182.02 880.08,1183.25 C873.90,1187.32 872.53,1187.97 870.18,1187.99 C868.90,1187.99 865.98,1189.08 863.68,1190.40 C861.38,1191.72 857.92,1193.13 856.00,1193.53 C854.08,1193.92 850.48,1195.25 848.00,1196.49 C845.52,1197.72 841.72,1199.05 839.56,1199.45 C837.39,1199.84 833.56,1201.19 831.06,1202.45 C828.55,1203.71 824.26,1205.06 821.52,1205.46 C818.79,1205.86 814.90,1207.03 812.89,1208.05 C810.89,1209.08 806.60,1210.36 803.37,1210.89 C800.14,1211.43 794.81,1212.81 791.51,1213.96 C788.22,1215.11 782.43,1216.54 778.64,1217.12 C774.85,1217.71 769.28,1219.04 766.26,1220.08 C763.24,1221.12 756.88,1222.44 752.13,1223.02 C747.38,1223.59 738.05,1225.17 731.39,1226.53 C718.62,1229.13 697.74,1230.01 696.50,1228.00 Z M304.30,938.92 L302.14,938.12 L302.07,688.48 C301.99,459.57 302.12,438.88 303.60,439.18 C304.48,439.35 306.05,441.75 307.09,444.50 C308.37,447.91 310.97,451.46 315.24,455.65 C321.96,462.25 326.47,467.50 331.43,474.48 C333.14,476.88 335.72,479.78 337.16,480.91 C338.60,482.04 340.08,484.21 340.46,485.73 C340.83,487.26 342.21,489.62 343.52,491.00 C344.82,492.38 346.60,495.18 347.45,497.23 C348.31,499.28 350.16,501.71 351.56,502.63 C352.96,503.55 354.76,505.57 355.56,507.12 C356.36,508.67 360.61,514.02 365.01,519.01 C369.40,524.00 373.00,528.67 373.00,529.38 C373.00,530.10 374.46,532.04 376.25,533.70 C378.04,535.36 382.20,540.48 385.50,545.07 C388.80,549.67 392.72,554.52 394.22,555.85 C395.71,557.18 397.40,559.67 397.96,561.39 C398.53,563.10 400.57,565.76 402.50,567.29 C406.33,570.35 406.95,573.29 404.38,576.13 C403.39,577.22 403.03,578.62 403.45,579.71 C404.09,581.36 404.29,581.32 405.98,579.25 C408.66,575.97 410.50,576.47 413.30,581.25 C414.67,583.59 417.46,587.01 419.49,588.86 C422.33,591.44 423.03,592.70 422.52,594.36 C422.16,595.53 421.60,597.36 421.28,598.41 C420.76,600.07 421.07,600.24 423.72,599.71 C427.58,598.93 429.14,600.18 432.52,606.77 C434.01,609.66 436.47,613.04 438.00,614.27 C439.52,615.49 441.48,617.85 442.34,619.50 C443.20,621.15 447.11,625.88 451.03,630.00 C454.94,634.12 459.02,639.19 460.09,641.25 C461.16,643.31 462.45,645.00 462.96,645.00 C463.47,645.00 466.21,648.37 469.07,652.50 C471.92,656.62 474.56,660.00 474.94,660.00 C475.32,660.00 476.64,661.80 477.88,664.00 C479.12,666.20 480.54,668.00 481.04,668.00 C481.54,668.00 482.70,669.46 483.62,671.25 C485.24,674.42 489.24,679.99 495.69,688.05 C497.44,690.25 499.19,693.03 499.58,694.24 C499.96,695.45 502.87,698.99 506.03,702.11 C509.20,705.23 514.15,711.32 517.02,715.64 C519.90,719.96 523.34,724.34 524.66,725.36 C525.98,726.38 529.32,730.73 532.07,735.02 C534.82,739.30 537.66,743.04 538.38,743.32 C539.10,743.59 542.32,747.73 545.54,752.51 C548.75,757.30 551.94,761.42 552.62,761.68 C553.30,761.94 556.17,765.69 559.00,770.00 C561.83,774.32 566.61,780.47 569.62,783.67 C577.90,792.49 579.11,794.03 580.15,797.01 C580.94,799.28 581.97,799.93 586.06,800.73 L591.00,801.71 L591.00,798.81 C591.00,796.63 591.75,795.48 593.99,794.20 C595.64,793.27 596.99,792.19 596.99,791.81 C597.00,791.43 599.25,788.55 602.00,785.40 C604.75,782.26 607.00,779.29 607.00,778.81 C607.00,778.33 608.46,776.43 610.25,774.59 C612.04,772.75 615.08,769.15 617.00,766.58 C618.92,764.02 622.67,759.57 625.32,756.71 C627.97,753.84 630.45,750.73 630.82,749.80 C631.64,747.78 639.12,739.12 647.50,730.51 C650.80,727.11 655.71,721.11 658.41,717.17 C661.12,713.23 663.72,710.00 664.20,710.00 C664.68,710.00 666.02,708.39 667.18,706.42 C668.34,704.45 670.32,702.45 671.56,701.98 C672.81,701.50 674.44,699.85 675.18,698.31 C676.07,696.45 677.52,695.34 679.51,694.98 C682.12,694.52 682.47,694.07 682.23,691.47 C682.00,689.00 683.06,687.35 688.48,681.70 C692.06,677.96 695.00,674.48 695.00,673.98 C695.00,673.02 701.69,664.93 707.39,659.00 C709.25,657.08 711.50,654.04 712.40,652.25 C713.37,650.35 715.44,648.42 717.42,647.60 C719.94,646.55 720.98,645.36 721.51,642.97 C722.13,640.15 725.55,635.73 735.76,624.60 C737.22,623.01 740.33,619.24 742.67,616.22 C745.02,613.20 747.86,610.09 748.98,609.30 C750.11,608.51 751.91,606.13 753.00,604.01 C754.08,601.88 755.84,599.87 756.92,599.53 C757.99,599.19 759.69,597.62 760.69,596.05 C767.11,585.93 772.10,579.00 772.95,579.00 C773.49,579.00 775.48,576.59 777.37,573.64 C779.26,570.69 782.08,566.91 783.65,565.25 C785.22,563.58 788.08,560.36 790.00,558.09 C791.92,555.82 794.96,552.33 796.75,550.33 C798.54,548.33 800.00,546.10 800.00,545.37 C800.00,544.65 801.37,543.34 803.04,542.48 C804.72,541.61 806.49,539.91 806.98,538.70 C807.73,536.84 815.31,527.44 826.48,514.50 C836.78,502.57 851.82,484.33 853.34,481.92 C854.36,480.31 855.59,479.00 856.08,479.00 C856.57,479.00 858.04,477.31 859.35,475.25 C860.65,473.19 864.22,468.96 867.28,465.85 C870.34,462.74 873.51,458.92 874.32,457.35 C875.13,455.78 877.19,453.26 878.90,451.75 C880.60,450.23 884.54,445.51 887.66,441.25 C890.79,436.99 895.06,431.60 897.17,429.27 C899.28,426.95 901.00,424.68 901.00,424.23 C901.00,423.78 903.59,420.73 906.75,417.46 C909.91,414.18 913.06,410.25 913.74,408.73 C915.41,404.98 919.77,403.30 921.54,405.73 C922.25,406.70 923.21,407.13 923.66,406.67 C924.11,406.22 923.70,405.41 922.74,404.88 C921.78,404.34 921.00,403.31 921.00,402.58 C921.00,401.12 926.86,393.48 932.71,387.33 C934.79,385.13 939.88,379.12 944.00,373.97 C948.12,368.81 953.36,362.77 955.64,360.53 C957.92,358.29 960.46,354.82 961.30,352.82 C962.14,350.81 964.26,347.89 966.01,346.33 C967.77,344.78 969.84,342.27 970.61,340.78 C971.39,339.28 973.71,336.26 975.76,334.07 C977.82,331.89 981.30,328.03 983.50,325.51 C985.70,322.99 988.31,320.15 989.31,319.21 C990.30,318.27 992.01,316.06 993.11,314.30 C994.20,312.54 995.98,310.82 997.05,310.48 C998.12,310.14 999.00,309.28 999.00,308.57 C999.00,307.86 1000.24,305.65 1001.75,303.67 C1003.26,301.69 1005.93,298.14 1007.68,295.78 C1009.42,293.43 1012.91,289.26 1015.43,286.52 C1017.94,283.78 1020.00,281.15 1020.00,280.67 C1020.00,280.20 1022.83,276.81 1026.30,273.15 C1032.34,266.76 1037.38,260.56 1039.50,256.90 C1040.05,255.95 1042.63,252.77 1045.23,249.83 C1047.84,246.90 1052.01,242.03 1054.51,239.00 C1057.01,235.97 1059.94,232.58 1061.03,231.46 C1062.11,230.35 1063.00,228.88 1063.00,228.20 C1063.00,226.88 1072.02,217.00 1080.89,208.60 C1083.85,205.80 1086.88,202.07 1087.62,200.32 C1089.14,196.74 1092.36,195.23 1094.57,197.06 C1096.39,198.57 1097.83,197.43 1096.18,195.78 C1093.97,193.57 1094.99,190.67 1099.96,184.95 C1105.91,178.11 1110.00,170.75 1110.00,166.87 C1110.00,164.10 1109.91,164.05 1105.61,164.64 C1101.76,165.17 1101.13,164.99 1100.55,163.17 C1100.19,162.03 1099.08,160.84 1098.08,160.52 C1096.56,160.04 1091.62,155.56 1085.21,148.85 C1083.74,147.31 1078.90,143.11 1074.50,139.56 C1070.53,136.36 1071.92,135.00 1080.17,133.97 C1083.65,133.54 1089.20,132.20 1092.50,131.00 C1095.80,129.81 1102.07,128.40 1106.42,127.89 C1112.22,127.20 1114.69,126.46 1115.63,125.12 C1116.57,123.77 1118.72,123.15 1123.86,122.71 C1127.69,122.39 1132.77,121.25 1135.16,120.16 C1137.55,119.08 1142.65,117.89 1146.50,117.51 C1150.95,117.08 1155.72,115.78 1159.59,113.96 C1163.29,112.22 1168.67,110.72 1173.31,110.15 C1177.89,109.58 1182.30,108.36 1184.34,107.10 C1186.34,105.86 1189.42,105.00 1191.83,105.00 C1194.08,105.00 1198.24,104.09 1201.07,102.97 C1205.03,101.41 1206.55,101.21 1207.61,102.09 C1209.76,103.88 1209.68,248.00 1207.53,248.00 C1206.71,248.00 1205.36,246.66 1204.51,245.02 C1203.66,243.38 1201.70,241.38 1200.15,240.58 C1198.60,239.77 1196.15,237.57 1194.70,235.68 C1193.26,233.78 1190.84,231.93 1189.33,231.55 C1187.81,231.17 1185.21,229.56 1183.54,227.97 C1175.68,220.53 1171.19,217.09 1168.47,216.44 C1166.84,216.05 1164.26,214.42 1162.75,212.81 C1160.08,209.96 1158.00,209.79 1158.00,212.40 C1158.00,213.11 1158.90,214.50 1160.00,215.50 C1163.00,218.21 1162.46,220.34 1157.50,225.45 C1155.03,227.99 1152.12,231.81 1151.04,233.93 C1149.77,236.42 1148.00,238.15 1146.04,238.84 C1144.37,239.42 1143.00,240.56 1143.00,241.37 C1143.00,242.18 1140.85,245.24 1138.22,248.17 C1135.60,251.10 1132.14,255.52 1130.55,257.99 C1128.14,261.73 1122.73,268.47 1113.50,279.25 C1111.54,281.54 1110.28,281.46 1109.50,279.00 C1109.15,277.90 1108.00,277.00 1106.93,277.00 C1104.50,277.00 1104.32,280.59 1106.62,283.13 C1108.70,285.43 1107.73,289.63 1104.91,290.53 C1103.42,291.00 1102.39,290.58 1101.31,289.04 C1100.41,287.75 1098.98,287.01 1097.73,287.19 C1094.40,287.69 1094.49,289.98 1097.90,291.27 C1099.63,291.92 1101.00,293.16 1101.00,294.08 C1101.00,295.74 1096.21,302.36 1093.54,304.39 C1092.03,305.54 1088.59,310.07 1084.90,315.76 C1083.74,317.55 1081.77,319.27 1080.52,319.58 C1079.05,319.95 1077.69,321.55 1076.69,324.10 C1075.55,327.00 1074.20,328.44 1071.57,329.53 C1069.26,330.50 1068.00,331.69 1068.00,332.92 C1068.00,333.96 1066.42,336.77 1064.49,339.16 C1057.20,348.16 1049.39,357.35 1046.25,360.58 C1044.46,362.43 1043.00,364.38 1043.00,364.93 C1043.00,365.48 1041.09,368.14 1038.75,370.85 C1036.41,373.55 1032.03,379.04 1029.00,383.05 C1025.97,387.06 1020.80,393.48 1017.50,397.33 C1009.56,406.57 1002.96,414.54 1000.50,417.85 C999.40,419.33 995.69,423.80 992.25,427.80 C988.81,431.79 986.00,435.48 986.00,436.00 C986.00,436.52 984.66,437.64 983.02,438.49 C981.38,439.34 979.34,441.26 978.49,442.77 C974.04,450.62 973.26,451.51 970.59,451.83 C968.19,452.11 967.90,452.48 968.44,454.62 C968.95,456.64 967.89,458.48 962.56,464.79 C958.99,469.03 954.92,473.64 953.53,475.04 C952.14,476.43 951.00,478.09 951.00,478.72 C951.00,479.35 949.65,480.83 948.00,482.00 C946.35,483.17 945.00,485.02 945.00,486.10 C945.00,487.18 944.31,488.33 943.46,488.65 C942.62,488.98 941.20,490.64 940.31,492.36 C939.43,494.07 937.53,496.67 936.10,498.13 C934.67,499.58 932.15,502.44 930.50,504.47 C928.85,506.50 926.26,509.49 924.75,511.12 C923.24,512.74 922.00,514.61 922.00,515.27 C922.00,515.94 920.89,517.61 919.54,518.99 C918.18,520.37 912.96,526.45 907.92,532.50 C902.89,538.55 897.74,544.46 896.48,545.62 C895.21,546.79 893.45,549.16 892.56,550.88 C891.67,552.61 890.01,554.58 888.89,555.26 C887.76,555.94 885.97,558.18 884.91,560.23 C883.85,562.28 881.59,564.98 879.89,566.23 C878.19,567.48 876.12,570.19 875.29,572.26 C873.62,576.40 870.03,578.10 867.46,575.97 C865.06,573.98 864.44,575.78 866.39,579.08 C868.02,581.83 868.03,582.30 866.61,584.47 C865.75,585.78 864.14,587.14 863.03,587.49 C861.91,587.85 861.00,588.50 861.00,588.95 C861.00,589.39 859.31,591.54 857.25,593.71 C855.19,595.89 851.70,600.31 849.50,603.53 C847.30,606.76 844.01,610.95 842.20,612.85 C840.38,614.75 838.24,617.58 837.44,619.12 C836.63,620.67 835.06,622.43 833.94,623.03 C832.81,623.64 830.26,626.69 828.27,629.81 C826.28,632.94 823.82,636.10 822.79,636.83 C821.77,637.56 818.42,641.75 815.35,646.13 C810.31,653.31 805.53,659.00 792.67,673.06 C788.61,677.49 784.08,683.46 779.00,691.05 C775.59,696.16 766.09,707.85 757.51,717.50 C750.98,724.84 744.08,733.44 735.00,745.55 C728.96,753.61 725.10,758.29 718.75,765.25 C715.37,768.96 711.75,773.35 710.70,775.00 C709.66,776.65 708.46,778.00 708.04,778.00 C707.62,778.00 705.00,781.04 702.22,784.75 C699.44,788.46 696.23,792.28 695.08,793.24 C693.94,794.20 693.00,795.68 693.00,796.52 C693.00,797.37 691.43,799.00 689.50,800.13 C687.58,801.27 686.00,802.80 686.00,803.54 C686.00,804.28 685.17,805.47 684.16,806.19 C683.15,806.91 682.03,808.62 681.67,810.00 C681.31,811.38 679.10,814.54 676.76,817.03 C674.42,819.52 671.83,822.50 671.00,823.66 C670.17,824.82 667.11,828.63 664.19,832.13 C661.26,835.63 657.66,840.04 656.19,841.93 C653.02,845.98 645.20,855.05 640.62,860.00 C638.83,861.92 636.16,865.30 634.68,867.50 C633.20,869.70 629.97,873.98 627.50,877.00 C625.03,880.02 621.77,884.22 620.25,886.32 C618.74,888.43 615.14,892.81 612.25,896.07 C609.36,899.32 607.00,902.45 607.00,903.03 C607.00,903.60 605.09,906.00 602.75,908.36 C600.41,910.71 596.94,914.86 595.03,917.57 C593.13,920.28 590.04,923.83 588.17,925.45 L584.77,928.40 L580.88,923.95 C570.65,912.22 565.00,905.05 565.00,903.80 C565.00,903.24 562.70,900.26 559.88,897.18 C557.07,894.10 554.27,890.44 553.67,889.04 C553.06,887.64 550.37,884.05 547.68,881.05 C544.99,878.06 542.06,874.46 541.17,873.05 C540.27,871.65 537.06,867.51 534.02,863.85 C525.13,853.16 522.56,849.83 518.70,844.00 C512.38,834.48 511.72,833.59 507.95,829.50 C505.92,827.30 503.78,824.60 503.20,823.51 C502.62,822.41 500.29,819.48 498.02,817.01 C489.88,808.13 482.00,797.79 482.00,795.98 C482.00,794.96 481.10,793.85 479.99,793.50 C478.88,793.15 477.35,791.65 476.58,790.18 C475.82,788.71 474.02,786.41 472.60,785.08 C471.17,783.74 470.00,782.13 470.00,781.49 C470.00,780.85 468.65,779.13 467.00,777.66 C465.35,776.19 464.00,774.29 464.00,773.44 C464.00,772.59 461.41,768.84 458.25,765.11 C450.50,755.96 445.24,749.30 436.84,738.00 C432.95,732.77 428.14,726.66 426.14,724.41 C421.47,719.15 418.02,714.62 412.32,706.24 C409.79,702.53 406.04,697.65 403.97,695.39 C401.91,693.13 399.93,689.98 399.58,688.39 C399.20,686.66 397.78,684.83 396.04,683.83 C394.43,682.92 392.21,680.37 391.08,678.17 C388.00,672.11 380.49,667.51 378.20,670.26 C377.30,671.34 376.38,692.01 375.97,720.50 C375.94,722.15 375.98,771.83 376.04,830.89 C376.14,919.17 375.92,938.44 374.83,939.16 C373.18,940.25 307.29,940.02 304.30,938.92 Z M658.00,937.07 C658.00,935.64 661.83,934.74 664.77,935.48 C666.84,936.00 667.09,936.33 665.95,937.05 C664.05,938.25 658.00,938.27 658.00,937.07 Z M593.00,898.51 C593.00,897.06 592.13,895.49 590.93,894.76 C589.79,894.07 588.24,892.04 587.48,890.25 C586.72,888.46 585.40,887.00 584.55,887.00 C582.09,887.00 582.70,891.38 585.50,893.81 C586.88,895.01 588.00,896.57 588.00,897.29 C588.00,898.97 590.02,901.00 591.70,901.00 C592.42,901.00 593.00,899.89 593.00,898.51 Z M571.18,895.25 C574.43,891.76 575.85,886.68 573.44,887.17 C571.26,887.61 565.58,895.52 566.44,896.91 C567.47,898.57 568.39,898.25 571.18,895.25 Z M664.82,800.09 C665.08,797.45 664.81,796.89 663.43,797.16 C660.70,797.70 659.37,800.54 660.96,802.45 C662.90,804.79 664.45,803.83 664.82,800.09 Z M680.52,800.25 C681.85,798.74 682.95,796.71 682.97,795.75 C683.01,793.25 680.29,793.59 678.89,796.25 C678.24,797.49 677.10,798.86 676.35,799.30 C674.50,800.39 674.64,803.00 676.55,803.00 C677.40,803.00 679.19,801.76 680.52,800.25 Z M547.50,769.00 C547.50,766.15 544.34,764.94 543.39,767.43 C542.48,769.80 543.77,772.19 545.75,771.81 C546.85,771.60 547.50,770.56 547.50,769.00 Z M646.42,744.39 C648.12,743.74 648.58,740.47 647.09,739.56 C644.58,738.00 641.55,742.22 643.67,744.33 C644.48,745.14 644.46,745.14 646.42,744.39 Z M730.01,741.98 C731.24,739.68 730.57,738.00 728.41,738.00 C726.65,738.00 725.56,740.41 726.36,742.50 C727.16,744.59 728.73,744.37 730.01,741.98 Z M676.95,723.56 C677.61,722.76 678.01,721.07 677.83,719.81 C677.59,718.10 676.85,717.50 675.00,717.50 C673.15,717.50 672.41,718.10 672.17,719.81 C671.86,722.04 673.47,725.00 675.00,725.00 C675.42,725.00 676.29,724.35 676.95,723.56 Z M432.27,715.40 C434.21,713.46 426.41,706.01 424.00,707.50 C422.30,708.55 422.88,710.08 426.11,713.10 C429.12,715.92 431.04,716.63 432.27,715.40 Z M454.81,696.67 C455.11,691.92 455.08,691.86 452.31,692.18 C449.94,692.45 449.45,693.02 449.18,695.82 C448.82,699.54 450.51,702.24 452.91,701.78 C454.05,701.57 454.59,700.11 454.81,696.67 Z M767.05,695.92 C769.98,691.81 768.31,690.06 764.67,693.43 C763.20,694.79 762.00,696.60 762.00,697.45 C762.00,700.02 764.72,699.20 767.05,695.92 Z M650.11,499.85 C650.10,412.11 650.45,365.17 651.10,364.38 C651.83,363.50 660.55,363.16 684.30,363.10 C713.35,363.02 725.99,363.66 727.60,365.27 C728.34,366.01 728.38,372.40 728.21,463.32 L728.08,540.14 L722.55,547.32 C719.51,551.27 715.00,556.98 712.52,560.00 C710.03,563.02 706.08,567.98 703.73,571.00 C701.37,574.02 698.11,577.89 696.47,579.58 C692.45,583.75 684.26,594.05 681.95,597.84 C679.66,601.61 678.93,602.46 663.56,619.47 C660.29,623.09 656.68,627.72 655.53,629.76 C654.38,631.81 652.70,633.63 651.78,633.80 C650.23,634.10 650.11,624.69 650.11,499.85 Z M808.81,613.17 C809.08,610.52 808.78,610.00 807.03,610.00 C804.40,610.00 803.50,612.20 804.99,614.98 C806.55,617.90 808.43,617.01 808.81,613.17 Z M840.82,597.26 C840.46,594.18 837.36,592.90 836.39,595.43 C835.46,597.84 836.71,600.00 839.04,600.00 C840.73,600.00 841.07,599.48 840.82,597.26 Z M43.63,585.75 C42.42,581.25 43.01,563.39 44.56,557.46 C45.41,554.18 46.75,546.10 47.53,539.50 C48.31,532.90 49.38,525.48 49.91,523.00 C50.45,520.52 52.19,512.19 53.79,504.48 C55.38,496.76 57.17,489.55 57.77,488.44 C58.36,487.33 59.54,482.72 60.40,478.20 C61.26,473.67 62.59,468.74 63.36,467.24 C65.19,463.64 68.00,453.79 68.00,450.96 C68.00,449.74 68.86,447.33 69.92,445.62 C70.97,443.90 72.15,440.70 72.54,438.50 C72.93,436.30 74.06,433.14 75.07,431.47 C76.07,429.80 77.39,426.20 77.99,423.47 C78.60,420.74 80.37,416.02 81.92,413.00 C83.48,409.98 85.09,405.93 85.51,404.00 C85.92,402.07 87.07,399.47 88.06,398.20 C89.05,396.94 90.15,394.60 90.50,393.00 C90.85,391.40 93.80,384.79 97.06,378.30 C100.32,371.81 102.99,365.97 103.00,365.33 C103.00,364.68 104.06,362.88 105.36,361.33 C106.65,359.77 108.26,356.82 108.93,354.76 C109.60,352.71 110.61,350.74 111.18,350.39 C111.76,350.03 113.31,347.44 114.65,344.62 C115.98,341.80 118.61,337.02 120.49,334.00 C122.36,330.98 124.88,326.71 126.08,324.53 C127.28,322.35 129.04,319.42 129.99,318.03 C133.16,313.38 135.48,309.82 138.50,304.95 C145.86,293.10 171.12,259.16 178.02,251.87 C179.38,250.43 181.42,248.18 182.54,246.87 C203.70,222.24 216.67,208.59 229.46,197.50 C233.27,194.20 237.31,190.59 238.44,189.48 C239.57,188.37 243.88,184.58 248.00,181.05 C252.12,177.52 256.62,173.61 258.00,172.36 C263.32,167.53 268.77,163.16 275.37,158.42 C279.14,155.72 283.87,152.28 285.87,150.78 C287.86,149.29 291.75,146.50 294.50,144.58 C297.25,142.66 301.30,139.73 303.50,138.05 C305.70,136.38 308.85,134.36 310.50,133.57 C312.15,132.78 315.05,130.98 316.94,129.57 C318.84,128.16 320.91,127.00 321.56,127.00 C322.20,127.00 324.47,125.61 326.61,123.90 C328.75,122.20 334.71,118.49 339.86,115.65 C345.00,112.82 351.75,109.09 354.86,107.37 C363.96,102.31 385.17,91.88 389.41,90.37 C391.57,89.60 393.84,88.55 394.47,88.02 C395.86,86.87 408.47,81.50 415.86,78.91 C418.80,77.88 422.63,76.18 424.36,75.14 C426.08,74.10 429.28,72.93 431.44,72.54 C433.61,72.15 437.44,70.81 439.94,69.56 C442.45,68.31 446.50,66.97 448.95,66.60 C451.40,66.22 454.86,65.01 456.63,63.92 C458.41,62.82 462.70,61.43 466.18,60.83 C469.66,60.23 474.15,58.91 476.17,57.89 C478.18,56.87 483.13,55.53 487.17,54.91 C491.20,54.28 496.75,52.87 499.50,51.77 C502.25,50.66 507.93,49.40 512.12,48.96 C516.31,48.52 522.72,47.24 526.36,46.12 C530.00,44.99 537.83,43.58 543.74,42.99 C549.66,42.40 556.08,41.52 558.00,41.04 C570.57,37.91 580.42,37.50 642.00,37.50 C702.62,37.50 704.83,37.57 715.50,39.72 C721.55,40.95 731.23,42.62 737.00,43.45 C742.77,44.28 749.98,45.62 753.00,46.43 C756.02,47.24 762.63,48.35 767.68,48.89 C772.80,49.45 778.84,50.79 781.36,51.94 C783.84,53.07 788.78,54.40 792.33,54.90 C795.89,55.41 799.85,56.39 801.15,57.08 C802.44,57.78 807.33,59.36 812.00,60.59 C823.17,63.55 853.81,74.16 857.00,76.18 C858.38,77.05 861.50,78.06 863.95,78.43 C866.40,78.79 869.83,79.97 871.56,81.04 C873.30,82.11 876.61,83.66 878.93,84.47 C881.24,85.29 884.41,86.87 885.97,87.98 C887.53,89.09 889.38,90.00 890.08,90.00 C891.30,90.00 903.84,95.65 909.00,98.53 C910.38,99.30 913.75,101.08 916.50,102.49 C919.25,103.90 924.42,106.83 928.00,109.00 C931.58,111.16 936.07,113.68 937.99,114.58 C939.91,115.49 942.76,117.30 944.32,118.61 C945.88,119.93 947.86,121.00 948.73,121.00 C949.60,121.00 951.79,122.12 953.59,123.50 C955.39,124.87 957.29,126.00 957.81,126.00 C958.33,126.00 959.34,126.71 960.06,127.58 C960.79,128.45 963.43,130.26 965.94,131.62 C971.07,134.39 976.06,137.70 980.50,141.28 C982.15,142.61 984.61,144.29 985.96,145.00 C987.31,145.71 989.11,147.08 989.96,148.05 C990.81,149.01 993.80,151.34 996.61,153.23 C1002.15,156.94 1006.84,160.61 1016.37,168.71 C1031.34,181.42 1037.00,186.67 1037.00,187.85 C1037.00,188.41 1034.53,191.48 1031.51,194.68 C1028.50,197.88 1026.02,200.81 1026.01,201.19 C1026.01,201.57 1024.21,204.04 1022.03,206.69 C1019.84,209.34 1016.81,213.02 1015.28,214.87 C1012.34,218.44 1008.60,222.69 1004.36,227.29 C1002.95,228.83 999.97,232.43 997.74,235.29 C995.50,238.16 992.86,241.30 991.85,242.28 C990.84,243.26 989.32,245.41 988.46,247.07 C986.75,250.39 982.99,252.31 980.26,251.28 C978.43,250.58 965.00,240.51 961.50,237.20 C960.40,236.17 958.15,234.47 956.50,233.43 C954.85,232.39 950.89,229.39 947.70,226.77 C944.51,224.15 941.50,222.00 941.02,222.00 C940.55,222.00 938.72,220.79 936.97,219.32 C935.22,217.85 932.52,215.93 930.98,215.07 C929.43,214.21 925.70,211.60 922.67,209.29 C919.65,206.97 913.27,202.69 908.48,199.79 C903.70,196.88 897.02,192.82 893.64,190.76 C885.02,185.51 869.67,176.84 865.24,174.70 C863.18,173.71 860.38,172.26 859.00,171.47 C857.62,170.67 854.23,168.94 851.46,167.62 C848.69,166.29 845.82,164.49 845.09,163.61 C844.35,162.72 843.00,162.00 842.07,162.00 C841.14,162.00 837.26,160.43 833.44,158.50 C829.62,156.58 825.59,155.00 824.48,155.00 C823.37,155.00 820.90,153.94 818.98,152.66 C817.07,151.37 814.15,149.98 812.50,149.57 C810.85,149.17 806.81,147.52 803.51,145.92 C800.22,144.31 796.72,143.00 795.73,143.00 C794.74,143.00 791.81,141.94 789.22,140.65 C786.62,139.36 782.30,137.76 779.62,137.10 C776.93,136.44 773.06,135.05 771.01,134.01 C768.97,132.96 764.19,131.58 760.40,130.94 C756.60,130.30 752.10,128.92 750.38,127.88 C748.66,126.85 744.39,125.70 740.88,125.34 C737.37,124.98 731.69,123.64 728.26,122.36 C724.83,121.07 718.30,119.59 713.76,119.06 C709.22,118.53 701.90,117.16 697.50,116.02 C693.10,114.88 683.88,113.51 677.00,112.97 C670.12,112.43 663.60,111.79 662.50,111.54 C655.12,109.87 626.43,108.00 608.02,108.00 C589.47,108.00 557.86,110.01 553.00,111.50 C552.17,111.75 545.63,112.40 538.46,112.94 C531.29,113.48 521.51,114.83 516.72,115.95 C511.94,117.06 504.31,118.41 499.76,118.93 C495.22,119.46 488.80,120.76 485.50,121.82 C482.20,122.88 476.12,124.28 472.00,124.94 C467.88,125.60 461.80,126.99 458.50,128.02 C455.20,129.06 450.70,130.21 448.50,130.58 C446.30,130.95 442.02,132.27 439.00,133.52 C435.98,134.76 430.87,136.32 427.65,136.98 C424.44,137.64 419.49,139.26 416.65,140.58 C413.82,141.90 410.60,142.99 409.50,142.99 C408.40,143.00 404.65,144.35 401.16,146.00 C397.67,147.65 394.34,149.00 393.74,149.00 C392.43,149.00 361.98,162.83 360.31,164.19 C359.65,164.72 354.47,167.52 348.81,170.42 C331.80,179.12 318.80,186.09 316.07,187.97 C312.90,190.16 307.77,193.23 302.50,196.10 C300.30,197.29 297.18,199.38 295.56,200.74 C293.94,202.09 291.69,203.60 290.56,204.09 C288.48,204.99 275.45,213.72 269.00,218.54 C267.07,219.98 263.02,222.96 260.00,225.18 C256.98,227.39 252.08,231.27 249.13,233.79 C246.17,236.31 242.50,239.30 240.96,240.43 C232.67,246.58 228.70,249.93 218.71,259.25 C208.94,268.36 193.09,284.07 183.63,294.00 C176.65,301.34 153.41,329.53 148.36,336.79 C143.96,343.13 140.67,347.70 137.07,352.50 C135.42,354.70 132.94,358.61 131.55,361.18 C130.17,363.75 128.61,366.12 128.09,366.44 C127.57,366.76 125.02,370.96 122.41,375.76 C119.81,380.57 116.63,385.77 115.34,387.33 C114.05,388.88 113.00,390.73 113.00,391.44 C113.00,392.15 112.08,393.89 110.96,395.32 C109.84,396.74 108.42,399.39 107.80,401.20 C107.19,403.02 105.67,405.73 104.42,407.23 C103.18,408.73 101.86,411.43 101.48,413.23 C101.09,415.03 99.77,417.85 98.53,419.50 C97.30,421.15 95.96,423.62 95.57,425.00 C94.83,427.55 90.59,436.90 86.50,445.00 C85.25,447.48 83.92,450.95 83.54,452.72 C83.16,454.49 81.77,457.53 80.45,459.47 C79.13,461.42 77.33,465.80 76.45,469.20 C75.57,472.60 73.98,477.08 72.92,479.15 C71.87,481.22 71.00,484.43 71.00,486.27 C71.00,488.22 70.01,490.95 68.63,492.83 C67.32,494.60 65.70,498.85 65.03,502.27 C64.35,505.70 63.38,509.30 62.85,510.27 C61.60,512.61 55.16,537.58 53.47,546.67 C52.73,550.61 51.25,556.68 50.17,560.17 C49.10,563.66 47.92,570.11 47.55,574.50 C46.71,584.51 46.06,588.00 45.04,588.00 C44.60,588.00 43.96,586.99 43.63,585.75 Z M664.81,578.24 C665.16,574.65 663.64,573.93 662.04,576.93 C660.43,579.94 660.76,582.19 662.75,581.82 C663.90,581.60 664.61,580.38 664.81,578.24 Z M873.50,561.99 C873.50,560.17 872.89,559.41 871.25,559.18 C868.85,558.84 868.68,559.21 869.64,562.80 C870.48,565.91 873.50,565.27 873.50,561.99 Z M953.93,457.10 C956.93,452.89 956.57,451.55 953.00,453.66 C951.06,454.81 950.00,456.24 950.00,457.72 C950.00,460.82 951.45,460.59 953.93,457.10 Z M904.96,436.55 C906.48,434.72 905.92,431.50 904.10,431.50 C902.20,431.50 900.55,434.38 901.31,436.36 C902.09,438.39 903.38,438.45 904.96,436.55 Z M1015.82,386.14 C1016.05,384.58 1015.61,384.00 1014.19,384.00 C1011.71,384.00 1009.79,386.28 1010.57,388.31 C1011.42,390.54 1015.41,388.89 1015.82,386.14 Z M1023.96,375.55 C1025.52,373.67 1024.90,370.50 1022.99,370.50 C1022.04,370.50 1021.39,371.68 1021.19,373.75 C1020.85,377.21 1021.98,377.94 1023.96,375.55 Z M1012.82,364.24 C1013.02,362.86 1012.51,361.75 1011.50,361.36 C1009.24,360.49 1007.66,362.37 1008.49,364.96 C1009.37,367.74 1012.39,367.23 1012.82,364.24 Z M1066.50,325.99 C1066.50,324.17 1065.89,323.41 1064.25,323.18 C1062.45,322.93 1062.00,323.34 1062.00,325.26 C1062.00,328.14 1062.87,329.17 1064.95,328.77 C1065.85,328.60 1066.50,327.44 1066.50,325.99 Z M1023.96,292.07 C1025.30,289.57 1025.30,286.00 1023.97,286.00 C1022.35,286.00 1016.88,292.00 1017.54,293.06 C1018.57,294.74 1022.89,294.07 1023.96,292.07 Z M1077.85,246.11 C1079.66,244.96 1078.91,241.61 1076.74,241.19 C1074.79,240.81 1073.48,243.20 1074.36,245.50 C1075.01,247.20 1075.90,247.35 1077.85,246.11 Z M1068.56,234.81 C1069.33,232.38 1067.72,230.51 1065.57,231.34 C1064.05,231.92 1063.38,236.04 1064.60,237.26 C1065.63,238.30 1067.90,236.90 1068.56,234.81 Z M1122.77,129.80 C1122.25,128.25 1117.59,127.01 1115.99,128.01 C1113.88,129.31 1115.93,131.00 1119.64,131.00 C1121.93,131.00 1123.03,130.58 1122.77,129.80 Z"/>
</svg>