<svg xmlns="http://www.w3.org/2000/svg" viewBox="0 0 3580 340" width="3580" height="340">
<path fill="#3e332e" fill-rule="evenodd" d="M1078.01,293.80 C1065.62,288.09 1061.48,284.70 1054.51,274.58 C1051.32,269.95 1050.55,267.87 1050.19,263.01 C1049.80,257.51 1049.98,256.87 1052.70,254.15 C1055.32,251.52 1056.53,251.14 1064.07,250.52 C1074.09,249.70 1076.62,250.48 1080.75,255.67 C1084.19,259.98 1095.12,266.00 1099.51,266.00 C1102.69,266.00 1110.14,261.55 1114.40,257.11 C1119.13,252.16 1120.81,236.81 1117.02,233.02 C1114.57,230.57 1112.63,231.25 1110.00,235.49 C1107.27,239.92 1103.07,241.70 1093.42,242.53 C1086.46,243.13 1084.34,242.90 1077.99,240.86 C1066.14,237.06 1060.97,231.43 1050.19,210.57 C1049.29,208.83 1048.33,202.90 1047.84,196.07 C1047.39,189.70 1046.73,180.84 1046.39,176.36 C1046.03,171.77 1046.24,165.45 1046.86,161.86 C1047.46,158.36 1048.41,150.36 1048.95,144.09 C1049.82,134.18 1050.32,132.13 1052.73,128.59 C1054.25,126.34 1056.85,122.04 1058.50,119.02 C1061.28,113.95 1062.77,112.57 1070.64,107.75 C1072.21,106.79 1074.94,104.93 1076.70,103.63 C1078.81,102.07 1081.98,101.03 1086.02,100.58 C1091.50,99.96 1092.81,100.19 1098.33,102.77 C1101.72,104.36 1106.69,107.56 1109.37,109.88 C1112.05,112.20 1114.96,113.96 1115.84,113.79 C1116.72,113.62 1118.82,111.01 1120.52,107.99 C1123.51,102.66 1123.71,102.51 1127.55,102.78 C1129.72,102.93 1134.65,103.18 1138.50,103.34 C1147.80,103.71 1147.48,103.61 1149.09,106.75 C1150.26,109.03 1150.53,121.94 1150.66,183.00 C1150.76,226.58 1150.44,257.76 1149.88,259.60 C1149.37,261.31 1147.84,263.74 1146.50,265.00 C1145.16,266.26 1142.89,270.36 1141.46,274.11 C1139.38,279.54 1137.84,281.79 1133.91,285.07 C1131.20,287.34 1127.00,289.80 1124.59,290.52 C1122.17,291.25 1117.27,293.26 1113.69,294.98 C1108.37,297.55 1105.58,298.21 1098.34,298.61 L1089.50,299.10 L1078.01,293.80 Z M1844.00,249.99 C1841.53,249.49 1835.24,246.92 1830.03,244.29 C1822.14,240.30 1819.86,238.58 1816.36,234.00 C1810.33,226.12 1808.38,221.68 1806.45,211.50 C1803.56,196.21 1803.56,193.13 1806.42,184.08 C1807.84,179.58 1809.02,174.91 1809.04,173.70 C1809.17,167.31 1811.99,163.19 1824.95,150.45 C1829.52,145.96 1830.38,144.55 1830.30,141.70 C1830.19,137.84 1827.98,133.11 1823.89,128.00 C1820.12,123.30 1818.62,113.32 1819.21,96.89 C1819.75,81.93 1820.26,80.80 1831.36,70.27 C1839.66,62.38 1844.28,60.30 1855.61,59.34 C1866.56,58.40 1871.50,59.50 1876.36,63.94 C1878.64,66.03 1881.85,68.42 1883.50,69.26 C1885.15,70.11 1887.26,71.63 1888.18,72.65 C1890.92,75.67 1898.26,96.95 1898.74,103.25 C1899.12,108.28 1898.74,109.89 1895.65,116.25 C1893.71,120.24 1891.56,125.46 1890.87,127.86 C1890.06,130.67 1887.56,134.49 1883.84,138.59 C1877.86,145.19 1875.00,149.71 1875.00,152.55 C1875.00,155.22 1883.28,167.81 1885.79,168.95 C1889.44,170.61 1891.96,170.19 1892.98,167.75 C1893.49,166.51 1894.33,160.80 1894.83,155.06 C1895.86,143.37 1896.73,141.96 1904.11,139.97 C1909.43,138.54 1914.90,139.74 1918.23,143.08 L1921.00,145.85 L1920.98,163.17 C1920.95,185.19 1920.03,191.72 1916.07,197.89 C1911.85,204.47 1912.00,208.26 1916.75,214.81 C1918.81,217.66 1921.73,221.68 1923.22,223.74 C1924.72,225.81 1926.89,228.66 1928.05,230.09 C1929.20,231.51 1930.39,234.51 1930.69,236.76 C1931.42,242.14 1928.27,245.54 1921.66,246.53 C1915.32,247.48 1904.55,244.14 1899.00,239.50 C1894.17,235.46 1893.10,235.31 1888.14,237.90 C1886.14,238.95 1879.61,242.17 1873.64,245.06 C1864.12,249.66 1861.89,250.35 1855.64,250.61 C1851.71,250.77 1846.47,250.49 1844.00,249.99 Z M2042.00,250.12 C2040.62,249.65 2035.55,247.17 2030.72,244.61 C2021.50,239.72 2008.89,228.46 2007.47,223.84 C2007.08,222.55 2005.25,219.03 2003.42,216.00 C2001.58,212.97 1999.59,208.27 1998.99,205.54 C1998.39,202.81 1996.53,197.18 1994.85,193.04 C1990.98,183.43 1989.73,170.51 1990.18,144.50 L1990.50,125.50 L1993.75,118.50 C1995.54,114.65 1997.65,107.78 1998.43,103.22 C1999.57,96.56 2000.45,94.25 2002.93,91.43 C2004.62,89.50 2007.08,85.81 2008.40,83.21 C2011.71,76.70 2023.51,65.59 2030.67,62.23 C2036.32,59.58 2037.03,59.50 2054.00,59.50 C2071.08,59.50 2071.63,59.57 2077.00,62.24 C2080.03,63.75 2086.19,67.94 2090.69,71.56 C2097.78,77.24 2099.11,78.82 2100.58,83.24 C2101.60,86.31 2103.78,89.83 2106.04,92.04 C2109.48,95.41 2109.87,96.35 2110.44,102.62 C2110.78,106.40 2111.50,111.94 2112.03,114.92 C2113.76,124.55 2113.40,126.78 2109.75,129.09 C2106.87,130.92 2105.41,131.09 2096.91,130.63 C2082.51,129.84 2081.38,128.98 2079.02,116.92 C2078.14,112.41 2077.13,110.58 2073.72,107.28 C2067.49,101.27 2059.26,97.00 2053.92,97.00 C2048.68,97.01 2045.56,98.80 2037.92,106.21 C2032.59,111.39 2032.23,112.06 2029.78,121.56 C2028.36,127.03 2026.21,134.20 2025.00,137.50 C2023.01,142.89 2022.86,144.60 2023.49,154.38 C2023.87,160.37 2024.78,167.34 2025.51,169.88 C2026.24,172.42 2027.15,176.53 2027.54,179.00 C2029.15,189.28 2031.99,195.96 2037.23,201.80 C2040.04,204.94 2043.28,208.05 2044.42,208.71 C2045.64,209.43 2050.41,209.94 2055.96,209.96 L2065.43,210.00 L2071.73,203.25 C2076.88,197.73 2078.38,195.31 2079.99,189.98 C2082.53,181.52 2085.19,179.79 2096.55,179.19 C2109.04,178.54 2113.01,181.31 2112.99,190.68 C2112.98,200.07 2111.09,208.29 2107.99,212.50 C2106.37,214.70 2103.74,219.04 2102.16,222.14 C2097.74,230.79 2087.54,240.21 2076.70,245.65 C2067.75,250.15 2067.48,250.21 2056.07,250.59 C2049.70,250.80 2043.38,250.59 2042.00,250.12 Z M2782.00,250.37 C2774.03,249.81 2772.40,249.29 2768.77,246.14 C2766.97,244.58 2763.35,242.59 2760.71,241.70 C2757.16,240.51 2753.99,238.14 2748.44,232.54 L2740.95,224.97 L2738.94,213.42 C2736.69,200.45 2737.05,196.24 2740.68,192.83 C2742.92,190.73 2744.10,190.50 2752.51,190.50 C2764.00,190.50 2766.62,191.98 2769.22,199.95 C2771.49,206.92 2772.03,207.45 2779.84,210.44 C2787.47,213.36 2791.25,213.58 2798.87,211.55 C2805.31,209.83 2808.31,207.25 2809.85,202.10 C2812.72,192.53 2809.87,183.50 2802.85,179.92 C2800.48,178.71 2796.92,176.65 2794.94,175.34 C2792.68,173.84 2788.07,172.39 2782.52,171.42 C2771.45,169.49 2753.75,160.61 2751.11,155.66 C2750.22,154.00 2747.88,150.81 2745.89,148.57 C2739.66,141.54 2739.56,141.12 2739.17,120.99 C2738.79,100.87 2739.78,94.22 2744.51,85.07 C2748.29,77.78 2755.42,69.50 2759.63,67.53 C2761.76,66.53 2765.46,64.31 2767.87,62.61 L2772.23,59.50 L2790.37,59.50 C2813.42,59.50 2815.19,60.16 2827.51,73.24 C2838.87,85.30 2841.46,90.71 2841.33,102.00 C2841.21,112.56 2840.05,115.66 2835.54,117.55 C2825.33,121.81 2816.03,117.77 2808.90,105.95 C2803.34,96.74 2798.97,93.14 2792.43,92.37 C2787.88,91.84 2787.08,92.09 2782.08,95.65 C2772.17,102.70 2771.00,104.21 2771.00,109.97 C2771.00,116.15 2772.46,119.16 2778.17,124.71 C2781.85,128.30 2783.58,129.15 2789.75,130.45 C2793.74,131.29 2798.69,133.09 2800.75,134.45 C2802.81,135.81 2807.85,137.63 2811.94,138.49 C2820.19,140.22 2822.57,141.73 2832.99,151.86 C2839.68,158.36 2839.90,158.74 2843.52,170.00 C2847.09,181.09 2847.20,181.86 2846.62,191.76 C2846.18,199.25 2845.38,203.56 2843.63,207.76 C2842.32,210.92 2840.93,215.69 2840.55,218.36 C2840.02,221.99 2838.90,224.25 2836.08,227.36 C2834.02,229.64 2831.47,232.98 2830.42,234.79 C2828.94,237.36 2825.87,239.43 2816.51,244.16 C2804.93,250.01 2804.19,250.24 2796.00,250.49 C2791.32,250.64 2785.03,250.58 2782.00,250.37 Z M450.50,248.81 C449.40,248.19 446.37,245.92 443.76,243.76 C436.15,237.46 434.22,227.88 437.88,214.67 C439.94,207.24 442.70,203.58 447.87,201.41 C455.42,198.25 462.85,200.69 467.73,207.92 C471.19,213.06 472.25,218.55 471.83,229.09 C471.38,240.19 470.43,242.20 463.40,246.86 C458.45,250.14 454.04,250.81 450.50,248.81 Z M1209.00,249.12 C1196.91,245.12 1183.00,234.71 1178.79,226.50 C1177.66,224.30 1175.26,220.86 1173.46,218.85 C1170.64,215.71 1170.09,214.23 1169.57,208.35 C1169.23,204.58 1168.30,196.78 1167.49,191.00 C1166.01,180.41 1166.05,177.72 1168.03,155.00 C1169.34,140.05 1170.30,135.99 1173.39,132.30 C1174.68,130.76 1176.88,127.25 1178.29,124.50 C1181.81,117.59 1191.10,108.93 1199.77,104.43 C1206.50,100.95 1207.82,100.64 1217.27,100.24 L1227.50,99.81 L1233.50,103.74 C1236.80,105.90 1241.40,108.87 1243.73,110.33 C1246.05,111.80 1248.72,114.23 1249.66,115.75 C1250.61,117.26 1252.80,120.30 1254.53,122.50 C1256.27,124.70 1258.21,127.48 1258.85,128.69 C1261.07,132.89 1265.96,157.35 1266.62,167.58 C1267.35,178.82 1266.37,183.20 1262.69,185.17 C1261.56,185.77 1253.41,186.65 1244.57,187.12 C1235.73,187.59 1227.15,188.23 1225.50,188.54 C1223.85,188.86 1219.48,188.47 1215.79,187.69 C1204.03,185.19 1201.00,187.22 1201.00,197.59 C1201.00,205.15 1202.57,207.43 1210.83,211.83 C1219.20,216.29 1222.17,216.05 1228.16,210.45 C1233.19,205.74 1241.08,201.48 1246.76,200.40 C1251.96,199.40 1258.97,200.88 1261.63,203.53 C1265.79,207.70 1264.51,218.45 1258.98,225.61 C1257.34,227.75 1254.43,231.82 1252.52,234.66 C1249.60,239.01 1248.22,240.09 1243.78,241.55 C1240.87,242.50 1235.85,244.64 1232.61,246.31 C1227.86,248.76 1225.26,249.40 1219.11,249.65 C1214.93,249.81 1210.38,249.57 1209.00,249.12 Z M1486.50,246.68 C1482.65,244.74 1478.04,242.62 1476.26,241.96 C1474.34,241.25 1472.15,239.29 1470.87,237.13 C1469.69,235.13 1466.74,231.70 1464.31,229.50 C1460.52,226.06 1459.64,224.48 1458.04,218.21 C1457.02,214.20 1455.46,209.82 1454.57,208.47 C1450.26,201.88 1448.81,184.07 1450.46,157.65 C1451.31,144.01 1451.37,143.75 1454.59,139.89 C1456.69,137.38 1458.26,134.06 1458.97,130.65 C1459.79,126.68 1460.99,124.45 1463.63,121.91 C1465.58,120.03 1468.01,116.87 1469.04,114.88 C1470.28,112.48 1472.35,110.59 1475.20,109.24 C1477.57,108.13 1480.40,106.22 1481.50,105.01 C1485.30,100.80 1488.67,99.81 1498.91,99.92 C1509.53,100.02 1513.60,100.87 1517.75,103.81 C1519.26,104.89 1522.14,106.46 1524.15,107.29 C1526.16,108.13 1530.55,111.67 1533.90,115.16 C1538.93,120.39 1540.35,122.66 1542.00,128.12 C1543.10,131.75 1545.35,136.43 1547.00,138.50 C1549.92,142.17 1550.01,142.61 1550.25,154.39 C1550.73,177.86 1550.56,180.72 1548.53,182.97 C1547.49,184.11 1544.20,185.76 1541.21,186.63 C1536.67,187.95 1534.53,188.02 1528.28,187.10 C1522.72,186.27 1517.86,186.28 1509.37,187.14 C1500.75,188.01 1497.00,188.02 1494.10,187.15 C1485.81,184.66 1482.00,186.96 1482.00,194.45 C1482.00,198.48 1482.58,199.55 1488.01,205.67 C1494.73,213.25 1497.15,214.91 1501.50,214.96 C1505.94,215.02 1515.97,209.81 1520.21,205.25 C1524.58,200.56 1527.41,199.81 1537.51,200.66 C1547.18,201.48 1549.42,203.31 1548.78,209.89 C1548.20,215.82 1540.88,228.54 1533.74,236.03 C1529.20,240.79 1527.11,242.08 1518.64,245.32 C1511.68,247.98 1506.59,249.24 1501.16,249.64 C1493.86,250.18 1493.17,250.04 1486.50,246.68 Z M2171.00,249.32 C2170.18,249.03 2167.72,247.90 2165.55,246.81 C2163.37,245.71 2159.22,243.93 2156.32,242.85 C2152.83,241.54 2150.31,239.79 2148.87,237.69 C2147.67,235.93 2145.11,232.83 2143.17,230.78 C2139.51,226.91 2135.88,221.17 2131.46,212.25 C2128.90,207.09 2128.84,206.56 2128.45,181.75 C2128.11,159.89 2128.78,145.66 2130.56,137.27 C2130.82,136.04 2132.31,133.57 2133.88,131.77 C2135.45,129.97 2137.65,126.70 2138.76,124.50 C2142.81,116.54 2148.63,111.24 2159.36,105.76 L2169.50,100.58 L2179.57,100.54 C2188.80,100.50 2189.98,100.72 2193.59,103.11 C2195.76,104.55 2200.12,106.94 2203.27,108.43 C2206.42,109.93 2209.00,111.61 2209.00,112.17 C2209.00,112.73 2211.71,115.78 2215.02,118.94 C2220.63,124.30 2221.12,125.13 2222.17,131.08 C2222.82,134.76 2224.95,140.60 2227.20,144.87 L2231.10,152.28 L2230.80,176.48 L2230.50,200.68 L2227.24,205.92 C2225.45,208.80 2223.23,214.14 2222.32,217.78 C2220.95,223.22 2219.70,225.46 2215.24,230.44 C2212.26,233.77 2208.91,237.51 2207.80,238.75 C2206.70,239.99 2205.25,241.00 2204.58,241.00 C2203.92,241.00 2199.41,243.03 2194.55,245.50 C2186.63,249.55 2185.07,249.99 2179.12,249.92 C2175.48,249.88 2171.82,249.61 2171.00,249.32 Z M2559.00,248.64 C2543.81,244.06 2534.64,236.68 2525.64,221.79 C2520.18,212.76 2520.06,212.24 2517.38,183.71 C2516.10,170.08 2515.97,165.06 2516.82,162.21 C2517.43,160.17 2518.37,154.68 2518.90,150.00 C2520.02,140.29 2521.45,135.78 2526.05,127.42 C2530.49,119.36 2535.87,113.90 2546.38,106.79 C2553.47,101.98 2556.49,100.57 2561.39,99.73 C2574.58,97.47 2589.94,103.89 2602.70,117.00 C2608.70,123.17 2610.28,125.48 2611.55,130.00 C2612.41,133.03 2614.53,139.10 2616.28,143.50 C2619.44,151.47 2619.45,151.57 2619.81,173.11 C2620.16,194.35 2620.12,194.85 2617.54,202.11 C2616.09,206.18 2613.84,213.10 2612.54,217.50 C2610.58,224.11 2609.48,226.11 2606.20,229.00 C2604.01,230.93 2601.54,233.85 2600.71,235.50 C2598.85,239.20 2596.28,241.54 2593.00,242.49 C2591.62,242.89 2587.43,244.55 2583.69,246.17 C2575.56,249.70 2565.76,250.67 2559.00,248.64 Z M2893.52,245.43 C2885.44,241.64 2882.24,239.45 2876.77,233.98 C2871.28,228.49 2869.67,226.12 2868.17,221.36 C2867.16,218.14 2865.15,213.78 2863.72,211.69 C2860.15,206.49 2859.70,202.32 2859.59,173.92 L2859.50,149.34 L2863.29,141.86 C2865.37,137.75 2867.69,132.06 2868.44,129.23 C2869.96,123.45 2879.22,111.95 2884.50,109.30 C2886.15,108.47 2889.92,106.15 2892.88,104.14 L2898.26,100.50 L2909.49,100.60 C2921.33,100.70 2920.41,100.44 2932.75,107.18 C2935.45,108.65 2938.80,111.35 2940.19,113.18 C2941.59,115.01 2944.52,118.30 2946.72,120.50 C2949.88,123.66 2950.86,125.53 2951.45,129.45 C2951.85,132.18 2953.72,137.35 2955.59,140.95 C2958.73,146.98 2959.07,148.54 2959.92,160.65 C2961.10,177.58 2960.00,182.91 2954.80,185.60 C2952.53,186.78 2946.91,187.26 2930.67,187.66 C2919.03,187.95 2907.93,188.11 2906.00,188.02 C2893.04,187.41 2893.63,187.31 2892.18,190.34 C2891.32,192.11 2891.05,194.48 2891.47,196.67 C2892.63,202.85 2905.55,215.00 2910.96,215.00 C2913.95,215.00 2923.94,209.33 2928.50,205.06 C2932.92,200.91 2935.67,199.77 2939.31,200.57 C2941.06,200.96 2945.20,201.23 2948.50,201.19 C2960.70,201.01 2962.07,205.84 2953.98,220.44 C2947.09,232.88 2942.11,238.44 2934.64,242.04 C2931.26,243.67 2927.05,245.93 2925.27,247.08 C2922.79,248.67 2919.89,249.27 2912.77,249.63 L2903.50,250.11 L2893.52,245.43 Z M3255.14,248.85 C3253.30,248.32 3250.15,246.84 3248.14,245.55 C3246.14,244.26 3242.12,242.45 3239.20,241.51 C3234.93,240.14 3233.38,239.00 3231.24,235.65 C3229.77,233.37 3226.86,229.58 3224.76,227.24 C3220.14,222.09 3219.50,220.50 3217.53,209.28 C3216.68,204.45 3215.32,198.03 3214.51,195.00 C3212.39,187.14 3212.42,158.87 3214.56,152.88 C3215.42,150.47 3216.98,144.33 3218.04,139.24 C3220.02,129.70 3221.75,125.28 3224.38,123.10 C3225.21,122.41 3227.26,119.71 3228.94,117.09 C3231.51,113.08 3233.66,111.43 3242.74,106.50 C3253.02,100.91 3253.88,100.63 3262.00,100.22 C3273.13,99.65 3276.63,100.73 3288.00,108.23 C3297.00,114.17 3297.69,114.88 3301.00,121.60 C3302.93,125.50 3306.02,130.42 3307.88,132.53 C3311.25,136.36 3311.26,136.39 3310.71,144.33 C3309.85,156.94 3305.11,160.84 3292.29,159.50 C3284.38,158.67 3281.88,156.69 3279.07,148.99 C3276.22,141.15 3273.05,139.01 3264.30,139.00 C3260.89,139.00 3256.98,139.51 3255.61,140.13 C3251.89,141.83 3248.80,149.93 3247.85,160.50 C3247.40,165.45 3246.76,172.20 3246.43,175.50 C3245.98,179.95 3246.36,183.55 3247.91,189.44 C3249.06,193.80 3250.00,198.81 3250.00,200.55 C3250.00,205.06 3253.21,208.58 3259.12,210.54 C3268.42,213.63 3275.83,211.01 3279.28,203.41 C3282.20,196.97 3282.51,196.59 3286.93,194.13 C3292.71,190.89 3303.22,189.99 3305.98,192.48 C3309.27,195.46 3311.29,202.29 3310.82,208.81 C3310.46,213.83 3309.61,215.91 3305.04,223.09 C3295.89,237.46 3295.01,238.30 3282.73,244.40 C3272.40,249.54 3270.96,249.99 3264.99,249.91 C3261.42,249.86 3256.99,249.38 3255.14,248.85 Z M3365.00,248.50 C3359.46,247.15 3346.24,241.28 3343.35,238.88 C3342.50,238.17 3340.28,235.32 3338.42,232.54 C3336.56,229.77 3334.09,226.32 3332.92,224.87 C3331.75,223.43 3329.77,218.48 3328.52,213.87 C3327.27,209.27 3325.18,202.80 3323.88,199.50 C3321.68,193.94 3321.51,192.15 3321.55,175.00 C3321.58,156.62 3321.60,156.44 3324.87,147.50 C3326.68,142.55 3328.95,135.74 3329.91,132.36 C3331.35,127.35 3332.93,124.83 3338.54,118.63 C3345.60,110.85 3352.83,105.20 3359.00,102.67 C3360.93,101.88 3367.28,100.91 3373.13,100.53 C3384.26,99.79 3388.96,100.86 3390.33,104.42 C3390.65,105.25 3393.08,107.02 3395.74,108.37 C3402.29,111.69 3408.33,117.77 3411.97,124.72 C3413.64,127.90 3415.95,131.68 3417.10,133.12 C3419.67,136.33 3421.00,146.74 3421.29,166.04 C3421.52,181.00 3420.59,184.06 3415.20,186.12 C3413.71,186.68 3400.84,187.34 3386.58,187.59 C3369.75,187.88 3360.20,188.42 3359.33,189.14 C3357.24,190.88 3357.61,201.84 3359.89,205.58 C3362.39,209.69 3373.59,215.57 3377.19,214.67 C3378.61,214.31 3382.56,211.88 3385.95,209.26 C3396.63,201.03 3397.55,200.64 3407.07,200.18 C3414.84,199.81 3415.99,199.99 3417.83,201.83 C3420.53,204.53 3421.43,209.69 3420.08,214.71 C3419.48,216.93 3416.14,222.95 3412.64,228.10 C3406.58,237.04 3405.91,237.66 3397.40,242.34 C3383.10,250.20 3376.88,251.39 3365.00,248.50 Z M3470.00,248.57 C3460.05,245.71 3452.64,241.34 3445.89,234.34 C3439.47,227.68 3439.22,227.23 3437.14,218.38 C3434.59,207.52 3435.27,203.96 3440.29,201.88 C3444.63,200.08 3452.34,200.29 3459.46,202.41 C3464.46,203.89 3466.40,205.21 3471.55,210.59 C3477.21,216.51 3478.01,217.00 3481.94,217.00 C3485.44,217.00 3486.80,216.40 3489.54,213.66 C3494.00,209.20 3494.81,205.66 3492.40,201.17 C3489.75,196.24 3483.07,192.26 3476.15,191.48 C3467.56,190.51 3465.32,189.55 3454.53,182.25 C3441.29,173.29 3439.42,170.31 3437.88,155.71 C3436.41,141.73 3437.78,129.63 3441.53,123.62 C3447.54,113.96 3450.36,110.78 3454.38,109.05 C3456.66,108.08 3459.99,106.04 3461.79,104.53 C3464.42,102.31 3466.67,101.57 3473.28,100.73 C3489.52,98.68 3491.91,99.15 3505.50,107.10 C3516.81,113.71 3518.55,115.57 3520.05,122.58 C3521.81,130.78 3521.83,142.06 3520.10,145.31 C3518.32,148.64 3513.56,150.31 3509.32,149.09 C3503.26,147.35 3493.18,140.92 3489.53,136.47 C3486.68,132.99 3485.20,132.00 3482.88,132.00 C3476.96,132.00 3471.04,136.99 3469.45,143.33 C3468.88,145.61 3469.37,146.61 3472.48,149.54 C3480.60,157.21 3482.54,158.21 3490.98,159.06 C3497.39,159.70 3499.78,160.44 3503.30,162.86 C3505.71,164.52 3510.18,167.06 3513.25,168.51 C3519.69,171.56 3520.07,172.29 3522.56,186.17 C3524.02,194.38 3524.11,197.17 3523.14,204.73 C3522.51,209.63 3522.00,215.98 3522.00,218.85 C3522.00,226.07 3520.00,230.17 3513.26,236.80 C3502.58,247.29 3483.56,252.47 3470.00,248.57 Z M232.00,244.34 C225.52,241.04 221.92,238.55 220.66,236.50 C219.65,234.85 217.31,231.06 215.44,228.08 C210.60,220.32 208.55,210.21 209.39,198.24 C209.76,193.01 210.71,187.61 211.53,186.15 C219.48,171.87 232.26,162.10 245.54,160.12 C249.69,159.50 256.23,159.00 260.09,159.00 C266.19,159.00 267.41,158.68 269.55,156.55 C274.18,151.91 272.43,145.42 264.60,138.20 C259.11,133.14 256.23,132.87 252.01,136.99 C250.32,138.64 247.27,140.86 245.22,141.92 C243.17,142.98 239.98,144.98 238.13,146.37 C236.27,147.76 233.50,149.17 231.96,149.51 C227.75,150.43 221.48,148.33 217.97,144.81 C212.55,139.39 212.48,137.96 217.19,128.19 C222.65,116.86 226.75,111.84 235.12,106.28 C241.51,102.03 242.62,101.66 251.73,100.65 C266.85,98.97 272.54,99.24 275.76,101.79 C277.27,102.97 280.84,105.33 283.71,107.02 C286.57,108.72 291.43,112.96 294.49,116.45 C299.41,122.05 300.22,123.60 301.40,129.65 C304.38,144.92 305.20,152.93 304.43,159.18 C304.00,162.65 303.62,182.30 303.58,202.83 L303.50,240.17 L300.79,242.51 C297.05,245.72 288.10,247.52 283.45,245.98 C281.51,245.34 279.21,243.72 278.32,242.37 C275.59,238.19 273.68,237.77 267.66,240.03 C264.66,241.15 260.25,243.49 257.86,245.24 C254.37,247.78 252.30,248.49 247.50,248.79 C241.95,249.15 240.79,248.81 232.00,244.34 Z M737.50,247.48 C726.43,242.17 721.46,238.36 718.50,232.92 C716.85,229.89 714.17,225.68 712.54,223.58 C709.61,219.80 709.57,219.56 709.37,206.13 C709.12,190.18 709.87,186.45 714.08,182.45 C715.79,180.83 718.29,177.33 719.65,174.68 C721.41,171.23 723.10,169.44 725.58,168.40 C727.48,167.61 731.37,165.52 734.22,163.77 C739.11,160.76 740.15,160.54 752.29,159.88 C766.32,159.11 770.71,157.90 772.03,154.43 C773.87,149.59 767.57,137.68 762.50,136.41 C758.80,135.48 746.51,140.37 740.08,145.32 C735.12,149.14 734.18,149.49 729.08,149.38 C716.94,149.13 712.85,144.55 715.77,134.50 C720.16,119.39 724.57,113.31 735.00,108.00 C738.02,106.46 742.71,104.03 745.42,102.60 C750.97,99.67 754.67,99.42 768.50,101.09 C781.30,102.63 784.65,104.39 792.16,113.51 C795.65,117.74 799.06,122.24 799.73,123.51 C802.84,129.31 804.09,151.59 803.79,195.82 L803.50,238.96 L800.23,242.23 C797.14,245.32 796.56,245.50 789.73,245.50 C783.71,245.50 781.59,245.02 777.06,242.64 C770.03,238.95 765.94,239.43 757.77,244.91 C752.42,248.51 751.01,249.00 746.09,248.96 C743.02,248.94 739.15,248.27 737.50,247.48 Z M958.87,245.00 C953.67,242.34 950.18,239.73 947.88,236.80 C946.03,234.44 943.53,231.71 942.33,230.73 C938.65,227.76 937.75,222.78 937.63,204.60 C937.54,190.54 937.82,186.88 939.19,184.00 C941.91,178.29 951.97,168.86 960.43,164.09 L968.26,159.68 L980.88,159.28 C987.82,159.05 994.50,158.38 995.72,157.78 C998.47,156.43 1000.32,151.16 999.39,147.35 C998.29,142.90 996.02,140.05 991.89,137.94 C985.38,134.62 982.97,135.25 967.75,144.24 C956.50,150.89 943.65,150.48 940.96,143.39 C938.88,137.92 939.78,133.49 944.00,128.38 C946.20,125.72 948.50,121.96 949.11,120.02 C950.86,114.48 952.71,112.19 957.26,109.90 C959.59,108.73 963.94,105.91 966.92,103.64 L972.35,99.50 L985.42,99.82 C999.51,100.16 999.13,100.05 1011.04,107.32 C1016.71,110.78 1019.17,112.99 1020.94,116.21 C1022.24,118.57 1024.92,123.17 1026.90,126.42 L1030.50,132.35 L1030.77,184.92 C1031.01,233.52 1030.90,237.77 1029.27,241.00 C1028.30,242.92 1026.38,245.00 1025.00,245.62 C1021.31,247.28 1008.80,245.37 1001.16,241.99 C993.69,238.69 992.39,238.89 982.43,244.90 C973.40,250.34 969.35,250.36 958.87,245.00 Z M2398.50,246.39 C2395.20,244.98 2390.50,243.19 2388.06,242.41 C2381.80,240.40 2379.31,238.53 2377.16,234.24 C2376.13,232.18 2374.07,228.39 2372.59,225.81 L2369.89,221.12 L2369.89,182.95 L2369.88,144.79 L2367.48,142.39 C2366.17,141.08 2364.15,140.00 2363.00,140.00 C2360.02,140.00 2356.00,135.61 2356.00,132.36 C2356.00,130.86 2355.28,126.74 2354.39,123.20 C2352.36,115.10 2353.00,113.55 2361.06,107.29 C2369.12,101.04 2370.00,99.13 2370.00,88.00 C2370.00,73.26 2373.15,70.00 2387.41,70.00 C2393.85,70.00 2395.27,70.33 2397.66,72.39 C2400.34,74.69 2400.45,75.18 2401.03,87.27 C2401.80,103.67 2402.58,105.00 2411.35,105.00 C2416.83,105.00 2417.97,105.34 2420.08,107.58 C2422.33,109.97 2422.52,111.04 2422.83,122.67 C2423.15,134.53 2423.05,135.32 2420.91,137.60 C2418.95,139.68 2417.74,140.00 2411.83,140.00 C2400.79,140.00 2401.00,139.50 2401.01,166.25 C2401.01,178.49 2401.45,192.32 2401.98,197.00 C2402.80,204.24 2403.33,205.83 2405.53,207.75 C2407.03,209.06 2409.44,210.01 2411.31,210.01 C2418.72,210.05 2421.36,213.43 2422.99,224.95 C2424.69,236.95 2421.94,242.77 2412.50,247.11 C2407.26,249.53 2405.65,249.44 2398.50,246.39 Z M54.30,245.99 C53.09,245.50 51.31,243.62 50.35,241.80 C48.70,238.72 48.60,232.88 48.75,153.65 C48.92,66.15 49.05,63.11 52.94,61.03 C55.92,59.44 78.47,61.00 81.82,63.04 C85.69,65.39 88.97,72.78 90.67,83.00 C91.60,88.57 93.42,94.26 95.94,99.50 C98.62,105.06 100.13,109.94 100.90,115.50 C101.70,121.23 103.14,125.78 105.98,131.52 C109.13,137.90 110.07,141.07 110.54,147.02 C111.56,159.80 114.97,166.10 120.01,164.50 C123.75,163.31 126.09,158.31 128.03,147.32 C129.39,139.62 131.02,134.39 133.89,128.49 C136.80,122.51 138.17,118.08 139.00,111.92 C140.10,103.86 141.62,99.51 145.91,92.14 C146.99,90.28 148.16,85.82 148.52,82.14 C149.95,67.65 152.73,63.01 161.26,60.90 C168.41,59.13 181.99,59.13 185.30,60.89 C191.38,64.14 191.18,60.94 191.04,153.70 C190.91,244.56 191.04,242.30 185.90,245.05 C184.66,245.71 181.94,245.90 179.16,245.52 C176.59,245.17 172.56,245.31 170.19,245.85 C166.41,246.70 165.59,246.55 163.35,244.63 C159.51,241.32 159.05,236.28 159.81,205.50 C160.91,160.91 160.86,159.42 158.36,156.91 L156.22,154.78 L154.16,156.84 C151.95,159.05 150.92,162.48 149.16,173.50 C148.54,177.35 146.72,183.88 145.11,188.00 C143.50,192.12 141.87,197.75 141.50,200.50 C140.19,210.10 139.38,212.45 131.79,228.78 C129.06,234.63 124.43,238.00 119.11,238.00 C115.50,238.00 114.23,237.36 109.95,233.36 C102.98,226.84 101.49,223.87 99.50,212.54 C98.53,207.07 96.64,199.42 95.30,195.54 C93.96,191.67 91.77,182.91 90.44,176.09 C87.76,162.35 86.20,159.00 82.50,159.00 C78.12,159.00 77.85,162.59 79.70,196.50 C81.04,221.01 80.21,237.00 77.44,240.07 C75.70,241.99 61.50,247.06 58.20,246.94 C57.26,246.90 55.51,246.47 54.30,245.99 Z M393.73,245.05 C383.43,241.76 381.07,239.30 378.18,228.88 C376.09,221.35 368.82,210.00 366.09,210.00 C363.21,210.00 362.09,212.14 360.70,220.24 C359.34,228.20 355.22,235.59 348.22,242.68 C344.95,245.98 344.87,246.00 335.39,246.00 C326.17,246.00 325.75,245.90 322.92,243.08 C318.36,238.52 318.93,232.56 324.56,225.78 C325.80,224.29 327.58,220.69 328.52,217.78 C329.45,214.88 331.93,209.57 334.03,206.00 C336.12,202.43 338.30,197.77 338.87,195.65 C339.43,193.53 341.77,188.68 344.07,184.88 C348.99,176.74 348.92,174.43 343.49,166.55 C341.58,163.77 339.19,158.54 338.19,154.92 C337.18,151.30 335.20,146.80 333.78,144.92 C332.36,143.04 330.25,138.30 329.10,134.39 C327.83,130.10 325.61,125.54 323.51,122.89 C320.52,119.13 320.02,117.74 320.01,113.20 C319.99,103.86 323.39,100.31 330.50,102.23 C332.15,102.67 336.43,102.77 340.00,102.43 C345.82,101.89 346.75,102.06 348.87,104.06 C353.73,108.65 358.82,118.02 361.06,126.49 C362.28,131.15 364.09,135.68 365.07,136.57 C369.44,140.52 374.51,134.39 378.38,120.50 C380.51,112.88 381.49,110.94 384.83,107.83 C389.82,103.16 395.11,101.53 402.35,102.44 C409.72,103.36 414.40,106.51 414.82,110.85 C415.24,115.17 409.83,130.08 405.52,136.50 C403.67,139.25 401.85,143.07 401.46,145.00 C400.59,149.34 397.69,155.19 395.51,156.99 C391.62,160.22 390.70,163.98 391.39,173.80 C392.07,183.45 393.48,188.25 396.91,192.61 C397.99,193.99 399.87,198.12 401.08,201.80 C402.30,205.49 404.54,210.30 406.08,212.50 C407.61,214.70 409.39,218.53 410.04,221.00 C410.68,223.47 412.29,227.34 413.61,229.59 C417.97,237.04 415.71,243.87 408.20,245.96 C403.14,247.37 400.46,247.20 393.73,245.05 Z M833.39,245.44 C831.13,244.61 828.23,242.80 826.94,241.43 L824.59,238.94 L824.87,191.22 C825.18,137.67 825.65,114.89 826.51,110.93 C827.45,106.67 831.09,104.05 837.81,102.80 C845.57,101.35 850.98,102.77 854.02,107.03 C857.27,111.60 863.48,110.47 872.33,103.70 C876.99,100.12 877.43,100.00 885.43,100.00 C893.21,100.00 893.96,100.19 898.02,103.25 C900.40,105.04 903.94,107.64 905.89,109.02 C907.84,110.41 911.14,114.46 913.24,118.02 C921.12,131.43 920.47,125.82 920.80,183.00 C920.96,211.32 920.84,235.91 920.53,237.64 C920.21,239.36 918.84,241.88 917.49,243.24 C915.35,245.38 913.83,245.78 905.85,246.30 C900.26,246.66 895.91,246.49 894.74,245.86 C893.68,245.29 891.93,242.84 890.86,240.42 C889.02,236.25 888.92,233.68 889.07,194.07 L889.22,152.13 L886.86,147.82 C882.26,139.41 870.95,136.80 864.09,142.57 C858.97,146.88 858.51,151.33 858.42,196.66 C858.34,242.60 858.56,241.07 851.32,244.53 C846.30,246.93 838.51,247.32 833.39,245.44 Z M1290.58,245.51 C1288.42,244.75 1285.30,242.76 1283.64,241.10 C1280.96,238.42 1280.64,237.46 1280.71,232.30 C1280.75,229.11 1280.89,201.20 1281.01,170.27 C1281.26,106.32 1280.87,109.39 1289.31,105.22 C1291.96,103.91 1296.55,102.59 1299.52,102.29 C1304.50,101.77 1305.09,101.94 1307.21,104.47 C1314.51,113.19 1314.60,113.26 1316.69,112.60 C1317.82,112.24 1321.26,109.75 1324.33,107.07 C1331.19,101.06 1335.42,99.55 1343.14,100.36 C1351.89,101.27 1355.28,103.11 1359.98,109.47 C1362.27,112.58 1365.13,115.48 1366.32,115.92 C1369.87,117.24 1373.97,115.05 1377.71,109.84 C1381.95,103.94 1382.70,103.51 1392.10,101.55 C1404.50,98.96 1406.78,99.30 1414.10,104.85 C1421.42,110.41 1428.64,117.93 1429.95,121.36 C1431.61,125.73 1435.38,152.45 1435.33,159.50 C1435.30,163.35 1435.32,177.97 1435.38,192.00 C1435.53,231.32 1435.43,234.13 1433.70,238.23 C1430.66,245.41 1420.73,248.75 1412.86,245.25 C1410.46,244.18 1407.04,241.93 1405.25,240.25 L1402.00,237.20 L1402.00,200.14 C1402.00,145.54 1400.58,139.05 1388.61,138.71 C1384.11,138.58 1381.37,141.10 1377.06,149.35 L1374.00,155.20 L1374.00,196.05 C1374.00,223.70 1373.64,237.69 1372.90,239.33 C1371.08,243.31 1365.11,246.00 1358.06,246.00 C1351.54,246.00 1347.77,244.61 1344.50,241.00 C1342.58,238.88 1342.48,237.00 1342.00,194.15 C1341.51,150.22 1341.46,149.43 1339.25,145.28 C1336.58,140.29 1334.51,139.00 1329.17,139.00 C1325.91,139.00 1324.67,139.61 1322.21,142.42 C1314.80,150.86 1312.14,169.96 1314.04,201.03 C1314.64,210.88 1314.64,217.77 1314.03,219.88 C1313.51,221.71 1313.35,226.69 1313.67,230.93 C1314.17,237.41 1313.97,239.11 1312.43,241.47 C1308.97,246.74 1299.14,248.56 1290.58,245.51 Z M1573.79,245.85 C1572.30,245.30 1570.20,243.43 1569.12,241.68 C1567.35,238.79 1567.20,236.93 1567.47,221.50 C1567.72,207.99 1567.45,203.52 1566.19,199.74 C1564.70,195.28 1564.72,194.62 1566.46,189.49 C1568.19,184.40 1568.23,183.16 1566.99,172.41 C1565.96,163.47 1565.90,157.95 1566.71,148.27 C1567.41,139.92 1567.43,134.53 1566.78,132.15 C1565.15,126.27 1568.09,109.77 1571.41,106.10 C1572.45,104.95 1575.71,103.25 1578.64,102.32 C1585.83,100.06 1590.56,101.21 1593.78,106.00 C1595.08,107.92 1596.67,109.78 1597.32,110.13 C1599.68,111.39 1607.74,108.03 1611.41,104.25 L1615.06,100.50 L1625.28,100.53 L1635.50,100.56 L1643.23,106.30 C1647.48,109.46 1651.39,112.87 1651.93,113.88 C1652.47,114.88 1654.51,117.62 1656.46,119.95 C1659.39,123.46 1660.00,124.99 1660.02,128.84 C1660.03,131.41 1660.49,136.43 1661.04,140.00 C1662.41,148.84 1662.36,233.93 1660.99,239.02 C1660.42,241.17 1658.96,243.62 1657.75,244.46 C1654.15,246.99 1644.59,246.27 1635.70,242.81 C1630.33,240.71 1630.12,239.27 1630.07,203.41 C1630.04,185.31 1629.72,164.93 1629.36,158.13 C1628.50,142.17 1627.55,140.75 1617.37,140.23 C1612.01,139.96 1609.73,140.30 1607.00,141.80 C1600.87,145.16 1600.68,146.57 1600.30,192.50 C1600.12,215.05 1599.73,234.97 1599.44,236.76 C1598.75,240.98 1595.82,242.84 1586.20,245.14 C1577.54,247.21 1577.52,247.22 1573.79,245.85 Z M1719.00,245.98 C1718.17,245.44 1714.68,244.11 1711.24,243.02 C1702.43,240.26 1701.41,239.56 1698.34,234.23 C1696.84,231.63 1694.58,228.11 1693.31,226.41 C1689.42,221.19 1688.91,214.86 1689.46,178.87 C1689.96,146.12 1689.92,145.17 1687.93,142.64 C1686.77,141.17 1684.08,139.57 1681.70,138.95 C1675.50,137.33 1675.00,136.17 1675.00,123.50 C1675.00,112.65 1675.07,112.31 1677.75,109.80 C1679.26,108.39 1682.00,106.47 1683.83,105.55 C1688.31,103.29 1690.00,98.83 1690.01,89.28 C1690.02,73.46 1692.74,70.00 1705.18,70.00 C1713.54,70.00 1718.13,71.51 1719.54,74.71 C1719.98,75.70 1720.60,82.06 1720.93,88.85 C1721.47,100.13 1721.72,101.35 1723.81,103.04 C1725.59,104.49 1727.13,104.77 1730.80,104.34 C1734.70,103.88 1735.81,104.13 1737.35,105.83 C1742.20,111.20 1743.73,127.69 1740.04,134.92 C1737.76,139.39 1736.55,140.00 1729.92,140.00 C1721.26,140.00 1721.23,140.07 1721.10,166.64 C1720.97,193.13 1721.93,203.38 1724.81,206.25 C1725.89,207.33 1728.93,208.62 1731.58,209.11 C1740.58,210.79 1743.74,216.78 1742.55,229.91 C1741.71,239.32 1739.98,242.65 1734.68,245.06 C1730.20,247.09 1721.47,247.61 1719.00,245.98 Z M2446.13,244.84 C2443.25,243.41 2441.33,241.62 2440.50,239.59 C2439.52,237.20 2439.27,222.40 2439.39,174.50 C2439.54,116.99 2439.68,112.23 2441.35,108.83 C2443.79,103.87 2448.05,102.00 2456.94,102.00 L2464.07,102.00 L2468.45,106.50 C2474.13,112.35 2476.24,112.31 2481.57,106.25 L2485.75,101.50 L2494.82,101.15 C2503.35,100.83 2504.04,100.95 2506.35,103.26 C2508.34,105.25 2508.94,107.14 2509.51,113.30 C2509.90,117.47 2510.05,124.28 2509.84,128.43 C2509.29,139.32 2507.91,140.50 2495.68,140.50 C2484.33,140.50 2482.78,141.35 2476.24,151.18 L2471.50,158.31 L2471.00,199.05 C2470.43,245.12 2470.94,242.47 2462.22,245.44 C2455.97,247.57 2451.30,247.40 2446.13,244.84 Z M3088.29,243.57 C3081.86,240.49 3081.03,239.75 3080.07,236.32 C3079.49,234.22 3079.00,230.93 3078.98,229.00 C3078.93,223.14 3077.17,216.85 3073.52,209.50 C3070.63,203.69 3069.87,200.73 3069.01,192.08 C3068.15,183.35 3067.35,180.26 3064.05,173.08 C3060.74,165.86 3059.93,162.75 3058.96,153.50 C3058.33,147.45 3056.91,140.03 3055.80,137.00 C3047.91,115.36 3047.75,114.77 3048.92,110.88 C3049.53,108.83 3051.41,105.99 3053.09,104.57 C3055.85,102.26 3056.99,102.00 3064.53,102.00 C3073.97,102.00 3076.97,102.99 3079.25,106.84 C3080.11,108.31 3083.11,117.02 3085.91,126.21 C3089.88,139.24 3091.00,144.40 3091.01,149.70 C3091.02,162.18 3096.11,178.01 3100.38,178.83 C3103.00,179.34 3105.62,176.45 3106.87,171.70 C3107.47,169.39 3108.41,161.08 3108.95,153.24 C3109.82,140.72 3110.32,138.11 3113.03,131.94 C3114.73,128.07 3116.74,121.65 3117.50,117.67 C3119.18,108.89 3120.28,105.84 3122.43,104.06 C3123.37,103.28 3128.21,102.35 3133.76,101.88 C3141.53,101.22 3143.88,101.35 3145.63,102.50 C3148.95,104.67 3150.30,110.16 3149.79,119.38 C3149.42,126.06 3148.75,128.65 3146.02,134.00 C3143.34,139.27 3142.44,142.68 3141.30,152.00 C3140.22,160.82 3138.98,165.78 3135.97,173.30 C3133.42,179.66 3131.64,186.16 3130.90,191.80 C3129.59,201.81 3128.20,207.07 3124.64,215.53 C3123.24,218.84 3121.80,224.69 3121.42,228.53 C3120.26,240.41 3119.52,241.42 3109.69,244.41 C3105.03,245.84 3099.91,247.00 3098.33,247.00 C3096.74,247.00 3092.22,245.46 3088.29,243.57 Z M3174.74,245.59 C3170.08,243.90 3168.28,242.44 3166.41,238.83 C3165.18,236.46 3164.96,226.66 3165.00,176.26 C3165.02,143.39 3165.43,114.80 3165.92,112.73 C3167.16,107.41 3169.57,104.13 3172.76,103.43 C3174.27,103.10 3176.01,102.68 3176.63,102.49 C3178.71,101.87 3191.90,103.92 3193.93,105.19 C3198.25,107.89 3198.33,109.19 3198.26,174.49 C3198.18,244.43 3198.66,240.10 3190.67,243.87 C3184.85,246.61 3179.21,247.22 3174.74,245.59 Z M555.33,244.59 C548.76,241.63 549.15,247.11 548.92,153.00 C548.77,95.46 549.05,66.67 549.75,64.96 C551.64,60.36 552.82,60.03 566.62,60.27 C585.11,60.60 586.60,61.81 590.39,79.63 C591.67,85.67 594.04,93.17 595.72,96.50 C599.09,103.17 599.58,105.03 601.00,116.39 C601.75,122.38 602.85,125.82 605.54,130.65 C608.15,135.31 609.64,139.86 611.13,147.71 C613.52,160.33 615.14,164.00 618.30,164.00 C623.62,164.00 627.36,158.83 628.44,150.00 C629.71,139.63 631.17,133.85 634.17,127.45 C636.06,123.41 637.72,117.45 638.67,111.27 C639.90,103.34 640.90,100.28 644.01,95.00 C646.86,90.16 648.12,86.58 648.96,81.00 C651.68,62.80 652.47,62.02 669.21,60.94 C675.97,60.51 682.77,60.41 684.32,60.72 C687.75,61.40 689.71,64.19 690.49,69.50 C690.94,72.57 692.12,130.82 692.02,145.00 C691.28,247.93 691.66,241.21 686.45,244.63 C684.40,245.97 682.50,246.13 675.76,245.54 C666.34,244.72 662.37,243.03 660.83,239.20 C660.11,237.40 659.86,226.29 660.09,206.00 C660.60,159.03 660.63,160.46 659.12,158.65 C655.32,154.06 651.99,158.17 650.14,169.74 C649.50,173.73 647.63,180.70 645.97,185.24 C644.31,189.79 641.83,199.11 640.47,205.96 C638.44,216.16 637.22,219.76 633.75,225.83 C627.73,236.35 625.98,238.00 620.88,238.00 C617.18,238.00 616.12,237.44 612.35,233.50 C605.00,225.84 600.74,216.41 598.33,202.50 C597.47,197.55 595.43,190.12 593.78,186.00 C592.14,181.88 590.19,174.48 589.45,169.58 C588.02,160.15 585.88,156.34 582.70,157.56 C579.70,158.71 579.26,164.27 579.77,194.58 C580.60,243.50 580.14,245.27 566.35,245.75 C561.15,245.93 557.43,245.54 555.33,244.59 Z M2254.31,244.99 C2253.10,244.50 2251.30,242.87 2250.31,241.35 C2248.71,238.91 2248.44,235.30 2247.94,210.04 C2247.11,168.06 2247.74,114.34 2249.11,110.07 C2250.99,104.17 2253.66,102.00 2259.02,102.00 C2265.02,102.00 2271.48,103.99 2276.39,107.34 C2282.02,111.19 2285.51,110.86 2289.95,106.05 C2294.55,101.07 2297.41,100.00 2306.10,100.00 C2313.47,100.00 2318.53,101.53 2320.99,104.48 C2321.80,105.47 2324.05,107.27 2325.99,108.50 C2331.45,111.95 2339.09,123.82 2340.65,131.26 C2342.24,138.86 2342.59,236.31 2341.04,240.39 C2338.39,247.37 2320.88,248.10 2313.25,241.54 L2310.50,239.18 L2309.98,194.84 C2309.39,143.74 2309.50,144.44 2301.39,140.85 C2295.92,138.43 2290.13,138.78 2286.09,141.77 C2280.59,145.83 2280.58,145.96 2280.02,193.50 C2279.62,227.52 2279.20,238.03 2278.17,239.84 C2275.35,244.79 2261.33,247.82 2254.31,244.99 Z M2643.48,244.60 C2641.81,243.88 2639.87,242.02 2639.17,240.47 C2637.16,236.06 2637.39,59.08 2639.41,55.17 C2641.63,50.89 2645.20,49.76 2653.94,50.56 C2663.69,51.46 2665.52,52.22 2667.70,56.21 C2669.39,59.29 2669.52,64.99 2669.78,147.47 C2670.00,214.37 2669.77,236.13 2668.86,238.34 C2666.33,244.46 2651.52,248.11 2643.48,244.60 Z M2979.42,243.69 C2976.96,241.57 2976.65,240.47 2975.75,230.44 C2975.05,222.70 2975.10,215.91 2975.93,207.24 C2976.83,197.81 2976.82,193.58 2975.91,188.93 C2975.11,184.86 2974.97,179.40 2975.49,172.20 C2975.91,166.31 2976.23,159.25 2976.20,156.50 C2975.93,131.77 2976.23,113.91 2976.99,110.54 C2978.51,103.78 2980.48,102.92 2993.16,103.44 C3003.07,103.85 3004.37,104.13 3007.12,106.45 C3008.79,107.85 3010.46,109.00 3010.83,109.00 C3013.41,109.00 3018.52,106.68 3021.87,103.99 C3028.25,98.85 3036.69,99.89 3040.56,106.29 C3042.11,108.85 3042.46,111.11 3042.30,117.50 C3042.20,121.90 3042.54,127.43 3043.07,129.79 C3044.84,137.71 3041.82,140.05 3028.56,141.02 L3019.62,141.68 L3015.34,146.40 C3012.98,149.00 3010.60,152.79 3010.03,154.81 C3009.42,157.03 3009.01,173.83 3009.00,197.00 C3009.00,241.87 3009.10,241.27 3000.50,244.21 C2997.75,245.14 2992.49,245.93 2988.81,245.96 C2983.21,245.99 2981.67,245.62 2979.42,243.69 Z M1863.32,215.88 C1867.00,214.00 1874.00,206.69 1874.00,204.73 C1874.00,202.62 1870.70,197.88 1864.04,190.41 C1861.54,187.60 1858.40,183.45 1857.05,181.17 C1849.72,168.72 1842.32,167.38 1839.56,178.00 C1839.20,179.38 1837.71,183.10 1836.25,186.28 C1833.79,191.66 1833.69,192.39 1834.85,196.73 C1836.18,201.69 1841.89,211.83 1844.63,214.11 C1846.08,215.31 1851.89,216.44 1858.82,216.86 C1860.09,216.94 1862.11,216.50 1863.32,215.88 Z M986.13,213.33 C986.88,212.42 989.84,210.17 992.71,208.33 C996.89,205.65 998.04,204.31 998.57,201.50 C999.88,194.51 996.97,187.00 992.97,187.00 C992.02,187.00 989.63,187.68 987.65,188.50 C985.68,189.32 982.00,190.00 979.49,190.00 C973.96,190.00 970.48,192.90 969.46,198.38 C968.48,203.59 969.62,206.86 973.95,211.18 C976.91,214.15 978.54,215.00 981.26,215.00 C983.31,215.00 985.32,214.31 986.13,213.33 Z M265.54,209.98 C267.01,208.62 268.66,206.38 269.21,205.00 C270.57,201.60 270.39,191.17 268.93,189.42 C267.43,187.61 262.23,187.65 259.00,189.50 C257.62,190.29 254.20,190.95 251.38,190.96 C243.90,191.02 241.00,193.58 241.00,200.12 C241.00,205.87 243.15,210.69 246.30,212.04 C247.51,212.55 251.73,212.86 255.69,212.72 C261.76,212.51 263.29,212.08 265.54,209.98 Z M762.30,211.38 C767.22,208.89 768.92,207.02 770.04,202.84 C771.35,197.99 769.76,191.48 766.90,189.95 C764.23,188.52 759.81,188.44 756.32,189.77 C754.77,190.37 751.76,191.14 749.64,191.49 C742.18,192.73 738.75,199.95 742.28,207.00 C744.97,212.40 755.67,214.74 762.30,211.38 Z M2186.11,209.25 C2196.51,198.15 2198.00,193.79 2198.00,174.56 L2198.00,160.44 L2194.42,152.97 C2189.51,142.71 2186.70,139.29 2182.03,137.89 C2176.73,136.30 2173.47,137.75 2167.05,144.54 C2163.57,148.22 2161.97,150.76 2161.92,152.69 C2161.87,154.24 2161.58,159.10 2161.27,163.50 C2160.27,177.51 2160.57,194.33 2161.87,198.19 C2164.44,205.79 2172.75,213.00 2178.95,213.00 C2181.87,213.00 2183.29,212.26 2186.11,209.25 Z M2575.72,209.58 C2577.30,208.26 2580.59,202.97 2583.04,197.83 L2587.50,188.50 L2587.39,176.00 C2587.28,162.12 2586.38,157.85 2581.35,147.25 C2576.08,136.15 2572.21,135.08 2560.00,141.33 C2556.91,142.92 2554.72,145.02 2553.00,148.07 C2550.55,152.42 2550.50,152.90 2550.52,174.00 C2550.54,201.52 2551.79,205.63 2561.50,210.11 C2567.16,212.72 2572.21,212.53 2575.72,209.58 Z M1105.64,207.88 C1106.44,207.22 1109.28,203.35 1111.94,199.30 C1116.09,192.98 1116.95,190.79 1117.94,184.02 C1118.97,176.99 1118.77,166.27 1117.45,157.47 C1117.02,154.66 1111.72,146.54 1106.86,141.25 C1104.15,138.30 1099.20,138.31 1091.55,141.28 C1084.10,144.16 1082.19,146.74 1081.16,155.35 C1079.97,165.18 1080.40,192.94 1081.79,196.24 C1083.58,200.49 1090.92,207.91 1094.38,208.96 C1098.11,210.09 1103.61,209.57 1105.64,207.88 Z M1232.75,156.77 C1235.05,154.90 1234.04,151.31 1229.06,143.68 C1223.74,135.53 1219.52,132.40 1215.31,133.46 C1212.30,134.21 1203.37,142.39 1201.41,146.17 C1199.49,149.89 1199.64,154.94 1201.75,157.27 C1203.37,159.07 1204.43,159.15 1217.50,158.49 C1225.20,158.10 1232.06,157.32 1232.75,156.77 Z M1517.25,157.21 C1520.48,154.40 1519.19,149.00 1514.08,143.94 C1512.66,142.53 1510.00,139.72 1508.17,137.69 C1502.64,131.56 1499.65,132.47 1488.25,143.69 C1481.66,150.17 1480.27,154.12 1483.43,157.29 C1485.59,159.44 1514.77,159.37 1517.25,157.21 Z M2927.58,156.56 C2928.36,155.49 2929.00,153.76 2929.00,152.70 C2929.00,150.45 2915.54,136.19 2912.20,134.90 C2908.84,133.60 2904.52,135.87 2897.25,142.73 C2892.13,147.57 2891.00,149.20 2891.00,151.81 C2891.00,153.59 2891.83,155.83 2892.87,156.87 C2894.54,158.54 2896.35,158.72 2910.45,158.62 C2924.77,158.51 2926.29,158.33 2927.58,156.56 Z M3387.90,156.60 C3390.38,154.35 3390.69,149.23 3388.58,145.16 C3387.12,142.33 3374.35,134.00 3371.48,134.00 C3367.81,134.00 3364.01,137.32 3359.63,144.34 C3357.08,148.43 3355.00,152.44 3355.00,153.26 C3355.00,157.08 3362.92,158.96 3377.65,158.67 C3384.10,158.53 3386.23,158.10 3387.90,156.60 Z M1861.61,123.25 C1866.55,117.97 1869.00,112.80 1869.00,107.66 C1869.00,100.72 1867.95,97.16 1864.97,93.96 C1862.68,91.51 1861.40,91.00 1857.62,91.00 C1853.84,91.00 1852.76,91.43 1851.40,93.51 C1849.05,97.10 1848.60,103.37 1849.95,113.60 C1851.80,127.59 1855.04,130.28 1861.61,123.25 Z M3172.91,88.72 C3172.04,88.05 3169.12,84.80 3166.43,81.50 C3160.29,73.98 3160.07,70.64 3165.06,60.54 C3169.70,51.16 3172.19,49.48 3181.32,49.56 C3189.16,49.63 3194.02,51.48 3196.35,55.27 C3197.11,56.50 3198.31,61.41 3199.02,66.19 C3200.18,74.06 3200.14,75.13 3198.59,77.50 C3196.63,80.50 3189.78,86.92 3186.63,88.71 C3183.87,90.29 3174.96,90.29 3172.91,88.72 Z"/>
</svg>