<svg xmlns="http://www.w3.org/2000/svg" viewBox="0 0 2120 340" width="2120" height="340">
<path fill="#7c726c" fill-rule="evenodd" d="M68.52,285.04 C68.19,284.51 69.74,282.93 71.96,281.53 C74.17,280.13 77.09,277.24 78.44,275.10 C79.79,272.96 82.32,270.20 84.07,268.95 C85.97,267.60 88.23,264.44 89.70,261.09 C91.05,258.02 93.92,253.68 96.09,251.45 C99.42,248.02 100.23,246.31 101.39,240.25 C102.37,235.08 103.62,232.01 105.90,229.12 C107.64,226.93 109.94,222.59 111.01,219.47 C112.08,216.36 114.32,212.26 115.98,210.37 C117.64,208.48 119.00,206.75 119.00,206.53 C119.00,203.04 122.67,190.59 124.53,187.77 C125.89,185.73 128.35,179.07 130.00,172.98 C131.66,166.90 134.36,159.25 136.01,155.99 C139.72,148.63 139.87,145.35 136.55,143.84 C131.57,141.57 124.57,146.27 119.92,154.99 C118.20,158.23 115.93,161.66 114.89,162.60 C113.84,163.55 112.07,167.42 110.94,171.21 C109.34,176.58 108.32,178.35 106.33,179.26 C104.08,180.28 103.53,180.14 101.88,178.10 C100.63,176.56 100.00,174.19 100.00,171.07 C100.00,166.77 100.38,166.01 104.38,162.43 C108.10,159.08 108.94,157.60 109.98,152.50 C111.36,145.70 119.08,131.65 122.76,129.24 C124.61,128.02 126.89,127.83 133.80,128.32 C145.63,129.16 146.82,128.47 150.03,118.91 C151.42,114.76 153.57,110.09 154.80,108.52 C156.03,106.96 157.98,102.49 159.13,98.59 C160.28,94.69 163.84,86.10 167.03,79.50 C172.09,69.05 173.91,66.39 181.17,58.90 C187.79,52.07 191.04,49.58 197.00,46.73 C207.05,41.94 208.51,41.61 211.93,43.31 C214.26,44.48 215.66,44.54 219.02,43.65 C222.80,42.64 223.66,42.78 227.85,45.09 C240.04,51.81 243.66,69.82 234.45,77.91 C229.83,81.96 224.66,82.88 221.16,80.28 C217.87,77.83 217.39,74.37 219.47,68.10 C220.76,64.22 220.86,62.34 220.01,58.53 C218.85,53.35 216.63,48.51 214.93,47.46 C213.47,46.56 209.90,50.01 203.01,59.00 C199.85,63.12 196.25,67.40 195.02,68.50 C192.52,70.74 189.63,76.06 188.61,80.32 C188.23,81.87 186.38,85.47 184.50,88.32 C182.61,91.18 180.43,96.30 179.62,99.76 C178.83,103.20 177.24,107.48 176.09,109.26 C171.16,116.93 168.93,122.69 169.90,125.25 C171.25,128.78 173.24,129.36 184.50,129.45 C190.00,129.49 197.49,130.16 201.15,130.93 C207.69,132.30 207.98,132.28 217.79,129.16 C228.96,125.62 233.65,125.32 243.97,127.49 C257.11,130.26 258.97,132.12 262.74,146.30 C265.76,157.64 265.74,159.80 262.50,168.40 C259.99,175.07 259.97,175.37 261.50,180.66 C263.22,186.57 266.36,189.12 269.81,187.41 C273.80,185.42 287.03,170.18 289.39,164.84 C290.88,161.47 293.22,158.30 295.52,156.56 C298.94,153.94 299.19,153.42 298.69,149.75 C298.40,147.57 296.77,143.55 295.08,140.82 C291.46,135.00 291.18,130.88 294.10,126.00 C297.04,121.06 299.94,119.05 304.10,119.02 C308.82,118.99 312.36,122.29 315.64,129.76 C319.00,137.40 321.53,140.00 325.62,140.00 C328.28,140.00 329.61,139.15 332.62,135.55 C339.03,127.88 349.91,124.78 355.37,129.07 C359.26,132.13 358.97,136.92 354.60,141.75 C352.74,143.82 350.68,147.53 350.03,150.01 C349.38,152.48 347.13,157.43 345.03,161.00 C340.90,168.02 339.51,171.91 338.54,179.13 C338.19,181.68 336.36,187.46 334.46,191.96 C332.56,196.47 331.00,200.93 331.00,201.88 C331.00,203.98 332.89,206.00 334.85,206.00 C337.30,206.00 346.13,199.06 358.65,187.30 C360.51,185.56 361.00,184.04 361.00,180.12 C361.00,175.94 361.42,174.82 363.63,173.07 C366.80,170.59 367.39,170.53 369.43,172.57 C370.40,173.54 371.00,175.89 371.00,178.73 C371.00,182.77 370.53,183.76 367.00,187.11 C364.48,189.51 362.21,193.05 360.84,196.71 C359.06,201.51 357.05,204.09 349.12,211.78 C332.67,227.73 324.77,231.64 316.20,228.09 C310.17,225.58 309.48,222.84 309.66,202.00 C309.83,183.66 309.86,183.43 313.05,175.50 C314.82,171.10 317.33,165.93 318.63,164.02 C321.63,159.62 321.79,153.79 319.00,151.00 C316.58,148.58 315.77,148.54 311.42,150.60 C306.53,152.92 301.00,159.41 301.00,162.82 C301.00,167.73 298.13,175.53 295.40,178.06 C293.95,179.40 291.69,182.18 290.38,184.23 C288.95,186.48 286.07,188.94 283.18,190.41 C280.54,191.75 277.73,193.62 276.94,194.58 C273.90,198.24 269.87,199.02 263.22,197.24 C257.32,195.66 257.02,195.67 254.94,197.55 C253.76,198.62 251.93,201.18 250.89,203.23 C249.84,205.28 247.67,207.92 246.07,209.11 C244.46,210.30 241.78,213.17 240.10,215.51 C237.83,218.67 235.59,220.33 231.28,222.06 C228.10,223.33 223.73,225.53 221.58,226.94 C218.29,229.08 216.24,229.56 209.02,229.84 C197.45,230.30 193.67,229.10 186.73,222.77 C181.33,217.84 180.83,217.00 178.99,209.63 C177.23,202.60 177.13,200.46 178.02,189.63 C178.57,182.96 179.30,175.70 179.64,173.50 C180.69,166.67 184.68,159.19 190.55,153.04 C194.04,149.38 196.04,146.46 195.83,145.34 C195.00,141.07 186.88,139.94 174.50,142.38 C163.25,144.61 163.44,144.40 160.54,157.29 C159.70,161.02 157.23,167.32 155.06,171.29 C152.88,175.25 150.79,180.53 150.41,183.00 C149.57,188.45 146.58,196.37 144.00,200.00 C142.95,201.47 141.32,205.55 140.37,209.08 C139.42,212.61 137.71,216.84 136.57,218.48 C133.72,222.57 123.28,243.35 120.86,249.73 C119.73,252.70 117.46,256.16 115.62,257.73 C113.83,259.25 111.30,262.07 110.00,264.00 C107.20,268.14 95.15,279.79 93.00,280.44 C92.17,280.69 88.89,281.35 85.71,281.92 C82.52,282.48 78.93,283.64 77.73,284.47 C75.31,286.17 69.45,286.53 68.52,285.04 Z M50.98,279.14 C47.52,275.68 47.36,273.88 49.51,262.50 C51.26,253.19 53.47,250.46 58.46,251.42 C65.01,252.68 66.07,257.20 63.67,273.50 L62.49,281.50 L58.23,281.81 C54.61,282.07 53.51,281.66 50.98,279.14 Z M662.90,231.00 C657.39,230.05 647.83,225.54 645.15,222.61 C644.09,221.45 642.50,217.94 641.60,214.81 C638.61,204.33 634.13,203.12 630.00,211.67 C627.07,217.73 624.56,220.70 621.62,221.58 C620.45,221.93 617.11,223.83 614.19,225.82 C609.98,228.67 608.00,229.39 604.69,229.26 C598.86,229.03 593.71,223.52 591.33,214.96 C589.54,208.53 586.69,205.41 583.65,206.58 C582.75,206.92 580.43,209.83 578.48,213.03 C575.55,217.86 573.53,219.73 566.72,223.93 C559.84,228.18 557.73,229.00 553.70,229.00 C547.95,229.00 544.34,227.29 540.24,222.63 C536.57,218.44 535.53,214.38 536.87,209.49 C538.53,203.48 536.57,201.10 533.24,205.08 C532.28,206.23 529.02,208.45 526.00,210.01 C522.98,211.57 519.29,214.40 517.82,216.29 C513.15,222.26 505.20,221.93 499.32,215.51 C495.71,211.57 494.27,211.65 489.50,216.07 C487.85,217.60 482.45,221.24 477.50,224.17 L468.50,229.50 L456.42,229.50 L444.34,229.50 L438.70,225.24 C435.60,222.90 432.62,220.16 432.09,219.16 C428.78,212.98 430.73,192.82 435.88,179.96 C437.58,175.72 439.34,168.82 439.93,164.05 C440.80,157.15 441.69,154.46 444.89,149.07 C447.47,144.73 449.16,140.35 449.86,136.17 C450.45,132.69 452.71,125.94 454.88,121.17 C457.06,116.40 459.82,109.12 461.03,105.00 C462.24,100.88 464.19,96.18 465.36,94.58 C466.54,92.97 469.52,87.57 472.00,82.58 C477.81,70.86 481.28,68.09 493.38,65.55 C504.70,63.18 505.38,63.76 501.16,72.33 C499.42,75.86 498.00,79.05 498.00,79.42 C498.00,79.79 496.24,82.66 494.09,85.80 C491.82,89.10 489.65,93.82 488.93,97.00 C488.24,100.03 486.27,104.56 484.54,107.07 C482.81,109.59 480.82,114.21 480.12,117.35 C479.33,120.88 477.52,124.78 475.37,127.61 C471.13,133.15 470.00,135.97 470.00,140.94 C470.00,148.83 476.40,148.86 481.00,141.00 C484.58,134.87 490.75,130.44 499.27,127.85 C506.39,125.69 506.43,125.69 511.93,127.59 C519.85,130.33 521.52,133.23 522.32,145.67 C522.97,155.70 521.40,170.37 519.02,176.50 C518.38,178.15 516.15,181.75 514.06,184.50 C509.77,190.15 505.75,201.80 507.20,204.39 C507.77,205.42 509.44,206.00 511.82,206.00 C515.17,206.00 516.20,205.28 522.13,198.73 C525.75,194.73 529.52,189.90 530.50,187.98 C531.49,186.07 533.80,182.74 535.64,180.58 C537.48,178.42 539.87,174.28 540.96,171.38 C542.04,168.48 544.43,164.14 546.27,161.74 C548.28,159.11 550.10,155.12 550.87,151.70 C552.25,145.50 558.80,134.99 563.41,131.55 C565.72,129.82 567.40,129.54 574.14,129.75 C578.54,129.89 583.00,130.47 584.07,131.04 C586.84,132.52 586.45,136.16 583.05,140.44 C581.25,142.70 579.83,145.94 579.41,148.75 C578.90,152.14 577.70,154.46 574.82,157.58 C571.60,161.08 570.74,162.91 569.90,168.14 C569.34,171.62 567.61,176.72 566.06,179.48 C564.50,182.24 562.20,188.85 560.94,194.16 C558.76,203.33 558.74,203.95 560.35,206.41 C563.25,210.83 567.10,209.96 573.54,203.42 C576.56,200.34 579.75,196.41 580.63,194.67 C581.50,192.92 583.93,189.70 586.02,187.50 C588.44,184.96 590.39,181.56 591.38,178.19 C592.23,175.27 594.25,171.21 595.87,169.16 C597.49,167.12 599.59,163.08 600.54,160.17 C601.49,157.27 604.00,152.79 606.13,150.22 C608.26,147.64 610.00,145.02 610.00,144.38 C610.00,143.74 612.05,140.43 614.56,137.03 C621.77,127.23 630.41,124.61 637.40,130.10 C640.96,132.90 640.67,135.51 636.07,142.28 C633.91,145.46 631.37,150.41 630.42,153.28 C629.48,156.15 627.24,161.43 625.45,165.00 C623.66,168.57 621.87,173.06 621.47,174.96 C621.08,176.86 619.91,180.39 618.87,182.79 C616.82,187.58 616.37,196.95 618.04,200.07 C620.15,204.02 631.00,201.43 631.00,196.98 C631.00,196.42 632.75,194.05 634.90,191.73 C637.04,189.40 639.28,185.68 639.88,183.45 C641.29,178.19 651.96,167.00 655.55,167.00 C659.26,167.00 658.89,171.92 654.83,176.55 C652.35,179.36 651.56,181.31 651.22,185.35 C650.80,190.48 650.83,190.55 654.45,192.28 C659.66,194.76 661.34,199.24 660.48,208.40 C659.89,214.71 660.03,215.72 661.78,217.30 C666.89,221.92 676.78,220.15 684.09,213.32 C689.69,208.08 690.94,204.18 688.71,198.84 C686.95,194.64 680.98,186.02 675.92,180.39 C673.89,178.14 671.67,175.21 670.99,173.89 C669.26,170.53 664.87,166.00 663.35,166.00 C658.78,166.00 660.03,153.31 665.84,140.89 C669.84,132.32 669.90,132.25 677.68,127.75 C685.24,123.39 685.85,123.21 695.87,122.65 C707.49,122.00 710.79,122.85 715.09,127.63 C718.92,131.87 720.31,136.26 719.80,142.45 C719.04,151.58 712.46,159.00 705.12,159.00 C699.00,159.00 697.62,154.13 700.54,142.86 C702.47,135.38 701.18,131.66 696.49,131.22 C690.33,130.63 679.66,143.10 681.63,148.60 C682.00,149.64 685.53,153.88 689.47,158.00 C693.40,162.12 697.27,166.43 698.06,167.56 C698.85,168.69 701.57,171.03 704.11,172.76 C709.09,176.16 710.50,178.77 711.51,186.50 C712.17,191.62 714.26,196.00 716.05,196.00 C718.63,196.00 727.08,188.27 729.61,183.59 C731.12,180.79 733.82,176.36 735.61,173.74 C737.40,171.12 739.37,166.52 740.00,163.52 C740.77,159.78 742.31,156.64 744.86,153.55 C746.91,151.07 749.19,147.34 749.93,145.27 C753.42,135.53 761.78,128.64 771.69,127.32 C774.87,126.90 775.90,127.24 777.95,129.43 C781.38,133.10 781.20,137.78 777.45,142.50 C771.17,150.41 769.98,152.61 768.86,158.31 C768.22,161.55 766.71,165.40 765.50,166.85 C762.20,170.82 761.27,173.00 760.51,178.50 C760.14,181.25 759.16,186.00 758.34,189.06 C756.40,196.26 756.85,201.05 759.54,202.03 C765.13,204.08 776.70,195.39 779.49,187.06 C780.33,184.55 782.56,180.56 784.45,178.18 C786.34,175.80 788.63,171.75 789.53,169.18 C791.54,163.47 793.42,159.48 796.01,155.43 C797.13,153.68 798.42,148.99 799.03,144.43 C800.94,130.23 802.34,128.00 809.37,128.00 C814.17,128.00 817.51,129.42 822.29,133.52 C827.25,137.77 829.06,137.85 833.81,134.04 C839.41,129.56 857.25,125.80 864.91,127.48 C869.48,128.48 873.81,132.57 875.01,137.03 C875.87,140.23 875.69,141.91 873.99,146.70 C872.85,149.89 871.30,155.97 870.55,160.21 C869.58,165.66 868.13,169.61 865.58,173.74 C860.93,181.27 860.00,184.74 860.00,194.54 C860.00,206.94 862.00,207.78 871.52,199.37 C875.56,195.80 878.49,192.24 879.53,189.63 C880.44,187.37 883.11,183.45 885.47,180.93 C888.99,177.16 889.90,175.39 890.49,171.06 C891.08,166.79 892.10,164.73 895.86,160.29 C902.20,152.80 912.44,142.54 919.76,136.37 C925.49,131.52 926.32,131.16 934.30,129.97 C950.26,127.60 960.66,129.77 967.44,136.91 C969.82,139.42 970.45,141.08 970.79,145.76 C971.59,156.78 967.64,164.24 958.11,169.74 C955.58,171.20 951.54,173.87 949.14,175.67 C943.88,179.63 941.44,180.14 927.01,180.34 C916.67,180.49 915.68,180.67 913.98,182.78 C911.44,185.91 909.65,195.31 910.32,201.97 C910.82,206.92 911.33,207.90 915.18,211.35 C920.77,216.35 924.55,218.24 929.18,218.37 C932.22,218.45 933.66,217.77 936.72,214.82 C938.80,212.82 942.08,210.52 944.00,209.71 C947.17,208.38 953.05,203.00 964.63,190.84 C966.91,188.45 969.29,184.87 969.92,182.87 C971.37,178.31 974.15,175.74 977.17,176.17 C979.31,176.47 979.52,177.04 979.80,183.27 C980.09,189.89 980.02,190.08 977.06,191.77 C973.90,193.58 972.60,195.54 973.56,197.09 C974.59,198.77 976.94,198.02 978.59,195.50 C983.08,188.65 992.41,197.30 989.92,206.00 C989.52,207.38 989.15,210.16 989.10,212.19 C988.96,217.22 991.64,219.00 999.35,219.00 C1006.50,219.00 1010.51,216.83 1015.53,210.26 C1019.81,204.66 1019.87,202.36 1015.88,197.39 C1014.16,195.25 1011.91,191.53 1010.86,189.13 C1009.82,186.72 1006.72,182.65 1003.98,180.08 C1001.24,177.50 999.00,174.67 999.00,173.77 C999.00,171.28 994.13,168.00 990.42,168.00 C988.61,168.00 986.87,167.60 986.57,167.11 C986.26,166.62 986.93,164.16 988.04,161.63 C989.16,159.11 990.33,154.00 990.65,150.28 C991.03,145.90 992.06,142.06 993.55,139.43 C996.15,134.87 1001.77,129.00 1003.53,129.00 C1004.17,129.00 1007.56,127.14 1011.08,124.87 C1017.46,120.75 1017.47,120.75 1025.22,121.28 C1034.26,121.90 1040.25,124.41 1046.25,130.12 C1050.21,133.89 1050.27,134.06 1049.72,139.41 C1048.39,152.35 1042.74,158.00 1031.16,158.00 C1023.48,158.00 1022.15,156.61 1024.80,151.33 C1027.93,145.10 1030.20,137.19 1029.49,134.96 C1028.59,132.13 1024.71,130.78 1021.25,132.09 C1012.20,135.52 1006.61,149.57 1012.25,154.70 C1013.49,155.82 1015.81,157.16 1017.41,157.68 C1019.72,158.41 1020.60,159.55 1021.64,163.13 C1022.81,167.14 1023.57,167.96 1028.40,170.40 C1035.84,174.17 1038.91,178.82 1040.08,188.09 C1041.42,198.78 1046.14,202.59 1049.58,195.75 C1050.48,193.96 1052.80,190.85 1054.72,188.84 C1057.16,186.29 1058.49,183.74 1059.11,180.42 C1060.30,174.05 1062.43,171.82 1066.95,172.20 C1069.76,172.44 1070.57,172.97 1070.82,174.75 C1071.44,179.10 1068.88,188.21 1066.40,190.51 C1061.89,194.68 1063.63,198.01 1068.69,194.88 C1071.60,193.09 1072.49,192.96 1074.95,193.98 C1078.44,195.43 1079.34,198.42 1078.44,205.62 C1078.07,208.56 1078.06,212.09 1078.40,213.46 C1079.26,216.89 1083.83,219.00 1090.37,219.00 C1096.75,219.00 1100.77,216.32 1104.04,209.91 C1106.62,204.86 1106.51,201.74 1103.57,196.68 C1102.24,194.38 1100.84,190.83 1100.47,188.80 C1100.10,186.76 1098.83,184.20 1097.65,183.10 C1096.47,182.00 1091.81,177.45 1087.30,172.97 L1079.09,164.83 L1079.69,154.67 C1080.56,139.72 1085.22,131.93 1095.63,128.04 C1098.65,126.91 1103.24,124.86 1105.81,123.49 C1112.70,119.82 1116.57,120.21 1126.51,125.59 C1137.50,131.53 1139.38,133.85 1138.69,140.62 C1138.07,146.69 1135.34,152.40 1131.14,156.39 C1128.86,158.55 1126.83,159.41 1123.10,159.76 C1115.30,160.51 1113.00,159.59 1113.00,155.71 C1113.00,153.93 1114.08,150.88 1115.40,148.94 C1120.58,141.30 1120.68,133.32 1115.61,131.53 C1111.72,130.16 1108.35,132.34 1103.55,139.31 C1097.53,148.05 1098.48,155.16 1106.20,159.10 C1108.27,160.16 1110.63,162.33 1111.46,163.92 C1112.28,165.52 1115.77,168.78 1119.20,171.18 C1128.30,177.52 1130.00,180.51 1130.00,190.15 C1130.00,196.57 1130.35,198.35 1131.93,199.93 C1134.83,202.83 1137.63,201.53 1139.61,196.36 C1140.63,193.69 1142.82,190.72 1145.15,188.88 C1148.33,186.36 1149.01,185.19 1149.06,182.17 C1149.15,176.11 1151.16,171.66 1154.30,170.56 C1158.09,169.23 1160.41,170.83 1160.83,175.03 C1161.46,181.48 1160.17,184.87 1156.09,187.44 C1153.02,189.38 1151.92,190.97 1150.39,195.67 C1148.76,200.69 1147.94,201.78 1144.50,203.55 C1141.72,204.97 1138.97,207.84 1135.48,212.98 C1131.59,218.72 1129.47,220.82 1125.98,222.43 C1123.52,223.57 1119.79,225.57 1117.70,226.87 C1111.86,230.49 1097.45,232.33 1084.92,231.04 C1079.46,230.48 1073.48,229.39 1071.64,228.62 C1066.49,226.47 1061.20,220.62 1060.45,216.26 C1058.99,207.70 1057.88,204.90 1055.51,203.82 C1051.99,202.22 1050.34,203.33 1047.93,208.94 C1045.59,214.38 1041.13,218.93 1032.78,224.40 C1024.07,230.11 1011.27,232.42 996.69,230.92 C979.24,229.13 973.05,225.40 970.98,215.40 C970.34,212.33 968.95,208.95 967.89,207.89 C966.10,206.10 965.75,206.08 962.98,207.51 C961.34,208.36 958.31,211.33 956.25,214.12 C953.82,217.41 950.57,220.22 947.00,222.13 C943.98,223.75 939.92,226.22 938.00,227.62 C934.65,230.06 934.01,230.16 923.00,229.83 C911.83,229.50 911.26,229.37 902.95,225.29 C891.68,219.76 890.65,218.53 890.17,209.96 C889.93,205.75 889.24,202.62 888.40,201.92 C886.29,200.17 882.68,201.58 880.69,204.94 C879.71,206.61 877.36,209.15 875.47,210.59 C873.58,212.03 871.11,214.71 869.98,216.54 C867.22,220.99 852.59,229.00 847.20,229.00 C842.59,229.00 841.31,228.09 836.07,221.03 C831.33,214.66 830.89,210.89 833.96,203.11 C835.03,200.39 836.86,193.06 838.02,186.83 C840.69,172.56 840.58,172.89 843.67,168.34 C846.67,163.92 849.99,155.15 850.71,149.74 C851.38,144.74 849.10,141.37 844.15,140.04 C838.53,138.53 834.76,140.20 830.53,146.09 C828.59,148.79 826.57,151.00 826.05,151.00 C825.52,151.00 823.44,154.49 821.42,158.75 C819.40,163.01 816.23,168.19 814.38,170.25 C812.52,172.32 811.00,174.34 810.99,174.75 C810.94,179.69 808.24,189.51 805.47,194.85 C803.37,198.88 801.27,205.13 800.14,210.72 C799.11,215.79 797.50,221.11 796.56,222.55 C792.85,228.21 779.28,231.17 775.61,227.12 C774.68,226.09 773.65,223.61 773.32,221.60 C772.81,218.45 772.44,218.04 770.62,218.60 C765.60,220.12 761.26,222.28 758.00,224.86 C753.13,228.72 751.50,229.16 744.78,228.40 C736.02,227.40 732.81,224.83 731.17,217.47 C729.09,208.18 727.95,205.95 724.43,204.27 C719.46,201.90 718.00,203.01 717.98,209.22 C717.97,215.56 717.60,216.21 711.72,220.30 C709.20,222.06 705.42,224.72 703.32,226.21 C700.65,228.10 697.39,229.21 692.50,229.90 C682.00,231.36 668.08,231.88 662.90,231.00 Z M1251.27,229.99 C1243.95,229.36 1242.57,228.90 1238.77,225.86 C1236.42,223.98 1232.63,221.25 1230.35,219.78 C1223.75,215.53 1220.62,208.08 1220.17,195.51 L1219.81,185.50 L1224.26,177.00 C1226.71,172.32 1229.56,166.07 1230.60,163.11 C1231.64,160.14 1234.09,155.87 1236.05,153.61 C1238.00,151.35 1240.47,148.10 1241.55,146.39 C1245.07,140.79 1254.81,133.81 1261.96,131.76 C1274.19,128.27 1275.41,128.08 1279.50,129.03 C1281.70,129.53 1285.76,129.96 1288.52,129.98 C1298.70,130.03 1305.25,136.99 1305.39,147.91 C1305.45,152.59 1304.85,154.59 1301.70,160.23 C1294.28,173.47 1276.51,182.06 1259.90,180.42 C1251.36,179.58 1248.39,181.09 1247.51,186.74 C1247.19,188.81 1246.46,193.13 1245.89,196.35 C1244.93,201.82 1245.04,202.55 1247.64,207.68 C1250.95,214.24 1255.10,218.00 1259.02,218.00 C1263.85,218.00 1279.91,209.14 1285.50,203.38 C1288.25,200.55 1292.41,197.27 1294.75,196.09 C1298.67,194.12 1299.00,193.65 1299.00,190.01 C1299.00,186.77 1299.78,185.19 1303.40,181.11 C1305.83,178.38 1308.13,174.65 1308.53,172.82 C1310.05,165.75 1312.06,162.34 1315.98,160.13 C1319.62,158.09 1319.90,157.59 1320.48,152.22 C1322.09,137.39 1322.89,135.83 1331.35,130.97 C1342.03,124.84 1349.28,127.74 1350.46,138.62 C1352.08,153.50 1353.32,156.00 1359.07,156.00 C1363.38,156.00 1365.47,154.63 1369.00,149.50 C1370.69,147.04 1375.87,141.20 1380.51,136.51 C1387.71,129.25 1389.44,128.00 1392.25,128.00 C1399.52,128.00 1402.52,134.09 1397.34,138.33 C1395.88,139.52 1388.06,147.03 1379.97,155.00 C1371.87,162.97 1364.07,170.48 1362.62,171.67 C1359.24,174.48 1359.20,178.49 1362.51,184.75 C1363.89,187.36 1366.44,193.24 1368.17,197.81 C1371.57,206.76 1374.47,210.00 1379.07,210.00 C1383.57,210.00 1386.81,208.31 1392.03,203.25 C1394.73,200.64 1397.65,197.82 1398.51,197.00 C1401.83,193.85 1408.08,184.35 1409.69,180.02 C1410.61,177.53 1413.21,173.47 1415.47,171.00 C1417.83,168.41 1420.50,163.96 1421.76,160.50 C1423.18,156.60 1424.92,153.84 1426.73,152.62 C1428.25,151.58 1431.22,148.52 1433.31,145.81 C1437.11,140.90 1447.62,133.31 1454.76,130.32 C1460.01,128.13 1482.62,128.87 1486.43,131.36 C1492.09,135.07 1497.70,147.47 1496.53,153.68 C1495.53,159.03 1485.80,169.00 1481.60,169.00 C1475.69,168.99 1470.00,163.75 1470.00,158.31 C1470.00,157.45 1472.29,154.53 1475.09,151.82 C1479.46,147.59 1480.09,146.50 1479.54,144.19 C1478.15,138.43 1473.30,137.55 1465.20,141.59 C1459.73,144.31 1454.24,150.11 1447.30,160.50 C1441.26,169.54 1440.26,171.91 1438.63,181.08 C1437.81,185.71 1436.43,191.47 1435.57,193.88 C1433.14,200.65 1433.57,203.01 1438.48,209.75 C1444.01,217.36 1445.76,218.33 1452.97,217.81 C1457.63,217.47 1459.38,216.79 1462.64,214.05 C1464.83,212.21 1468.62,209.94 1471.06,209.00 C1474.01,207.87 1476.17,206.16 1477.50,203.94 C1478.60,202.10 1481.49,198.64 1483.93,196.26 C1486.36,193.88 1489.18,190.09 1490.18,187.84 C1491.19,185.59 1493.37,182.21 1495.02,180.33 C1496.75,178.36 1498.74,174.32 1499.72,170.80 C1501.12,165.76 1502.07,164.23 1505.17,162.09 C1507.50,160.49 1509.55,157.93 1510.55,155.38 C1512.51,150.40 1519.81,143.10 1530.24,135.67 C1540.38,128.46 1543.24,127.58 1553.91,128.40 C1566.17,129.35 1569.79,130.40 1573.71,134.17 C1578.41,138.69 1580.00,142.06 1580.00,147.51 C1580.00,160.08 1575.18,166.63 1559.46,175.38 L1550.72,180.24 L1537.38,180.38 C1526.86,180.49 1523.72,180.85 1522.51,182.06 C1520.30,184.27 1518.56,199.65 1519.94,204.77 C1522.18,213.10 1527.76,217.00 1537.43,217.00 C1542.07,217.00 1543.45,216.55 1546.22,214.12 C1548.02,212.53 1551.10,210.57 1553.05,209.75 C1555.00,208.94 1557.88,206.75 1559.44,204.89 C1561.01,203.03 1563.59,200.71 1565.18,199.74 C1566.78,198.77 1568.91,196.05 1569.93,193.66 C1570.98,191.22 1573.58,187.92 1575.90,186.08 C1578.98,183.64 1580.30,181.69 1581.15,178.32 C1581.77,175.85 1584.03,171.61 1586.17,168.90 C1589.11,165.19 1590.45,162.21 1591.65,156.74 C1592.52,152.76 1594.58,147.36 1596.24,144.73 C1598.71,140.80 1599.35,138.49 1599.88,131.61 C1600.49,123.80 1600.77,123.00 1604.21,119.19 C1607.73,115.30 1609.03,112.07 1610.45,103.75 C1610.80,101.68 1613.11,97.05 1615.57,93.45 C1618.09,89.77 1620.69,84.43 1621.52,81.25 C1622.37,77.99 1624.19,74.31 1625.82,72.55 C1627.37,70.87 1629.47,68.15 1630.48,66.50 C1634.68,59.63 1645.45,49.90 1653.23,45.94 C1664.32,40.28 1669.63,40.75 1676.50,47.98 C1679.05,50.66 1679.50,51.90 1679.47,56.32 C1679.43,64.57 1678.14,68.98 1674.91,71.93 C1672.48,74.16 1671.72,76.00 1670.59,82.52 C1669.51,88.70 1668.71,90.78 1666.86,92.15 C1662.98,95.02 1662.13,96.07 1655.27,106.50 C1651.65,112.00 1644.77,120.78 1639.99,126.00 C1635.20,131.22 1630.48,137.06 1629.50,138.97 C1628.52,140.88 1625.41,144.93 1622.59,147.97 C1612.74,158.60 1610.73,162.34 1610.00,171.41 C1609.64,175.86 1608.81,180.51 1608.15,181.73 C1607.49,182.96 1607.05,186.60 1607.18,189.82 C1607.36,194.56 1606.99,196.20 1605.20,198.47 C1601.23,203.51 1603.29,208.00 1609.57,208.00 C1612.08,208.00 1614.03,207.07 1616.86,204.51 C1618.99,202.58 1622.29,200.36 1624.20,199.56 C1628.42,197.80 1629.31,196.69 1630.87,191.23 C1631.54,188.89 1633.36,185.51 1634.91,183.73 C1636.46,181.96 1638.64,178.70 1639.76,176.50 C1640.88,174.30 1643.41,170.09 1645.40,167.15 C1647.38,164.20 1649.70,159.25 1650.55,156.15 C1651.39,153.04 1653.40,146.22 1655.01,141.00 C1656.61,135.78 1658.23,130.15 1658.60,128.50 C1658.97,126.85 1661.62,120.98 1664.49,115.46 C1668.16,108.42 1669.93,103.69 1670.44,99.63 C1671.09,94.41 1671.51,93.63 1674.61,91.80 C1679.05,89.18 1680.00,87.28 1680.00,81.00 C1680.00,74.68 1681.09,72.51 1684.96,71.16 C1686.61,70.59 1688.84,68.63 1689.92,66.81 C1694.41,59.22 1700.76,51.69 1704.53,49.45 C1706.75,48.14 1709.87,45.70 1711.47,44.03 C1715.07,40.27 1719.90,40.00 1726.47,43.20 C1731.50,45.64 1731.92,47.00 1729.31,52.47 C1727.67,55.91 1727.69,56.10 1729.82,58.76 C1733.90,63.85 1734.26,65.83 1732.42,73.31 C1731.35,77.68 1729.53,81.78 1727.42,84.54 C1725.59,86.93 1723.13,90.83 1721.94,93.20 C1720.75,95.56 1718.51,98.85 1716.94,100.50 C1715.38,102.15 1712.97,106.07 1711.58,109.22 C1710.19,112.36 1707.65,116.19 1705.93,117.72 C1704.21,119.25 1702.11,121.85 1701.27,123.50 C1700.43,125.15 1697.44,128.82 1694.62,131.66 C1683.11,143.28 1674.16,153.78 1671.75,158.50 C1670.90,160.15 1669.46,166.22 1668.55,171.99 C1667.63,177.76 1666.05,184.37 1665.03,186.68 C1664.00,188.99 1662.64,193.40 1662.00,196.49 C1661.01,201.29 1661.07,202.46 1662.44,204.55 C1663.78,206.59 1664.86,207.00 1668.86,207.00 C1673.47,207.00 1673.99,206.70 1680.78,200.08 C1684.68,196.28 1688.82,191.31 1689.98,189.04 C1691.14,186.77 1693.60,183.24 1695.45,181.19 C1697.41,179.01 1699.48,175.15 1700.43,171.88 C1701.36,168.70 1703.18,165.27 1704.66,163.90 C1706.10,162.58 1708.13,159.59 1709.18,157.25 C1710.23,154.91 1712.98,151.01 1715.30,148.58 C1717.61,146.15 1720.88,142.66 1722.58,140.83 C1724.27,139.00 1728.99,135.70 1733.08,133.50 L1740.50,129.50 L1753.50,129.50 C1765.86,129.50 1766.73,129.63 1771.14,132.23 C1780.15,137.53 1782.96,143.75 1779.92,151.68 C1779.33,153.23 1778.54,157.20 1778.17,160.50 C1777.53,166.27 1777.35,166.58 1773.45,168.55 C1771.22,169.67 1767.78,171.83 1765.80,173.34 C1760.65,177.27 1750.23,179.99 1738.00,180.60 C1732.22,180.89 1726.46,181.34 1725.18,181.60 C1718.55,182.95 1718.26,204.10 1724.78,211.31 C1727.66,214.50 1734.07,217.20 1739.11,217.35 C1743.22,217.48 1744.35,217.06 1747.19,214.32 C1749.01,212.57 1751.74,210.83 1753.25,210.46 C1754.76,210.09 1757.01,208.64 1758.25,207.25 C1762.19,202.81 1770.79,193.65 1775.39,189.00 C1778.78,185.58 1780.19,183.13 1781.32,178.78 C1782.37,174.69 1783.79,172.12 1786.28,169.78 C1789.00,167.21 1790.02,165.19 1790.97,160.50 C1791.64,157.20 1793.22,152.70 1794.49,150.50 C1795.76,148.30 1797.11,143.80 1797.50,140.50 C1798.41,132.80 1799.87,130.60 1805.47,128.46 C1811.72,126.07 1815.46,127.26 1819.83,133.03 C1821.69,135.49 1824.74,138.30 1826.61,139.27 C1828.47,140.25 1830.00,141.51 1830.00,142.07 C1830.00,144.03 1827.16,148.52 1824.05,151.47 C1822.14,153.29 1820.33,156.49 1819.40,159.71 C1818.56,162.60 1816.32,166.82 1814.43,169.08 C1812.49,171.41 1810.31,175.64 1809.41,178.84 C1808.53,181.95 1806.25,187.57 1804.35,191.32 C1802.13,195.68 1800.34,201.23 1799.38,206.73 C1797.10,219.76 1792.66,226.90 1785.60,228.84 C1781.78,229.90 1776.98,229.05 1774.33,226.85 C1773.51,226.18 1771.75,223.46 1770.41,220.81 C1769.06,218.17 1767.29,216.00 1766.47,216.00 C1764.93,216.00 1760.88,218.44 1746.12,228.24 C1742.11,230.91 1723.03,230.72 1717.50,227.96 C1704.16,221.29 1701.41,218.48 1700.71,210.74 C1699.92,202.00 1695.98,199.36 1691.67,204.69 C1690.48,206.17 1686.35,210.45 1682.50,214.20 C1669.83,226.54 1654.76,232.03 1645.98,227.49 C1642.03,225.45 1640.89,222.95 1639.91,214.23 C1638.89,205.19 1638.35,203.35 1636.46,202.62 C1634.11,201.72 1632.46,202.84 1630.20,206.86 C1625.88,214.54 1620.30,219.64 1610.88,224.51 C1602.68,228.74 1601.21,229.18 1596.53,228.79 C1592.84,228.49 1590.14,227.51 1587.25,225.43 C1581.75,221.48 1580.82,219.71 1580.24,212.05 C1579.66,204.44 1578.81,203.00 1574.90,203.00 C1572.56,203.00 1571.66,203.74 1569.95,207.10 C1566.02,214.81 1560.38,219.72 1549.11,225.29 C1539.13,230.21 1538.11,230.50 1531.02,230.44 C1526.88,230.41 1521.73,229.79 1519.57,229.06 C1515.56,227.70 1502.59,219.76 1501.49,217.99 C1501.16,217.45 1500.44,214.21 1499.89,210.79 C1498.03,199.22 1495.99,199.25 1485.50,211.00 C1478.84,218.46 1476.66,220.23 1472.50,221.62 C1469.75,222.54 1465.70,224.57 1463.50,226.13 C1457.99,230.05 1449.68,231.49 1441.11,230.02 C1428.51,227.85 1420.98,222.75 1412.95,210.92 C1407.30,202.61 1406.14,202.82 1395.85,214.04 C1379.22,232.17 1365.01,234.77 1353.50,221.79 C1351.30,219.30 1347.93,214.45 1346.00,211.00 C1339.00,198.44 1335.60,199.83 1321.36,221.02 C1316.70,227.95 1306.48,231.30 1301.44,227.56 C1299.55,226.15 1299.58,225.95 1302.94,219.40 C1305.25,214.90 1307.38,212.16 1309.41,211.09 C1312.11,209.68 1313.98,207.95 1320.90,200.50 C1321.92,199.40 1323.82,197.53 1325.13,196.35 C1329.86,192.07 1336.00,184.14 1336.00,182.31 C1336.00,176.47 1327.39,162.00 1323.92,162.00 C1322.57,162.00 1321.23,165.65 1320.47,171.44 C1319.93,175.58 1319.11,177.04 1315.48,180.44 C1313.10,182.67 1310.47,186.18 1309.63,188.23 C1308.76,190.38 1306.72,192.80 1304.81,193.96 C1301.89,195.73 1301.44,196.59 1301.00,201.19 C1300.54,205.98 1300.12,206.70 1296.00,209.83 C1293.53,211.71 1290.60,214.53 1289.50,216.10 C1288.40,217.66 1285.37,219.86 1282.76,220.99 C1280.15,222.13 1276.46,224.41 1274.56,226.08 C1270.91,229.28 1266.15,231.09 1262.01,230.86 C1260.63,230.78 1255.80,230.39 1251.27,229.99 Z M1993.25,229.50 C1986.44,227.61 1981.42,224.99 1976.67,220.84 C1973.51,218.09 1972.58,216.36 1971.34,211.01 C1969.56,203.27 1968.66,202.00 1964.90,202.00 C1962.54,202.00 1961.67,202.74 1959.90,206.25 C1955.79,214.39 1949.65,220.42 1940.79,225.02 C1932.80,229.17 1932.10,229.35 1921.61,229.78 C1909.11,230.30 1905.31,229.45 1897.42,224.41 C1891.06,220.34 1889.44,218.09 1888.48,212.00 C1887.63,206.62 1886.38,204.00 1884.66,204.00 C1882.57,204.00 1871.72,212.43 1868.34,216.69 C1866.60,218.87 1862.07,222.54 1858.28,224.83 C1850.56,229.49 1845.31,230.22 1839.70,227.38 C1830.86,222.92 1829.40,218.67 1831.02,202.16 C1831.96,192.55 1832.74,189.25 1835.47,183.38 C1837.29,179.47 1839.33,172.95 1840.01,168.88 C1841.60,159.44 1842.48,157.17 1845.99,153.50 C1850.26,149.04 1850.76,145.67 1847.64,142.55 C1845.42,140.33 1844.24,140.00 1838.42,140.00 L1831.75,140.00 L1832.40,136.75 C1833.42,131.64 1836.62,129.24 1844.00,128.06 C1853.25,126.58 1862.61,126.75 1865.91,128.46 C1869.05,130.08 1872.00,135.40 1872.00,139.44 C1872.00,144.40 1866.87,164.94 1862.44,177.72 C1856.47,194.94 1856.52,202.00 1862.62,202.00 C1866.02,202.00 1875.95,192.35 1878.57,186.50 C1879.80,183.75 1882.44,179.93 1884.44,178.01 C1886.93,175.63 1888.58,172.79 1889.65,169.01 C1890.51,165.98 1892.47,162.15 1893.99,160.50 C1895.52,158.85 1897.92,155.62 1899.34,153.33 C1900.76,151.04 1903.63,147.90 1905.71,146.35 C1907.80,144.81 1911.79,141.51 1914.59,139.02 C1917.39,136.54 1922.34,133.17 1925.59,131.54 C1931.02,128.82 1932.28,128.60 1941.18,128.75 C1951.64,128.93 1956.61,130.37 1960.95,134.48 C1962.35,135.81 1964.85,138.01 1966.50,139.36 C1969.17,141.56 1969.49,142.41 1969.43,147.17 C1969.32,154.78 1965.32,162.20 1959.26,166.05 C1953.78,169.53 1950.25,169.77 1946.63,166.93 C1942.22,163.45 1943.44,157.50 1950.05,150.33 C1956.12,143.75 1955.53,142.31 1946.23,141.04 C1937.89,139.91 1934.47,141.21 1931.01,146.83 C1929.41,149.42 1926.79,152.52 1925.17,153.72 C1923.45,154.99 1921.58,157.77 1920.69,160.41 C1919.84,162.89 1917.80,166.88 1916.16,169.27 C1910.62,177.32 1907.92,192.51 1909.99,204.00 C1911.32,211.42 1913.63,214.53 1918.93,216.00 C1926.38,218.07 1931.90,217.10 1935.99,213.01 C1937.00,212.00 1939.84,210.28 1942.29,209.19 C1944.99,208.00 1947.50,205.96 1948.63,204.04 C1949.66,202.29 1951.99,199.94 1953.81,198.81 C1955.64,197.68 1958.28,194.94 1959.68,192.72 C1961.08,190.50 1963.51,187.60 1965.07,186.28 C1967.25,184.46 1968.20,182.42 1969.12,177.69 C1970.09,172.64 1970.99,170.86 1974.03,168.00 C1976.07,166.07 1978.92,162.15 1980.37,159.29 C1981.81,156.42 1984.26,152.59 1985.81,150.79 C1987.36,148.98 1989.63,146.06 1990.85,144.29 C1993.05,141.12 1998.38,137.61 2009.00,132.34 C2013.74,129.99 2016.03,129.56 2025.62,129.19 C2039.09,128.67 2042.47,129.62 2047.84,135.44 C2054.21,142.36 2054.38,149.93 2048.44,162.50 C2046.41,166.81 2044.89,168.25 2037.46,172.92 C2027.08,179.45 2020.91,181.27 2012.00,180.44 C2004.76,179.77 1996.49,181.25 1993.77,183.71 C1992.32,185.02 1992.00,186.99 1992.00,194.70 C1992.00,200.91 1992.49,205.04 1993.44,206.87 C1995.69,211.23 2002.48,216.78 2007.08,218.02 C2012.29,219.42 2015.42,218.69 2018.28,215.38 C2019.50,213.97 2022.98,211.36 2026.01,209.58 C2034.35,204.68 2046.64,191.75 2050.04,184.31 C2052.03,179.94 2053.76,177.66 2055.94,176.53 C2057.63,175.66 2060.16,173.13 2061.56,170.91 C2064.43,166.36 2067.32,165.96 2067.80,170.04 C2067.99,171.72 2067.23,173.37 2065.53,174.97 C2064.02,176.39 2062.17,180.07 2061.01,183.98 C2059.68,188.42 2058.01,191.56 2055.93,193.54 C2054.22,195.17 2051.92,198.30 2050.82,200.50 C2049.73,202.70 2046.51,206.78 2043.67,209.57 C2040.82,212.36 2037.72,215.81 2036.76,217.24 C2035.72,218.80 2032.78,220.69 2029.43,221.94 C2026.36,223.09 2022.04,225.49 2019.82,227.26 C2016.06,230.29 2015.24,230.51 2007.15,230.73 C2001.92,230.87 1996.42,230.38 1993.25,229.50 Z M218.80,216.59 C222.99,214.40 237.25,198.44 239.69,193.20 C242.31,187.57 242.50,184.44 240.50,179.65 C238.98,176.02 238.36,159.82 239.62,156.55 C239.96,155.66 242.21,153.57 244.62,151.92 C248.08,149.54 249.00,148.30 249.00,146.02 C249.00,139.31 241.29,138.16 230.82,143.31 C224.84,146.26 219.89,152.60 218.05,159.68 C217.45,161.98 215.46,165.66 213.62,167.86 C211.78,170.06 209.75,173.93 209.12,176.46 C208.48,178.98 206.39,184.00 204.48,187.61 C201.73,192.78 201.00,195.32 201.00,199.62 C201.00,205.86 202.75,210.74 206.14,213.96 C210.48,218.07 214.39,218.89 218.80,216.59 Z M471.63,210.95 C475.76,206.71 479.42,201.83 480.80,198.70 C482.07,195.84 484.45,192.10 486.11,190.39 C488.03,188.41 489.66,185.16 490.64,181.39 C491.47,178.15 493.45,173.47 495.02,171.00 C496.59,168.53 498.44,164.41 499.12,161.85 C500.20,157.80 500.14,156.87 498.67,154.62 C495.00,149.01 486.95,149.92 481.52,156.54 C479.50,159.01 476.51,161.72 474.89,162.56 C472.94,163.56 471.15,165.86 469.63,169.31 C468.36,172.18 465.89,176.10 464.13,178.01 C462.38,179.93 460.52,183.30 459.99,185.50 C459.47,187.70 458.31,191.53 457.42,194.00 C452.09,208.77 451.95,213.82 456.76,216.43 C462.08,219.32 464.25,218.52 471.63,210.95 Z M1745.72,167.40 C1751.15,164.25 1761.70,154.49 1763.56,150.89 C1766.13,145.91 1765.46,143.09 1761.30,141.35 C1755.11,138.77 1751.22,140.65 1740.35,151.52 C1732.40,159.47 1731.00,161.36 1731.00,164.11 C1731.00,165.89 1731.77,168.20 1732.72,169.24 C1734.87,171.62 1739.60,170.95 1745.72,167.40 Z M936.78,167.58 C941.30,165.26 950.90,156.22 954.36,151.03 C957.91,145.68 955.11,139.92 949.03,140.06 C943.86,140.17 939.83,142.74 930.53,151.81 C922.87,159.30 921.00,161.68 921.00,163.99 C921.00,170.29 928.28,171.94 936.78,167.58 Z M1545.28,168.61 C1550.17,166.49 1563.82,152.14 1564.59,148.32 C1565.49,143.81 1561.64,140.00 1556.18,140.00 C1551.71,140.00 1548.13,142.48 1538.42,152.33 C1529.52,161.35 1528.31,164.31 1532.00,168.00 C1534.39,170.39 1540.51,170.67 1545.28,168.61 Z M2019.97,167.74 C2021.56,167.06 2026.27,162.78 2030.43,158.24 C2038.54,149.39 2039.87,145.72 2036.35,141.83 C2033.11,138.25 2023.47,140.30 2017.64,145.80 C2012.09,151.04 2003.00,162.87 2003.00,164.85 C2003.00,168.74 2005.85,170.29 2011.73,169.60 C2014.67,169.26 2018.38,168.42 2019.97,167.74 Z M1280.99,160.12 C1288.82,152.40 1290.00,150.79 1290.00,147.84 C1290.00,145.97 1289.26,143.39 1288.36,142.10 C1286.91,140.03 1286.16,139.82 1281.92,140.32 C1274.83,141.16 1270.93,143.63 1263.07,152.27 C1255.58,160.51 1254.44,163.62 1257.65,167.17 C1258.93,168.58 1260.78,169.00 1265.64,169.00 L1271.98,169.00 L1280.99,160.12 Z M1636.80,114.74 C1637.37,114.05 1638.53,111.49 1639.37,109.06 C1640.35,106.20 1642.44,103.31 1645.25,100.90 C1649.43,97.34 1657.96,84.24 1659.53,79.00 C1659.94,77.62 1662.24,72.77 1664.64,68.21 C1669.28,59.39 1670.13,54.28 1667.43,51.57 C1666.56,50.71 1665.53,50.00 1665.12,50.00 C1663.85,50.00 1661.40,52.36 1658.92,55.99 C1657.60,57.91 1655.08,60.75 1653.32,62.29 C1650.94,64.38 1649.83,66.49 1648.99,70.54 C1648.25,74.13 1646.71,77.36 1644.46,80.05 C1642.50,82.39 1640.25,86.81 1639.16,90.46 C1638.11,93.95 1635.87,98.53 1634.17,100.65 C1630.33,105.45 1629.05,111.91 1631.47,114.33 C1633.46,116.32 1635.37,116.47 1636.80,114.74 Z M1697.26,113.25 C1698.12,112.29 1699.57,108.90 1700.49,105.72 C1701.69,101.58 1703.01,99.31 1705.18,97.72 C1706.83,96.50 1710.06,92.42 1712.35,88.66 C1714.63,84.90 1717.46,80.24 1718.63,78.31 C1721.67,73.29 1724.57,59.39 1722.97,57.46 C1719.40,53.17 1710.66,59.54 1707.58,68.68 C1706.69,71.33 1704.64,75.45 1703.03,77.83 C1701.42,80.21 1699.79,84.23 1699.41,86.77 C1698.88,90.27 1697.69,92.50 1694.50,95.95 C1689.75,101.09 1688.49,105.38 1690.04,111.14 C1690.86,114.20 1691.55,115.00 1693.38,115.00 C1694.65,115.00 1696.39,114.21 1697.26,113.25 Z M779.92,104.85 C778.40,102.02 779.26,95.05 781.71,90.31 C786.42,81.20 798.80,77.35 804.64,83.19 C807.01,85.55 807.21,86.26 806.38,89.17 C805.77,91.30 803.93,93.53 801.19,95.48 C798.85,97.14 794.68,100.41 791.93,102.75 C786.18,107.64 781.82,108.40 779.92,104.85 Z"/>
</svg>